<svg width="50" height="50" viewBox="0 0 50 50" fill="none" xmlns="http://www.w3.org/2000/svg">
<g clip-path="url(#clip0_125_2050)">
<path d="M7.97036 26.4062L5.7981 37.7937C5.67502 38.401 5.73977 39.0314 5.98371 39.601C6.22766 40.1705 6.63925 40.6524 7.16372 40.9823L12.0476 44.1339C12.1423 44.195 12.2526 44.2275 12.3653 44.2275H15.914L18.081 46.3944C18.2569 46.5699 18.4909 46.6752 18.7389 46.6904C18.9869 46.7056 19.2319 46.6297 19.428 46.477L20.4924 45.6456C20.3893 45.8352 20.3251 46.0435 20.3035 46.2582C20.2819 46.473 20.3033 46.6899 20.3666 46.8962C20.4299 47.1026 20.5337 47.2942 20.672 47.4599C20.8103 47.6256 20.9802 47.7621 21.1719 47.8613C21.2349 48.448 21.5123 48.9909 21.9509 49.3856C22.3896 49.7803 22.9586 49.9991 23.5487 50H26.4514C27.0415 49.9991 27.6105 49.7803 28.0492 49.3856C28.4879 48.9909 28.7653 48.4481 28.8282 47.8613C29.0199 47.7621 29.1899 47.6256 29.3282 47.4598C29.4665 47.2941 29.5703 47.1024 29.6335 46.896C29.6968 46.6896 29.7182 46.4726 29.6965 46.2579C29.6748 46.0431 29.6105 45.8348 29.5073 45.6452L30.5717 46.4767C30.7678 46.6294 31.0128 46.7053 31.2609 46.6901C31.5089 46.6748 31.7428 46.5696 31.9187 46.394L34.086 44.2275H37.6348C37.7475 44.2275 37.8578 44.195 37.9525 44.1339L42.8364 40.9824C43.3609 40.6524 43.7724 40.1706 44.0164 39.601C44.2603 39.0314 44.3251 38.401 44.202 37.7937L42.0297 26.4062C41.972 26.0869 41.8483 25.7832 41.6665 25.5144C41.4847 25.2457 41.2488 25.0178 40.9739 24.8455L34.698 20.8257C35.6557 19.3412 36.2938 17.6735 36.5717 15.9289C36.8496 14.1843 36.7612 12.4009 36.3122 10.6924C35.7075 8.38904 34.3235 6.16697 32.3097 4.26657C30.3528 2.41921 27.8907 0.954954 25.1896 0.0314184C25.0667 -0.0104728 24.9334 -0.0104728 24.8105 0.0314184C22.1094 0.954954 19.6473 2.41921 17.6904 4.26618C15.6766 6.16657 14.2925 8.38855 13.6878 10.692C13.2389 12.4006 13.1505 14.1839 13.4284 15.9285C13.7063 17.6731 14.3444 19.3407 15.302 20.8253L9.02622 24.8451C8.75127 25.0175 8.51533 25.2454 8.33352 25.5142C8.1517 25.783 8.02801 26.0869 7.97036 26.4062ZM28.0802 46.8739H21.9199C21.8598 46.8748 21.8002 46.8637 21.7445 46.8414C21.6888 46.819 21.6381 46.7858 21.5953 46.7436C21.5525 46.7015 21.5186 46.6513 21.4954 46.5959C21.4722 46.5405 21.4603 46.4811 21.4603 46.421C21.4603 46.361 21.4722 46.3015 21.4954 46.2462C21.5186 46.1908 21.5525 46.1405 21.5953 46.0984C21.6381 46.0563 21.6888 46.023 21.7445 46.0007C21.8002 45.9783 21.8598 45.9673 21.9199 45.9681H28.0802C28.1403 45.9673 28.1999 45.9783 28.2556 46.0007C28.3113 46.023 28.362 46.0563 28.4048 46.0984C28.4476 46.1405 28.4815 46.1908 28.5047 46.2462C28.5279 46.3015 28.5398 46.361 28.5398 46.421C28.5398 46.4811 28.5279 46.5405 28.5047 46.5959C28.4815 46.6513 28.4476 46.7015 28.4048 46.7436C28.362 46.7858 28.3113 46.819 28.2556 46.8414C28.1999 46.8637 28.1403 46.8748 28.0802 46.8739ZM28.3517 43.4814C28.1404 43.6226 27.9675 43.8141 27.8485 44.0387C27.7296 44.2633 27.6683 44.5139 27.6702 44.768V44.7963H27.4306V40.8613C27.4306 40.5781 27.2841 40.3575 26.9951 40.2054L25.6334 39.4463C25.6316 39.2435 25.5893 39.0431 25.5092 38.8569C25.429 38.6706 25.3125 38.5022 25.1666 38.3614C25.4166 38.4976 25.6996 38.5614 25.9838 38.5457C26.2681 38.5301 26.5423 38.4356 26.7759 38.2728C27.0094 38.11 27.193 37.8853 27.3061 37.6241C27.4191 37.3628 27.4571 37.0752 27.4159 36.7935C27.3746 36.5118 27.2558 36.2472 27.0726 36.0293C26.8894 35.8114 26.6491 35.6488 26.3787 35.5598C26.1082 35.4708 25.8184 35.4589 25.5416 35.5254C25.2648 35.5919 25.012 35.7342 24.8115 35.9363L23.7414 35.3393V32.6944C25.0974 32.4022 26.5128 32.591 27.7448 33.2282C28.9769 33.8655 29.9488 34.9116 30.494 36.1871C31.0391 37.4626 31.1235 38.888 30.7326 40.2189C30.3417 41.5498 29.5 42.7033 28.3517 43.4814ZM25.5377 37.0153C25.5377 36.944 25.5589 36.8743 25.5985 36.815C25.6381 36.7557 25.6945 36.7095 25.7603 36.6822C25.8262 36.6549 25.8987 36.6478 25.9687 36.6617C26.0386 36.6756 26.1029 36.71 26.1533 36.7604C26.2037 36.8108 26.238 36.8751 26.2519 36.945C26.2658 37.015 26.2587 37.0875 26.2314 37.1533C26.2041 37.2192 26.1578 37.2755 26.0985 37.3151C26.0392 37.3547 25.9695 37.3759 25.8982 37.3759C25.8027 37.3756 25.7111 37.3376 25.6435 37.27C25.576 37.2024 25.538 37.1108 25.5377 37.0153ZM23.0058 36.2714L24.3667 37.0301C24.3685 37.2328 24.4107 37.4332 24.4909 37.6195C24.571 37.8057 24.6875 37.9741 24.8334 38.1149C24.5834 37.9787 24.3004 37.9149 24.0161 37.9306C23.7319 37.9462 23.4576 38.0408 23.224 38.2036C22.9904 38.3664 22.8068 38.591 22.6938 38.8523C22.5808 39.1136 22.5427 39.4013 22.584 39.683C22.6252 39.9647 22.7442 40.2293 22.9274 40.4472C23.1106 40.6651 23.3509 40.8277 23.6213 40.9167C23.8918 41.0057 24.1817 41.0176 24.4585 40.9511C24.7353 40.8846 24.9881 40.7423 25.1886 40.5401L26.2587 41.137V44.7963H22.3298V44.7679C22.3317 44.5138 22.2704 44.2632 22.1515 44.0386C22.0325 43.814 21.8596 43.6225 21.6483 43.4813C20.7664 42.8838 20.0603 42.0614 19.6031 41.0992C19.146 40.137 18.9545 39.0701 19.0485 38.0089C19.1425 36.9478 19.5185 35.9312 20.1376 35.0643C20.7566 34.1974 21.5963 33.5118 22.5695 33.0786V35.6152C22.5695 35.8984 22.7163 36.1193 23.0058 36.2714ZM24.4624 39.4611C24.4624 39.5324 24.4412 39.6021 24.4016 39.6614C24.362 39.7207 24.3056 39.7669 24.2398 39.7942C24.1739 39.8215 24.1014 39.8286 24.0314 39.8147C23.9615 39.8008 23.8972 39.7665 23.8468 39.716C23.7964 39.6656 23.7621 39.6013 23.7482 39.5314C23.7343 39.4614 23.7414 39.3889 23.7687 39.3231C23.796 39.2572 23.8423 39.2009 23.9016 39.1613C23.9609 39.1217 24.0306 39.1005 24.1019 39.1006C24.1974 39.1008 24.289 39.1389 24.3566 39.2064C24.4241 39.274 24.4621 39.3656 24.4624 39.4611ZM26.4514 48.8281H23.5487C23.3024 48.8277 23.062 48.7527 22.8591 48.6131C22.6562 48.4735 22.5004 48.2757 22.4121 48.0458H27.5878C27.4995 48.2757 27.3437 48.4734 27.1409 48.6131C26.938 48.7527 26.6977 48.8277 26.4514 48.8281ZM31.1865 45.4698L29.7872 44.3768C29.7116 44.318 29.6227 44.2787 29.5283 44.2623C29.434 44.2459 29.3371 44.2529 29.246 44.2827C30.4562 43.3889 31.3534 42.136 31.8099 40.7025C32.2663 39.2689 32.2588 37.7279 31.7883 36.2989C31.3178 34.87 30.4083 33.6259 29.1895 32.744C27.9706 31.8621 26.5045 31.3874 25.0001 31.3874C23.4957 31.3874 22.0296 31.8621 20.8107 32.744C19.5919 33.6259 18.6824 34.87 18.2119 36.2989C17.7414 37.7279 17.7339 39.2689 18.1903 40.7025C18.6468 42.136 19.544 43.3889 20.7542 44.2827C20.6631 44.2528 20.5662 44.2458 20.4718 44.2622C20.3774 44.2786 20.2886 44.3179 20.2129 44.3767L18.8136 45.4697L16.7266 43.3828L17.8197 41.9836C17.8916 41.8914 17.9343 41.7799 17.9423 41.6633C17.9503 41.5467 17.9233 41.4304 17.8647 41.3293C17.4991 40.6996 17.2191 40.024 17.0321 39.3203C17.002 39.2073 16.9389 39.1058 16.8507 39.029C16.7625 38.9522 16.6533 38.9035 16.5373 38.8892L14.7754 38.6718V35.7207L16.5373 35.5042C16.6533 35.4899 16.7625 35.4413 16.8507 35.3645C16.9388 35.2877 17.002 35.1862 17.0321 35.0732C17.2191 34.3695 17.4991 33.6939 17.8647 33.0641C17.9233 32.963 17.9503 32.8467 17.9423 32.7301C17.9343 32.6135 17.8916 32.502 17.8197 32.4098L16.7267 31.0105L18.8136 28.9235L20.2129 30.0166C20.3051 30.0886 20.4168 30.1314 20.5335 30.1394C20.6502 30.1474 20.7666 30.1203 20.8678 30.0616C21.4975 29.696 22.1731 29.416 22.8768 29.229C22.9899 29.1989 23.0913 29.1357 23.1681 29.0475C23.245 28.9593 23.2936 28.8502 23.3079 28.7341L23.5244 26.9723H26.4757L26.6922 28.7341C26.7065 28.8502 26.7551 28.9593 26.832 29.0475C26.9088 29.1357 27.0103 29.1989 27.1233 29.229C27.827 29.416 28.5026 29.696 29.1323 30.0616C29.2335 30.1203 29.3499 30.1474 29.4666 30.1394C29.5833 30.1314 29.695 30.0886 29.7872 30.0166L31.1865 28.9235L33.2734 31.0105L32.1804 32.4098C32.1085 32.502 32.0658 32.6135 32.0578 32.7301C32.0498 32.8467 32.0768 32.963 32.1354 33.0641C32.501 33.6938 32.781 34.3694 32.968 35.0731C32.9981 35.1861 33.0612 35.2876 33.1494 35.3644C33.2376 35.4412 33.3468 35.4899 33.4628 35.5042L35.2247 35.7207V38.6718L33.4628 38.8884C33.3468 38.9026 33.2376 38.9513 33.1494 39.0281C33.0612 39.1049 32.9981 39.2064 32.968 39.3194C32.781 40.0231 32.501 40.6987 32.1354 41.3284C32.0768 41.4295 32.0498 41.5458 32.0578 41.6624C32.0658 41.779 32.1085 41.8906 32.1804 41.9827L33.2735 43.3828L31.1865 45.4698ZM25.0001 1.20632C30.1032 3.01052 34.0876 6.83357 35.1787 10.9895C35.3624 11.6917 35.4788 12.4098 35.5264 13.1341C32.3195 10.548 28.7044 9.18874 25.0001 9.18874C21.2957 9.18874 17.6806 10.5485 14.4737 13.1345C14.5212 12.4102 14.6376 11.6921 14.8214 10.9899C15.9125 6.83357 19.8969 3.01052 25.0001 1.20632ZM31.9056 12.1206C31.8275 15.353 31.0418 18.0599 29.6211 19.9624C28.3635 21.6467 26.7012 22.5735 24.9376 22.5735H24.9267C21.7048 22.5665 18.2266 19.29 18.09 12.1226C22.5619 9.73093 27.4334 9.73005 31.9056 12.1206ZM9.65826 25.832L15.982 21.7815C16.5164 22.4638 17.1189 23.0897 17.7802 23.6498C17.8389 23.6997 17.9069 23.7376 17.9803 23.7612C18.0536 23.7848 18.1309 23.7937 18.2077 23.7874C18.2846 23.7811 18.3594 23.7597 18.4279 23.7245C18.4964 23.6892 18.5573 23.6408 18.6071 23.582C18.6569 23.5231 18.6946 23.4551 18.718 23.3817C18.7415 23.3082 18.7502 23.2309 18.7437 23.1541C18.7372 23.0773 18.7156 23.0026 18.6802 22.9341C18.6448 22.8657 18.5962 22.8049 18.5373 22.7552C17.3537 21.7478 16.3842 20.5133 15.6861 19.1246C14.9881 17.7359 14.5756 16.2214 14.4732 14.6705C15.2449 13.9818 16.0699 13.3553 16.9406 12.797C17.2968 20.299 21.2518 23.7377 24.9242 23.7456H24.9378C27.0797 23.7456 29.0759 22.6518 30.5602 20.6636C32.0293 18.6959 32.8819 15.9885 33.0522 12.7926C33.9256 13.3519 34.7531 13.9799 35.5268 14.6706C35.4244 16.2215 35.012 17.7361 34.3139 19.1248C33.6159 20.5134 32.6464 21.748 31.4628 22.7554C31.4039 22.8051 31.3553 22.8659 31.3199 22.9343C31.2845 23.0028 31.2629 23.0775 31.2564 23.1543C31.2499 23.2311 31.2586 23.3084 31.2821 23.3818C31.3055 23.4553 31.3432 23.5233 31.393 23.5822C31.4428 23.641 31.5037 23.6894 31.5722 23.7247C31.6407 23.7599 31.7155 23.7813 31.7924 23.7876C31.8692 23.7939 31.9465 23.785 32.0198 23.7614C32.0932 23.7378 32.1612 23.6999 32.2199 23.65C32.8812 23.0899 33.4837 22.464 34.0181 21.7817L40.3418 25.832C40.4829 25.9181 40.6039 26.0335 40.6966 26.1704C40.7892 26.3073 40.8514 26.4625 40.879 26.6255L43.0512 38.0133C43.1278 38.3912 43.0876 38.7835 42.9358 39.138C42.784 39.4924 42.528 39.7923 42.2016 39.9977L37.4622 43.0556H34.4369C34.4007 42.9521 34.3479 42.8551 34.2806 42.7684L33.3423 41.5673C33.6048 41.067 33.8215 40.544 33.9899 40.0048L35.5025 39.8192C35.7491 39.7886 35.976 39.6691 36.1406 39.483C36.3053 39.2969 36.3963 39.057 36.3965 38.8086V35.5859C36.3963 35.3374 36.3053 35.0975 36.1406 34.9114C35.9759 34.7253 35.7489 34.6057 35.5023 34.5752L33.9898 34.3896C33.8214 33.8503 33.6047 33.3274 33.3422 32.8271L34.2805 31.626C34.4333 31.43 34.5093 31.1849 34.4941 30.9369C34.4789 30.6888 34.3736 30.4549 34.1981 30.279L31.919 27.998C31.743 27.8226 31.5091 27.7175 31.2611 27.7023C31.0131 27.6872 30.7681 27.763 30.5721 27.9157L29.3709 28.8542C28.8707 28.5916 28.3477 28.3749 27.8084 28.2065L27.6229 26.6942C27.5924 26.4475 27.4729 26.2205 27.2868 26.0558C27.1006 25.891 26.8607 25.8 26.6122 25.7998H23.3895C23.141 25.8 22.9011 25.891 22.715 26.0557C22.5288 26.2204 22.4093 26.4474 22.3788 26.694L22.1932 28.2065C21.6539 28.3749 21.131 28.5916 20.6307 28.8542L19.4295 27.9156C19.2335 27.7629 18.9885 27.687 18.7404 27.7022C18.4924 27.7174 18.2585 27.8227 18.0826 27.9982L15.8038 30.2773C15.6282 30.4532 15.5229 30.6871 15.5077 30.9351C15.4925 31.1832 15.5684 31.4282 15.7212 31.6242L16.6595 32.8254C16.3971 33.3256 16.1804 33.8486 16.0121 34.3879L14.4993 34.5734C14.2527 34.604 14.0257 34.7236 13.8611 34.9097C13.6964 35.0958 13.6055 35.3357 13.6052 35.5842V38.8068C13.6055 39.0553 13.6965 39.2951 13.8611 39.4812C14.0258 39.6674 14.2528 39.7869 14.4994 39.8175L16.012 40.003C16.1803 40.5423 16.397 41.0652 16.6595 41.5655L15.7212 42.7667C15.6539 42.8533 15.6012 42.9504 15.565 43.054H12.5379L7.79908 39.9976C7.47272 39.7923 7.21663 39.4924 7.06487 39.1379C6.9131 38.7834 6.87285 38.3912 6.94947 38.0133L9.12115 26.6256C9.14867 26.4626 9.21087 26.3074 9.30353 26.1705C9.39619 26.0336 9.51716 25.9181 9.65826 25.832Z" fill="url(#paint0_linear_125_2050)"/>
</g>
<defs>
<linearGradient id="paint0_linear_125_2050" x1="25" y1="0" x2="25" y2="50" gradientUnits="userSpaceOnUse">
<stop stop-color="#FF5C00"/>
<stop offset="1" stop-color="#FF5C00" stop-opacity="0.25"/>
</linearGradient>
<clipPath id="clip0_125_2050">
<rect width="50" height="50" fill="white"/>
</clipPath>
</defs>
</svg>
