<svg width="1188" height="1357" viewBox="0 0 1188 1357" fill="none" xmlns="http://www.w3.org/2000/svg">
<g style="mix-blend-mode:hard-light">
<g filter="url(#filter0_bf_140_1834)">
<path d="M77.734 194.219C-115.515 252.316 88.5001 1057.5 597 1350.5C1133 1029 1242.21 216.786 1148.5 194.219C825.765 116.5 719 38.5 597 5C463.597 48.3885 346.234 113.5 77.734 194.219Z" fill="black" fill-opacity="0.75"/>
</g>
<g filter="url(#filter1_bf_140_1834)">
<path d="M73.2733 194.149C-114.746 257.376 89.5106 1054.64 594.758 1350.86C595.942 1351.89 597.165 1352.61 598.427 1353C1106.5 1049 1268.7 213.984 1143.5 188.5C917.5 142.5 626 4 597 4C562.993 4 586.706 21.4939 73.2733 194.149Z" fill="url(#paint0_radial_140_1834)"/>
</g>
</g>
<defs>
<filter id="filter0_bf_140_1834" x="2.42488" y="1.59077" width="1179.61" height="1352.32" filterUnits="userSpaceOnUse" color-interpolation-filters="sRGB">
<feFlood flood-opacity="0" result="BackgroundImageFix"/>
<feGaussianBlur in="BackgroundImageFix" stdDeviation="0.157227"/>
<feComposite in2="SourceAlpha" operator="in" result="effect1_backgroundBlur_140_1834"/>
<feBlend mode="normal" in="SourceGraphic" in2="effect1_backgroundBlur_140_1834" result="shape"/>
<feGaussianBlur stdDeviation="1.70461" result="effect2_foregroundBlur_140_1834"/>
</filter>
<filter id="filter1_bf_140_1834" x="0.963333" y="0.590775" width="1186.27" height="1355.82" filterUnits="userSpaceOnUse" color-interpolation-filters="sRGB">
<feFlood flood-opacity="0" result="BackgroundImageFix"/>
<feGaussianBlur in="BackgroundImageFix" stdDeviation="0.157227"/>
<feComposite in2="SourceAlpha" operator="in" result="effect1_backgroundBlur_140_1834"/>
<feBlend mode="normal" in="SourceGraphic" in2="effect1_backgroundBlur_140_1834" result="shape"/>
<feGaussianBlur stdDeviation="1.70461" result="effect2_foregroundBlur_140_1834"/>
</filter>
<radialGradient id="paint0_radial_140_1834" cx="0" cy="0" r="1" gradientUnits="userSpaceOnUse" gradientTransform="translate(579.1 706.309) rotate(88.7464) scale(928.614 742.559)">
<!-- <stop stop-color="#26A69A" stop-opacity="0.1"/> -->
<stop offset="1" stop-color="#26A69A" stop-opacity="0.5"/>
</radialGradient>
</defs>
</svg>
