<svg width="51" height="50" viewBox="0 0 51 50" fill="none" xmlns="http://www.w3.org/2000/svg">
<path d="M8.83341 4.66675H33.8334C35.8585 4.66675 37.5001 6.30837 37.5001 8.33341V41.6667C37.5001 43.6918 35.8585 45.3334 33.8334 45.3334H8.83341C6.80837 45.3334 5.16675 43.6918 5.16675 41.6667V8.33341C5.16675 6.30837 6.80837 4.66675 8.83341 4.66675Z" stroke="black"/>
<path d="M8.83325 35.4166C8.83325 34.864 9.05275 34.3341 9.44345 33.9434C9.83415 33.5527 10.3641 33.3332 10.9166 33.3332H19.2499C19.8025 33.3332 20.3324 33.5527 20.7231 33.9434C21.1138 34.3341 21.3333 34.864 21.3333 35.4166C21.3333 35.9691 21.1138 36.499 20.7231 36.8897C20.3324 37.2804 19.8025 37.4999 19.2499 37.4999H10.9166C10.3641 37.4999 9.83415 37.2804 9.44345 36.8897C9.05275 36.499 8.83325 35.9691 8.83325 35.4166ZM39.8958 11.0416L26.1041 24.8124C25.911 25.0071 25.7582 25.2379 25.6546 25.4918C25.5509 25.7456 25.4983 26.0174 25.4999 26.2916V29.1666C25.4999 29.7191 25.7194 30.249 26.1101 30.6397C26.5008 31.0304 27.0307 31.2499 27.5833 31.2499H30.4791C30.7547 31.2488 31.0274 31.1929 31.2813 31.0857C31.5352 30.9784 31.7653 30.8218 31.9583 30.6249L45.7291 16.8749C46.1108 16.4855 46.3246 15.9619 46.3246 15.4166C46.3246 14.8713 46.1108 14.3477 45.7291 13.9582L42.8124 11.0416C42.423 10.6599 41.8994 10.446 41.3541 10.446C40.8088 10.446 40.2852 10.6599 39.8958 11.0416Z" fill="#7C12E5"/>
</svg>
