<svg width="37" height="37" viewBox="0 0 37 37" fill="none" xmlns="http://www.w3.org/2000/svg">
<circle cx="18.6238" cy="18.49" r="17.7812" fill="#040521"/>
<g clip-path="url(#clip0_714_10628)">
<path d="M29.2926 14.6492H7.95508V12.5155C7.95508 11.8096 8.52948 11.2352 9.23533 11.2352H28.0123C28.7182 11.2352 29.2926 11.8096 29.2926 12.5155V14.6492ZM7.95508 17.2097H29.2926V24.4645C29.2926 25.1703 28.7182 25.7447 28.0123 25.7447H9.23533C8.52948 25.7447 7.95508 25.1703 7.95508 24.4645V17.2097ZM16.0633 22.3307C16.2989 22.3307 16.4901 22.1395 16.4901 21.904C16.4901 21.6684 16.2989 21.4772 16.0633 21.4772H11.7958C11.5603 21.4772 11.3691 21.6684 11.3691 21.904C11.3691 22.1395 11.5603 22.3307 11.7958 22.3307H16.0633ZM19.4773 20.6237C19.7129 20.6237 19.9041 20.4326 19.9041 20.197C19.9041 19.9614 19.7129 19.7702 19.4773 19.7702H11.7958C11.5603 19.7702 11.3691 19.9614 11.3691 20.197C11.3691 20.4325 11.5603 20.6237 11.7958 20.6237H19.4773Z" fill="url(#paint0_linear_714_10628)"/>
</g>
<defs>
<linearGradient id="paint0_linear_714_10628" x1="18.6236" y1="11.1836" x2="18.6236" y2="25.6931" gradientUnits="userSpaceOnUse">
<stop stop-color="#5CEECA"/>
<stop offset="1" stop-color="#64CCFA"/>
</linearGradient>
<clipPath id="clip0_714_10628">
<rect width="21.3375" height="21.3375" fill="white" transform="translate(7.95508 7.82129)"/>
</clipPath>
</defs>
</svg>
