<svg width="36" height="35" viewBox="0 0 36 35" fill="none" xmlns="http://www.w3.org/2000/svg">
<path d="M32.4137 35H22.3362C20.635 35 19.25 33.615 19.25 31.9137V19.3362C19.25 17.635 20.635 16.25 22.3362 16.25H32.4137C34.115 16.25 35.5 17.635 35.5 19.3362V31.9137C35.5 33.615 34.115 35 32.4137 35ZM22.3362 18.75C22.0125 18.75 21.75 19.0125 21.75 19.3362V31.9137C21.75 32.2375 22.0125 32.5 22.3362 32.5H32.4137C32.7375 32.5 33 32.2375 33 31.9137V19.3362C33 19.0125 32.7375 18.75 32.4137 18.75H22.3362Z" fill="#646472"/>
<path d="M32.4137 13.75H22.3362C20.635 13.75 19.25 12.365 19.25 10.6637V3.08625C19.25 1.385 20.635 0 22.3362 0H32.4137C34.115 0 35.5 1.385 35.5 3.08625V10.6637C35.5 12.365 34.115 13.75 32.4137 13.75ZM22.3362 2.5C22.0125 2.5 21.75 2.7625 21.75 3.08625V10.6637C21.75 10.9875 22.0125 11.25 22.3362 11.25H32.4137C32.7375 11.25 33 10.9875 33 10.6637V3.08625C33 2.7625 32.7375 2.5 32.4137 2.5H22.3362Z" fill="#646472"/>
<path d="M13.6637 18.75H3.58625C1.885 18.75 0.5 17.365 0.5 15.6637V3.08625C0.5 1.385 1.885 0 3.58625 0H13.6637C15.365 0 16.75 1.385 16.75 3.08625V15.6637C16.75 17.365 15.365 18.75 13.6637 18.75ZM3.58625 2.5C3.2625 2.5 3 2.7625 3 3.08625V15.6637C3 15.9875 3.2625 16.25 3.58625 16.25H13.6637C13.9875 16.25 14.25 15.9875 14.25 15.6637V3.08625C14.25 2.7625 13.9875 2.5 13.6637 2.5H3.58625Z" fill="#646472"/>
<path d="M13.6637 35H3.58625C1.885 35 0.5 33.615 0.5 31.9137V24.3362C0.5 22.635 1.885 21.25 3.58625 21.25H13.6637C15.365 21.25 16.75 22.635 16.75 24.3362V31.9137C16.75 33.615 15.365 35 13.6637 35ZM3.58625 23.75C3.2625 23.75 3 24.0125 3 24.3362V31.9137C3 32.2375 3.2625 32.5 3.58625 32.5H13.6637C13.9875 32.5 14.25 32.2375 14.25 31.9137V24.3362C14.25 24.0125 13.9875 23.75 13.6637 23.75H3.58625Z" fill="#646472"/>
</svg>
