<svg width="26" height="26" viewBox="0 0 26 26" fill="none" xmlns="http://www.w3.org/2000/svg">
<path d="M23.4162 25.0463H16.2486C15.0385 25.0463 14.0535 24.0612 14.0535 22.8512V13.9054C14.0535 12.6954 15.0385 11.7103 16.2486 11.7103H23.4162C24.6262 11.7103 25.6113 12.6954 25.6113 13.9054V22.8512C25.6113 24.0612 24.6262 25.0463 23.4162 25.0463ZM16.2486 13.4885C16.0183 13.4885 15.8316 13.6752 15.8316 13.9054V22.8512C15.8316 23.0814 16.0183 23.2681 16.2486 23.2681H23.4162C23.6465 23.2681 23.8332 23.0814 23.8332 22.8512V13.9054C23.8332 13.6752 23.6465 13.4885 23.4162 13.4885H16.2486Z" fill="white"/>
<path d="M23.4162 9.93215H16.2486C15.0385 9.93215 14.0535 8.94707 14.0535 7.73706V2.34756C14.0535 1.13755 15.0385 0.152466 16.2486 0.152466H23.4162C24.6262 0.152466 25.6113 1.13755 25.6113 2.34756V7.73706C25.6113 8.94707 24.6262 9.93215 23.4162 9.93215ZM16.2486 1.93059C16.0183 1.93059 15.8316 2.11729 15.8316 2.34756V7.73706C15.8316 7.96733 16.0183 8.15403 16.2486 8.15403H23.4162C23.6465 8.15403 23.8332 7.96733 23.8332 7.73706V2.34756C23.8332 2.11729 23.6465 1.93059 23.4162 1.93059H16.2486Z" fill="white"/>
<path d="M10.0802 13.4884H2.91262C1.70261 13.4884 0.717529 12.5033 0.717529 11.2933V2.34756C0.717529 1.13755 1.70261 0.152466 2.91262 0.152466H10.0802C11.2903 0.152466 12.2753 1.13755 12.2753 2.34756V11.2933C12.2753 12.5033 11.2903 13.4884 10.0802 13.4884ZM2.91262 1.93059C2.68236 1.93059 2.49565 2.11729 2.49565 2.34756V11.2933C2.49565 11.5236 2.68236 11.7103 2.91262 11.7103H10.0802C10.3105 11.7103 10.4972 11.5236 10.4972 11.2933V2.34756C10.4972 2.11729 10.3105 1.93059 10.0802 1.93059H2.91262Z" fill="white"/>
<path d="M10.0802 25.0463H2.91262C1.70261 25.0463 0.717529 24.0612 0.717529 22.8512V17.4617C0.717529 16.2517 1.70261 15.2666 2.91262 15.2666H10.0802C11.2903 15.2666 12.2753 16.2517 12.2753 17.4617V22.8512C12.2753 24.0612 11.2903 25.0463 10.0802 25.0463ZM2.91262 17.0447C2.68236 17.0447 2.49565 17.2314 2.49565 17.4617V22.8512C2.49565 23.0815 2.68236 23.2682 2.91262 23.2682H10.0802C10.3105 23.2682 10.4972 23.0815 10.4972 22.8512V17.4617C10.4972 17.2314 10.3105 17.0447 10.0802 17.0447H2.91262Z" fill="white"/>
</svg>
