<svg width="50" height="50" viewBox="0 0 50 50" fill="none" xmlns="http://www.w3.org/2000/svg">
<g clip-path="url(#clip0_125_1981)">
<path d="M46.9014 9.30978H29.7063C29.6826 9.30978 29.6616 9.29719 29.6517 9.27697L27.8782 5.67971C27.3778 4.66156 26.3211 4.00391 25.1858 4.00391H14.7908C13.1359 4.00391 11.7897 5.3505 11.7897 7.0057V9.94798H8.8463C7.19186 9.94798 5.84565 11.2942 5.84565 12.949V15.8913H2.90337C1.24855 15.8913 -0.0976562 17.2375 -0.0976562 18.8923V43.1767C-0.0976562 44.8315 1.24855 46.1778 2.90337 46.1778H35.0144C36.6692 46.1778 38.0154 44.8315 38.0154 43.1767V40.2341H40.9581C42.6129 40.2341 43.9591 38.8879 43.9591 37.2334V34.2911H46.9014C48.5562 34.2911 49.9024 32.9449 49.9024 31.2901V12.3116C49.9024 10.6564 48.5562 9.30978 46.9014 9.30978ZM35.0144 43.2366H2.90337C2.87057 43.2366 2.84348 43.2099 2.84348 43.1767V18.8923C2.84348 18.8591 2.87057 18.8324 2.90337 18.8324H13.2992C13.3091 18.8324 13.3187 18.8359 13.3271 18.8404C13.3282 18.8412 13.3297 18.8408 13.3309 18.8416C13.3343 18.8439 13.3362 18.8481 13.3393 18.8507C13.3442 18.8557 13.3499 18.8599 13.353 18.866L15.1272 22.4644C15.6365 23.4967 16.668 24.1383 17.8189 24.1383H35.0144C35.0224 24.1383 35.0304 24.1398 35.0377 24.1429C35.059 24.152 35.0739 24.1734 35.0739 24.1982C35.0739 34.5696 35.0743 43.0821 35.0743 43.1767C35.0743 43.2099 35.0476 43.2366 35.0144 43.2366ZM41.018 37.2334C41.018 37.2662 40.9913 37.2929 40.9585 37.2929H38.0154V24.1982C38.0154 22.543 36.6689 21.1968 35.014 21.1968H17.8189C17.7967 21.1968 17.7754 21.1834 17.7655 21.1632L15.9909 17.5648C15.482 16.5337 14.4509 15.8913 13.2996 15.8913H8.78679V12.949C8.78679 12.9158 8.81349 12.8891 8.8463 12.8891H19.2425C19.2654 12.8891 19.286 12.9017 19.2963 12.9231L21.0709 16.5215C21.5805 17.5537 22.6117 18.195 23.7622 18.195H40.9585C40.9913 18.195 41.018 18.2217 41.018 18.2549V37.2334ZM46.9613 31.2901C46.9613 31.3233 46.9346 31.35 46.9014 31.35H43.9591V18.2549C43.9591 16.6001 42.6133 15.2539 40.9585 15.2539H23.7622C23.7397 15.2539 23.7187 15.2405 23.7084 15.2199L21.9342 11.6226C21.4257 10.5896 20.3942 9.94798 19.2425 9.94798H14.7309V7.0057C14.7309 6.97213 14.7576 6.94504 14.7904 6.94504H25.1854C25.208 6.94504 25.2289 6.95763 25.2392 6.97861L27.0138 10.5782C27.5231 11.6097 28.5546 12.2509 29.7063 12.2509H46.9014C46.9342 12.2509 46.9609 12.278 46.9609 12.312V31.2901H46.9613Z" fill="url(#paint0_linear_125_1981)"/>
<path d="M26.0355 36.8423C25.2234 36.8423 24.5649 37.5007 24.5649 38.3129V39.1632C24.5649 39.9753 25.2234 40.6337 26.0355 40.6337C26.8477 40.6337 27.5061 39.9753 27.5061 39.1632V38.3129C27.5061 37.5007 26.8477 36.8423 26.0355 36.8423Z" fill="url(#paint1_linear_125_1981)"/>
<path d="M30.3207 36.8423C29.5085 36.8423 28.8501 37.5007 28.8501 38.3129V39.1632C28.8501 39.9753 29.5085 40.6337 30.3207 40.6337C31.1328 40.6337 31.7912 39.9753 31.7912 39.1632V38.3129C31.7912 37.5007 31.1328 36.8423 30.3207 36.8423Z" fill="url(#paint2_linear_125_1981)"/>
</g>
<defs>
<linearGradient id="paint0_linear_125_1981" x1="24.9024" y1="4.00391" x2="24.9024" y2="46.1778" gradientUnits="userSpaceOnUse">
<stop stop-color="#009688"/>
<stop offset="0.9999" stop-color="#80CBC4"/>
<stop offset="1" stop-opacity="0"/>
</linearGradient>
<linearGradient id="paint1_linear_125_1981" x1="26.0355" y1="36.8423" x2="26.0355" y2="40.6337" gradientUnits="userSpaceOnUse">
<stop stop-color="#009688"/>
<stop offset="0.9999" stop-color="#80CBC4"/>
<stop offset="1" stop-opacity="0"/>
</linearGradient>
<linearGradient id="paint2_linear_125_1981" x1="30.3207" y1="36.8423" x2="30.3207" y2="40.6337" gradientUnits="userSpaceOnUse">
<stop stop-color="#009688"/>
<stop offset="0.9999" stop-color="#80CBC4"/>
<stop offset="1" stop-opacity="0"/>
</linearGradient>
<clipPath id="clip0_125_1981">
<rect width="50" height="50" fill="white"/>
</clipPath>
</defs>
</svg>
