<svg width="37" height="37" viewBox="0 0 37 37" fill="none" xmlns="http://www.w3.org/2000/svg">
<circle cx="18.3501" cy="18.49" r="17.7812" fill="#040521"/>
<g clip-path="url(#clip0_714_10658)">
<path d="M8.28113 19.9832H13.5852V29.1193H8.28113V19.9832ZM14.1852 19.6832V29.1193H19.4904V17.2504H14.1852V19.6832ZM28.1688 27.5404H23.2205C23.0111 27.5404 22.8103 27.6235 22.6623 27.7716C22.5142 27.9197 22.431 28.1205 22.431 28.3299C22.431 28.5392 22.5142 28.7401 22.6623 28.8881C22.8103 29.0362 23.0111 29.1193 23.2205 29.1193H28.1688C28.3781 29.1193 28.579 29.0362 28.727 28.8881C28.8751 28.7401 28.9582 28.5392 28.9582 28.3299C28.9582 28.1205 28.8751 27.9197 28.727 27.7716C28.579 27.6235 28.3781 27.5404 28.1688 27.5404ZM28.1688 25.3614H23.2205C23.0111 25.3614 22.8103 25.4446 22.6623 25.5926C22.5142 25.7407 22.431 25.9415 22.431 26.1509C22.431 26.3603 22.5142 26.5611 22.6623 26.7091C22.8103 26.8572 23.0111 26.9404 23.2205 26.9404H28.1688C28.3781 26.9404 28.579 26.8572 28.727 26.7091C28.8751 26.5611 28.9582 26.3603 28.9582 26.1509C28.9582 25.9415 28.8751 25.7407 28.727 25.5926C28.579 25.4446 28.3781 25.3614 28.1688 25.3614ZM28.1955 23.1837H23.2472C23.038 23.1837 22.8373 23.2668 22.6894 23.4147C22.5415 23.5627 22.4584 23.7633 22.4584 23.9725C22.4584 24.1818 22.5415 24.3824 22.6894 24.5304C22.8373 24.6783 23.038 24.7614 23.2472 24.7614H28.1954C28.4047 24.7614 28.6053 24.6783 28.7532 24.5304C28.9012 24.3824 28.9843 24.1818 28.9843 23.9725C28.9843 23.7633 28.9012 23.5627 28.7532 23.4147C28.6053 23.2668 28.4047 23.1837 28.1955 23.1837ZM22.374 25.0517C22.3365 25.0201 22.2999 24.9885 22.2659 24.9545C22.072 24.7602 21.94 24.5128 21.8866 24.2436C21.8332 23.9744 21.8607 23.6954 21.9657 23.4417C22.0707 23.1881 22.2484 22.9713 22.4765 22.8186C22.7045 22.6659 22.9727 22.5841 23.2472 22.5837H23.6431C23.3982 22.4282 23.171 22.2465 22.9654 22.0419C22.4402 21.5164 22.076 20.8518 21.9159 20.1263C21.7558 19.4008 21.8063 18.6446 22.0616 17.9469C22.3168 17.2491 22.7662 16.6389 23.3567 16.188C23.9472 15.7371 24.6543 15.4644 25.3946 15.4019V14.5188H20.0894V29.1206H22.0789C21.8931 28.8534 21.8074 28.5294 21.8367 28.2053C21.8661 27.8813 22.0085 27.5779 22.2392 27.3485C22.2777 27.3102 22.3182 27.2742 22.3607 27.2404C22.3179 27.2069 22.2774 27.1708 22.2392 27.1323C22.0992 26.993 21.9906 26.8254 21.9207 26.6407C21.8508 26.456 21.8213 26.2584 21.8341 26.0614C21.8468 25.8643 21.9016 25.6722 21.9948 25.4981C22.0879 25.3239 22.2171 25.1717 22.374 25.0517ZM24.0245 21.7772C23.4422 21.0774 23.1234 20.1958 23.1234 19.2855C23.1234 18.3751 23.4422 17.4935 24.0245 16.7937C24.2278 16.5504 24.4594 16.3323 24.7144 16.1439C24.0491 16.3575 23.4687 16.7768 23.057 17.3414C22.6452 17.906 22.4234 18.5867 22.4234 19.2855C22.4234 19.9842 22.6452 20.665 23.057 21.2296C23.4687 21.7941 24.0491 22.2134 24.7144 22.427C24.4591 22.239 24.2275 22.0208 24.0245 21.7772ZM25.7201 18.363C25.7202 18.5283 25.7857 18.6868 25.9023 18.8039C25.9439 18.8454 25.9913 18.8806 26.0432 18.9083V17.8176C25.9913 17.8458 25.9438 17.8814 25.9023 17.9233C25.7857 18.04 25.7202 18.1981 25.7201 18.363ZM26.9651 20.2079C26.9647 20.0966 26.9347 19.9874 26.8782 19.8916C26.8216 19.7957 26.7405 19.7167 26.6432 19.6626V20.7545C26.6943 20.7256 26.7412 20.69 26.7829 20.6488C26.8408 20.591 26.8868 20.5222 26.918 20.4466C26.9493 20.3709 26.9653 20.2898 26.9651 20.2079ZM26.3687 16.0516C27.1163 16.2015 27.7889 16.6056 28.2721 17.1954C28.7553 17.7852 29.0193 18.5241 29.0191 19.2866C29.019 20.049 28.7547 20.7879 28.2713 21.3774C27.7879 21.967 27.1151 22.371 26.3675 22.5205C25.6208 22.3697 24.9492 21.9651 24.4669 21.3754C23.9845 20.7858 23.721 20.0474 23.7212 19.2856C23.7213 18.5238 23.985 17.7855 24.4676 17.196C24.9502 16.6065 25.6219 16.2022 26.3687 16.0516ZM26.3432 16.5241C26.3038 16.524 26.2647 16.5316 26.2282 16.5467C26.1918 16.5617 26.1586 16.5838 26.1307 16.6117C26.1029 16.6396 26.0808 16.6727 26.0657 16.7092C26.0507 16.7456 26.043 16.7847 26.0431 16.8242V17.1776C25.7793 17.2443 25.5452 17.3971 25.378 17.6118C25.2108 17.8265 25.12 18.0909 25.12 18.363C25.12 18.6352 25.2108 18.8996 25.378 19.1143C25.5452 19.329 25.7793 19.4818 26.0431 19.5485V20.7533C25.9913 20.7256 25.9438 20.6904 25.9023 20.6489C25.7857 20.5318 25.7201 20.3732 25.7201 20.208C25.7201 20.1284 25.6885 20.0521 25.6322 19.9958C25.5759 19.9395 25.4996 19.9079 25.42 19.9079C25.3404 19.9079 25.2641 19.9395 25.2078 19.9958C25.1516 20.0521 25.12 20.1284 25.12 20.208C25.12 20.4802 25.2108 20.7446 25.3781 20.9593C25.5453 21.174 25.7794 21.3268 26.0433 21.3934V21.748C26.0433 21.8276 26.075 21.9039 26.1312 21.9602C26.1875 22.0165 26.2638 22.0481 26.3434 22.0481C26.423 22.0481 26.4993 22.0165 26.5556 21.9602C26.6118 21.9039 26.6435 21.8276 26.6435 21.748V21.3934C26.9067 21.326 27.1401 21.173 27.3067 20.9583C27.4734 20.7437 27.5638 20.4797 27.5638 20.2079C27.5638 19.9362 27.4734 19.6722 27.3067 19.4575C27.1401 19.2429 26.9067 19.0898 26.6435 19.0225V17.8176C26.7407 17.8717 26.8218 17.9508 26.8784 18.0466C26.935 18.1425 26.965 18.2517 26.9653 18.363C26.9653 18.4426 26.9969 18.5189 27.0532 18.5752C27.1095 18.6314 27.1858 18.6631 27.2654 18.6631C27.345 18.6631 27.4213 18.6314 27.4775 18.5752C27.5338 18.5189 27.5654 18.4426 27.5654 18.363C27.5654 18.091 27.4747 17.8269 27.3078 17.6122C27.1408 17.3975 26.9071 17.2446 26.6436 17.1776V16.8241C26.6436 16.7847 26.6358 16.7457 26.6207 16.7093C26.6056 16.6729 26.5835 16.6398 26.5556 16.6119C26.5278 16.5841 26.4947 16.562 26.4583 16.5469C26.4218 16.5318 26.3826 16.5241 26.3432 16.5241ZM8.08438 14.848C10.1577 14.0889 12.2249 13.2233 14.286 12.2512C16.2342 11.3269 18.1763 10.2953 20.1124 9.15644L19.4334 10.5253C19.3992 10.5964 19.3944 10.6781 19.4201 10.7527C19.4458 10.8273 19.4999 10.8887 19.5707 10.9236C19.6415 10.9585 19.7231 10.9641 19.798 10.939C19.8728 10.914 19.9347 10.8605 19.9703 10.7901L21.0938 8.52607C21.1194 8.48237 21.1335 8.43286 21.1348 8.3822C21.1361 8.33154 21.1245 8.28138 21.101 8.23645C21.0776 8.19152 21.0431 8.15329 21.0008 8.12534C20.9585 8.09739 20.9099 8.08065 20.8593 8.07669L18.321 7.86048C18.2818 7.85729 18.2423 7.86186 18.2048 7.87393C18.1673 7.886 18.1326 7.90533 18.1026 7.93082C18.042 7.98229 18.0044 8.05573 17.9979 8.13497C17.9915 8.21422 18.0168 8.29278 18.0683 8.35337C18.1197 8.41396 18.1932 8.45161 18.2724 8.45806L19.8878 8.59529C17.9444 9.74552 15.9921 10.7836 14.031 11.7095C11.9893 12.6775 9.93823 13.5362 7.87788 14.2856C7.84051 14.2988 7.80614 14.3193 7.77675 14.3459C7.74736 14.3725 7.72355 14.4047 7.70668 14.4406C7.68982 14.4765 7.68024 14.5153 7.67851 14.5549C7.67678 14.5945 7.68292 14.6341 7.69658 14.6713C7.71024 14.7085 7.73116 14.7426 7.75811 14.7717C7.78506 14.8008 7.81751 14.8242 7.85358 14.8406C7.88965 14.8571 7.92862 14.8662 7.96824 14.8674C8.00786 14.8687 8.04734 14.8621 8.08438 14.848ZM26.5217 9.24875L25.5294 11.2455C25.4948 11.3167 25.4897 11.3986 25.5153 11.4735C25.5409 11.5483 25.5951 11.61 25.6661 11.645C25.7371 11.68 25.819 11.6855 25.894 11.6602C25.969 11.635 26.0309 11.5811 26.0663 11.5103L27.5043 8.61476C27.5268 8.57619 27.5401 8.53297 27.5432 8.48844C27.5495 8.4092 27.5242 8.3307 27.4727 8.27013C27.4212 8.20956 27.3478 8.17188 27.2686 8.16533L24.0282 7.88966C23.949 7.88305 23.8703 7.9082 23.8096 7.95956C23.7489 8.01092 23.7111 8.0843 23.7045 8.16354C23.6979 8.24279 23.7231 8.32141 23.7744 8.38211C23.8258 8.44281 23.8992 8.48063 23.9784 8.48723L26.2995 8.68519C23.3568 10.4381 20.319 12.026 17.2 13.4415C14.1628 14.8191 11.0543 16.0334 7.88759 17.0792C7.8127 17.1044 7.75081 17.1581 7.71543 17.2288C7.68006 17.2995 7.67406 17.3812 7.69877 17.4563C7.72347 17.5314 7.77686 17.5936 7.84728 17.6294C7.91771 17.6653 7.99945 17.6718 8.07467 17.6476C11.261 16.5953 14.389 15.3737 17.4452 13.9881C20.5555 12.5763 23.5856 10.9941 26.5217 9.24875Z" fill="url(#paint0_linear_714_10658)"/>
</g>
<defs>
<linearGradient id="paint0_linear_714_10658" x1="7.68143" y1="18.49" x2="29.0189" y2="18.49" gradientUnits="userSpaceOnUse">
<stop stop-color="#0056E9"/>
<stop offset="0.033" stop-color="#005DE8"/>
<stop offset="0.191" stop-color="#007BE2"/>
<stop offset="0.359" stop-color="#0092DE"/>
<stop offset="0.539" stop-color="#00A2DA"/>
<stop offset="0.739" stop-color="#00ACD9"/>
<stop offset="1" stop-color="#00AFD8"/>
</linearGradient>
<clipPath id="clip0_714_10658">
<rect width="21.3375" height="21.3375" fill="white" transform="translate(7.68115 7.82129)"/>
</clipPath>
</defs>
</svg>
