<svg width="26" height="26" viewBox="0 0 26 26" fill="none" xmlns="http://www.w3.org/2000/svg">
<g clip-path="url(#clip0_714_10487)">
<path d="M23.0676 2.22876H2.54974C1.34334 2.22876 0.361816 3.21029 0.361816 4.41669V17.5925C0.361816 18.7989 1.34334 19.7804 2.54974 19.7804H9.7323V22.3784H7.71739C7.31456 22.3784 6.98808 22.7051 6.98808 23.1077C6.98808 23.5105 7.31456 23.837 7.71739 23.837H17.9002C18.3028 23.837 18.6295 23.5105 18.6295 23.1077C18.6295 22.7051 18.3028 22.3784 17.9002 22.3784H15.8851V19.7804H23.0676C24.274 19.7804 25.2556 18.7989 25.2556 17.5925V4.41669C25.2556 3.21029 24.274 2.22876 23.0676 2.22876ZM23.0676 18.3218H2.54974C2.14767 18.3218 1.82043 17.9948 1.82043 17.5925V15.6344H23.7969V17.5925C23.7969 17.9948 23.4697 18.3218 23.0676 18.3218ZM11.1909 22.3784V19.7804H14.4265V22.3784H11.1909ZM2.54974 3.68738H23.0676C23.4697 3.68738 23.7969 4.01462 23.7969 4.41669V14.1758H1.82043V4.41669C1.82043 4.01462 2.14767 3.68738 2.54974 3.68738Z" fill="#646472"/>
<path d="M13.1236 16.3154H12.4935C12.0908 16.3154 11.7642 16.6419 11.7642 17.0447C11.7642 17.4476 12.0908 17.774 12.4935 17.774H13.1236C13.5263 17.774 13.8529 17.4476 13.8529 17.0447C13.8529 16.6419 13.5263 16.3154 13.1236 16.3154Z" fill="#646472"/>
<path d="M14.7774 6.64863H15.1569V7.35363L15.1536 10.2545C15.1535 10.4483 15.2302 10.6338 15.3669 10.7707C15.5037 10.9079 15.6894 10.9848 15.883 10.9848H19.2552C19.5175 10.9848 19.7595 10.8439 19.8892 10.6158L21.5383 7.71486C21.6665 7.48904 21.6652 7.21213 21.5347 6.98764C21.4041 6.76315 21.164 6.62508 20.9044 6.62508H16.6155V5.91913C16.6155 5.51649 16.289 5.18982 15.8862 5.18982H14.7774C14.3748 5.18982 14.0481 5.51649 14.0481 5.91913C14.0481 6.32196 14.3748 6.64863 14.7774 6.64863ZM18.8308 9.52617H16.613L16.6145 8.0837H19.6507L18.8308 9.52617Z" fill="#646472"/>
<path d="M4.71344 7.39661H11.6922C12.095 7.39661 12.4215 7.06994 12.4215 6.6673C12.4215 6.26447 12.095 5.93799 11.6922 5.93799H4.71344C4.31061 5.93799 3.98413 6.26447 3.98413 6.6673C3.98413 7.06994 4.31061 7.39661 4.71344 7.39661Z" fill="#646472"/>
<path d="M4.71344 9.72314H11.6922C12.095 9.72314 12.4215 9.39666 12.4215 8.99384C12.4215 8.59101 12.095 8.26453 11.6922 8.26453H4.71344C4.31061 8.26453 3.98413 8.59101 3.98413 8.99384C3.98413 9.39666 4.31061 9.72314 4.71344 9.72314Z" fill="#646472"/>
<path d="M4.71344 12.0498H11.6922C12.095 12.0498 12.4215 11.7233 12.4215 11.3205C12.4215 10.9179 12.095 10.5912 11.6922 10.5912H4.71344C4.31061 10.5912 3.98413 10.9179 3.98413 11.3205C3.98413 11.7233 4.31061 12.0498 4.71344 12.0498Z" fill="#646472"/>
<path d="M16.3049 11.2784C15.8804 11.2784 15.5352 11.6239 15.5352 12.0484C15.5352 12.4729 15.8804 12.8182 16.3049 12.8182C16.7294 12.8182 17.0749 12.4729 17.0749 12.0484C17.0749 11.6239 16.7294 11.2784 16.3049 11.2784Z" fill="#646472"/>
<path d="M18.3486 11.2784C17.9243 11.2784 17.5789 11.6239 17.5789 12.0484C17.5789 12.4729 17.9243 12.8182 18.3486 12.8182C18.7733 12.8182 19.1186 12.4729 19.1186 12.0484C19.1186 11.6239 18.7733 11.2784 18.3486 11.2784Z" fill="#646472"/>
</g>
<defs>
<clipPath id="clip0_714_10487">
<rect width="24.8938" height="24.8451" fill="white" transform="translate(0.361816 0.599976)"/>
</clipPath>
</defs>
</svg>
