<svg width="40" height="40" viewBox="0 0 40 40" fill="none" xmlns="http://www.w3.org/2000/svg">
<g clip-path="url(#clip0_660_5540)">
<path d="M36.4844 2.65601H3.51562C1.57715 2.65601 0 4.23315 0 6.17163V27.3429C0 29.2814 1.57715 30.8585 3.51562 30.8585H15.0568V35.033H11.8192C11.1719 35.033 10.6473 35.5579 10.6473 36.2049C10.6473 36.8522 11.1719 37.3768 11.8192 37.3768H28.1812C28.8281 37.3768 29.353 36.8522 29.353 36.2049C29.353 35.5579 28.8281 35.033 28.1812 35.033H24.9432V30.8585H36.4844C38.4229 30.8585 40 29.2814 40 27.3429V6.17163C40 4.23315 38.4229 2.65601 36.4844 2.65601ZM36.4844 28.5148H3.51562C2.86957 28.5148 2.34375 27.9893 2.34375 27.3429V24.1965H37.6562V27.3429C37.6562 27.9893 37.1304 28.5148 36.4844 28.5148ZM17.4005 35.033V30.8585H22.5995V35.033H17.4005ZM3.51562 4.99976H36.4844C37.1304 4.99976 37.6562 5.52557 37.6562 6.17163V21.8528H2.34375V6.17163C2.34375 5.52557 2.86957 4.99976 3.51562 4.99976Z" fill="url(#paint0_radial_660_5540)"/>
<path d="M20.5062 25.2908H19.4937C18.8467 25.2908 18.3218 25.8154 18.3218 26.4626C18.3218 27.1099 18.8467 27.6345 19.4937 27.6345H20.5062C21.1532 27.6345 21.6781 27.1099 21.6781 26.4626C21.6781 25.8154 21.1532 25.2908 20.5062 25.2908Z" fill="#7C12E5"/>
<path d="M23.1631 9.75787H23.7728V10.8907L23.7676 15.5519C23.7673 15.8632 23.8906 16.1614 24.1104 16.3814C24.3301 16.6017 24.6285 16.7253 24.9395 16.7253H30.3582C30.7797 16.7253 31.1685 16.4989 31.3769 16.1324L34.0267 11.4711C34.2327 11.1083 34.2306 10.6633 34.0209 10.3026C33.811 9.94189 33.4252 9.72003 33.0081 9.72003H26.1166V8.58569C26.1166 7.93872 25.592 7.41382 24.9447 7.41382H23.1631C22.5161 7.41382 21.9912 7.93872 21.9912 8.58569C21.9912 9.23297 22.5161 9.75787 23.1631 9.75787ZM29.6761 14.3816H26.1126L26.1151 12.0638H30.9936L29.6761 14.3816Z" fill="#7C12E5"/>
<path d="M6.99219 10.96H18.2059C18.8531 10.96 19.3777 10.4351 19.3777 9.78809C19.3777 9.14081 18.8531 8.61621 18.2059 8.61621H6.99219C6.34491 8.61621 5.82031 9.14081 5.82031 9.78809C5.82031 10.4351 6.34491 10.96 6.99219 10.96Z" fill="#7C12E5"/>
<path d="M6.99219 14.6982H18.2059C18.8531 14.6982 19.3777 14.1736 19.3777 13.5264C19.3777 12.8791 18.8531 12.3545 18.2059 12.3545H6.99219C6.34491 12.3545 5.82031 12.8791 5.82031 13.5264C5.82031 14.1736 6.34491 14.6982 6.99219 14.6982Z" fill="#7C12E5"/>
<path d="M6.99219 18.4368H18.2059C18.8531 18.4368 19.3777 17.9122 19.3777 17.2649C19.3777 16.6179 18.8531 16.093 18.2059 16.093H6.99219C6.34491 16.093 5.82031 16.6179 5.82031 17.2649C5.82031 17.9122 6.34491 18.4368 6.99219 18.4368Z" fill="#7C12E5"/>
<path d="M25.6177 17.1975C24.9357 17.1975 24.3809 17.7526 24.3809 18.4347C24.3809 19.1168 24.9357 19.6716 25.6177 19.6716C26.2998 19.6716 26.8549 19.1168 26.8549 18.4347C26.8549 17.7526 26.2998 17.1975 25.6177 17.1975Z" fill="#7C12E5"/>
<path d="M28.9019 17.1975C28.2202 17.1975 27.665 17.7526 27.665 18.4347C27.665 19.1168 28.2202 19.6716 28.9019 19.6716C29.5843 19.6716 30.1391 19.1168 30.1391 18.4347C30.1391 17.7526 29.5843 17.1975 28.9019 17.1975Z" fill="#7C12E5"/>
</g>
<defs>
<radialGradient id="paint0_radial_660_5540" cx="0" cy="0" r="1" gradientUnits="userSpaceOnUse" gradientTransform="translate(21.5 23.5) rotate(91.259) scale(45.511 52.4309)">
<stop stop-color="#7C12E5"/>
<stop offset="1"/>
</radialGradient>
<clipPath id="clip0_660_5540">
<rect width="40" height="39.9219" fill="white" transform="translate(0 0.0390625)"/>
</clipPath>
</defs>
</svg>
