<svg width="50" height="50" viewBox="0 0 50 50" fill="none" xmlns="http://www.w3.org/2000/svg">
<g clip-path="url(#clip0_125_1963)">
<path d="M48.4375 42.9688H46.0938V17.9688H44.5312V42.9688H5.46875V17.1875H9.375V17.9688H7.03125C6.59922 17.9688 6.25 18.318 6.25 18.75V41.4062C6.25 41.8383 6.59922 42.1875 7.03125 42.1875H42.9688C43.4008 42.1875 43.75 41.8383 43.75 41.4062V18.75H42.1875V40.625H7.8125V19.5312H9.375V24.2188C9.375 24.6508 9.72422 25 10.1562 25H21.0938C21.5258 25 21.875 24.6508 21.875 24.2188V19.5312H28.9062V17.9688H21.875V17.1875H28.9062V15.625H21.875V13.2812C21.875 12.8492 21.5258 12.5 21.0938 12.5H10.1562C9.72422 12.5 9.375 12.8492 9.375 13.2812V15.625H4.6875C4.25547 15.625 3.90625 15.9742 3.90625 16.4062V42.9688H1.5625C1.13047 42.9688 0.78125 43.318 0.78125 43.75V46.875C0.78125 48.1672 1.83281 49.2188 3.125 49.2188H46.875C48.1672 49.2188 49.2188 48.1672 49.2188 46.875V43.75C49.2188 43.318 48.8695 42.9688 48.4375 42.9688ZM10.9375 14.0625H20.3125V23.4375H10.9375V14.0625ZM47.6562 46.875C47.6562 47.3062 47.3062 47.6562 46.875 47.6562H3.125C2.69375 47.6562 2.34375 47.3062 2.34375 46.875V44.5312H47.6562V46.875Z" fill="url(#paint0_linear_125_1963)"/>
<path d="M29.6875 12.5H30.8328C30.9703 12.9367 31.1453 13.3594 31.3586 13.7648L30.5477 14.5758C30.2422 14.8812 30.2422 15.375 30.5477 15.6805L32.757 17.8898C33.0625 18.1953 33.5562 18.1953 33.8617 17.8898L34.6727 17.0789C35.0789 17.2914 35.5016 17.4672 35.9375 17.6047V18.75C35.9375 19.182 36.2867 19.5312 36.7188 19.5312H39.8438C40.2758 19.5312 40.625 19.182 40.625 18.75V17.6047C41.0617 17.4672 41.4844 17.2922 41.8898 17.0789L42.7008 17.8898C43.0063 18.1953 43.5 18.1953 43.8055 17.8898L46.0148 15.6805C46.3203 15.375 46.3203 14.8812 46.0148 14.5758L45.2039 13.7648C45.4164 13.3586 45.5922 12.9359 45.7297 12.5H46.875C47.307 12.5 47.6562 12.1508 47.6562 11.7188V8.59375C47.6562 8.16172 47.307 7.8125 46.875 7.8125H45.7297C45.5922 7.37578 45.4172 6.95312 45.2039 6.54766L46.0148 5.73672C46.3203 5.43125 46.3203 4.9375 46.0148 4.63203L43.8055 2.42266C43.5 2.11719 43.0063 2.11719 42.7008 2.42266L41.8898 3.23359C41.4844 3.02031 41.0617 2.84531 40.625 2.70781V1.5625C40.625 1.13047 40.2758 0.78125 39.8438 0.78125H36.7188C36.2867 0.78125 35.9375 1.13047 35.9375 1.5625V2.70781C35.5008 2.84531 35.0781 3.02031 34.6727 3.23359L33.8617 2.42266C33.5562 2.11719 33.0625 2.11719 32.757 2.42266L30.5477 4.63203C30.2422 4.9375 30.2422 5.43125 30.5477 5.73672L31.3586 6.54766C31.1453 6.95312 30.9703 7.37578 30.8328 7.8125H29.6875C29.2555 7.8125 28.9062 8.16172 28.9062 8.59375V11.7188C28.9062 12.1508 29.2555 12.5 29.6875 12.5ZM30.4688 9.375H31.4297C31.7945 9.375 32.1102 9.12266 32.1914 8.76719C32.3477 8.08203 32.618 7.43203 32.9937 6.83438C33.1883 6.525 33.143 6.12344 32.8852 5.86562L32.2039 5.18438L33.3086 4.07969L33.9898 4.76094C34.2484 5.02031 34.6508 5.06406 34.9586 4.86953C35.5563 4.49375 36.2063 4.22344 36.8914 4.06719C37.2477 3.98594 37.5 3.66953 37.5 3.30469V2.34375H39.0625V3.30469C39.0625 3.66953 39.3148 3.98516 39.6703 4.06641C40.3555 4.22266 41.0055 4.49297 41.6031 4.86875C41.9117 5.06328 42.3133 5.01953 42.5719 4.76016L43.2531 4.07891L44.3578 5.18359L43.6766 5.86484C43.4187 6.12266 43.3734 6.525 43.568 6.83359C43.9437 7.43125 44.2141 8.08125 44.3703 8.76641C44.4516 9.12266 44.768 9.375 45.1328 9.375H46.0938V10.9375H45.1328C44.768 10.9375 44.4523 11.1898 44.3711 11.5453C44.2148 12.2305 43.9445 12.8805 43.5688 13.4781C43.3742 13.7875 43.4195 14.1891 43.6773 14.4469L44.3586 15.1281L43.2539 16.2328L42.5727 15.5516C42.3141 15.293 41.9117 15.2484 41.6039 15.443C41.0062 15.8188 40.3562 16.0891 39.6711 16.2453C39.3148 16.3266 39.0625 16.643 39.0625 17.0078V17.9688H37.5V17.0078C37.5 16.643 37.2477 16.3273 36.8922 16.2461C36.207 16.0898 35.557 15.8195 34.9594 15.4437C34.6508 15.2492 34.2492 15.2937 33.9906 15.5523L33.3094 16.2336L32.2047 15.1289L32.8859 14.4477C33.1438 14.1898 33.1891 13.7875 32.9945 13.4789C32.6188 12.8813 32.3484 12.2313 32.1922 11.5461C32.1109 11.1898 31.7945 10.9375 31.4297 10.9375H30.4688V9.375Z" fill="url(#paint1_linear_125_1963)"/>
<path d="M38.2812 15.625C41.2961 15.625 43.75 13.1711 43.75 10.1562C43.75 7.14141 41.2961 4.6875 38.2812 4.6875C35.2664 4.6875 32.8125 7.14141 32.8125 10.1562C32.8125 13.1711 35.2664 15.625 38.2812 15.625ZM38.2812 6.25C40.4352 6.25 42.1875 8.00234 42.1875 10.1562C42.1875 12.3102 40.4352 14.0625 38.2812 14.0625C36.1273 14.0625 34.375 12.3102 34.375 10.1562C34.375 8.00234 36.1273 6.25 38.2812 6.25Z" fill="url(#paint2_linear_125_1963)"/>
<path d="M41.4062 27.3438V25.7812H40.5625C40.4297 24.857 40.0656 24.0086 39.5297 23.2937L40.1281 22.6953L39.0234 21.5906L38.425 22.1891C37.7102 21.6531 36.8617 21.2891 35.9375 21.1562V20.3125H34.375V21.1562C33.4508 21.2891 32.6023 21.6531 31.8875 22.1891L31.2891 21.5906L30.1844 22.6953L30.7828 23.2937C30.2469 24.0086 29.8828 24.857 29.75 25.7812H28.9062V27.3438H29.75C29.8828 28.268 30.2469 29.1164 30.7828 29.8312L30.1844 30.4297L31.2891 31.5344L31.8875 30.9359C32.6023 31.4719 33.4508 31.8352 34.375 31.9687V32.8125H35.9375V31.9687C36.8617 31.8359 37.7102 31.4719 38.425 30.9359L39.0234 31.5344L40.1281 30.4297L39.5297 29.8312C40.0656 29.1164 40.4289 28.268 40.5625 27.3438H41.4062ZM39.0625 26.5625C39.0625 28.7164 37.3102 30.4688 35.1562 30.4688C33.0023 30.4688 31.25 28.7164 31.25 26.5625C31.25 24.4086 33.0023 22.6562 35.1562 22.6562C37.3102 22.6562 39.0625 24.4086 39.0625 26.5625Z" fill="url(#paint3_linear_125_1963)"/>
<path d="M35.1562 23.4375C33.4328 23.4375 32.0312 24.8391 32.0312 26.5625C32.0312 28.2859 33.4328 29.6875 35.1562 29.6875C36.8797 29.6875 38.2812 28.2859 38.2812 26.5625C38.2812 24.8391 36.8797 23.4375 35.1562 23.4375ZM35.1562 28.125C34.2945 28.125 33.5938 27.4242 33.5938 26.5625C33.5938 25.7008 34.2945 25 35.1562 25C36.018 25 36.7188 25.7008 36.7188 26.5625C36.7188 27.4242 36.018 28.125 35.1562 28.125Z" fill="url(#paint4_linear_125_1963)"/>
<path d="M21.0938 26.5625H10.1562C9.72422 26.5625 9.375 26.9117 9.375 27.3438V38.2812C9.375 38.7133 9.72422 39.0625 10.1562 39.0625H21.0938C21.5258 39.0625 21.875 38.7133 21.875 38.2812V27.3438C21.875 26.9117 21.5258 26.5625 21.0938 26.5625ZM20.3125 37.5H10.9375V28.125H20.3125V37.5Z" fill="url(#paint5_linear_125_1963)"/>
<path d="M14.7852 20.4943L13.125 18.2811L11.875 19.2186L14.2188 22.3436C14.3672 22.5412 14.5984 22.6561 14.8438 22.6561C14.8547 22.6561 14.8656 22.6561 14.8766 22.6553C15.1344 22.6443 15.3695 22.5076 15.5062 22.2889L19.4125 16.0389L18.0883 15.21L14.7852 20.4943Z" fill="url(#paint6_linear_125_1963)"/>
<path d="M13.0524 36.4899L15.6251 33.9173L18.1978 36.4899L19.3024 35.3853L16.7298 32.8126L19.3024 30.2399L18.1978 29.1353L15.6251 31.7079L13.0524 29.1353L11.9478 30.2399L14.5204 32.8126L11.9478 35.3853L13.0524 36.4899Z" fill="url(#paint7_linear_125_1963)"/>
</g>
<defs>
<linearGradient id="paint0_linear_125_1963" x1="25" y1="12.5" x2="25" y2="49.2188" gradientUnits="userSpaceOnUse">
<stop stop-color="#E9C60F"/>
<stop offset="1" stop-color="#CDB11E" stop-opacity="0.1"/>
</linearGradient>
<linearGradient id="paint1_linear_125_1963" x1="38.2812" y1="0.78125" x2="38.2812" y2="19.5312" gradientUnits="userSpaceOnUse">
<stop stop-color="#E9C60F"/>
<stop offset="1" stop-color="#CDB11E" stop-opacity="0.1"/>
</linearGradient>
<linearGradient id="paint2_linear_125_1963" x1="38.2812" y1="4.6875" x2="38.2812" y2="15.625" gradientUnits="userSpaceOnUse">
<stop stop-color="#E9C60F"/>
<stop offset="1" stop-color="#CDB11E" stop-opacity="0.1"/>
</linearGradient>
<linearGradient id="paint3_linear_125_1963" x1="35.1562" y1="20.3125" x2="35.1562" y2="32.8125" gradientUnits="userSpaceOnUse">
<stop stop-color="#E9C60F"/>
<stop offset="1" stop-color="#CDB11E" stop-opacity="0.1"/>
</linearGradient>
<linearGradient id="paint4_linear_125_1963" x1="35.1562" y1="23.4375" x2="35.1562" y2="29.6875" gradientUnits="userSpaceOnUse">
<stop stop-color="#E9C60F"/>
<stop offset="1" stop-color="#CDB11E" stop-opacity="0.1"/>
</linearGradient>
<linearGradient id="paint5_linear_125_1963" x1="15.625" y1="26.5625" x2="15.625" y2="39.0625" gradientUnits="userSpaceOnUse">
<stop stop-color="#E9C60F"/>
<stop offset="1" stop-color="#CDB11E" stop-opacity="0.1"/>
</linearGradient>
<linearGradient id="paint6_linear_125_1963" x1="15.6437" y1="15.21" x2="15.6437" y2="22.6561" gradientUnits="userSpaceOnUse">
<stop stop-color="#E9C60F"/>
<stop offset="1" stop-color="#CDB11E" stop-opacity="0.1"/>
</linearGradient>
<linearGradient id="paint7_linear_125_1963" x1="15.6251" y1="29.1353" x2="15.6251" y2="36.4899" gradientUnits="userSpaceOnUse">
<stop stop-color="#E9C60F"/>
<stop offset="1" stop-color="#CDB11E" stop-opacity="0.1"/>
</linearGradient>
<clipPath id="clip0_125_1963">
<rect width="50" height="50" fill="white"/>
</clipPath>
</defs>
</svg>
