<svg width="22" height="22" viewBox="0 0 22 22" fill="none" xmlns="http://www.w3.org/2000/svg">
<g clip-path="url(#clip0_714_10575)">
<path d="M11.31 21.0354C16.8094 21.0354 21.2675 16.5772 21.2675 11.0779C21.2675 5.57849 16.8094 1.12036 11.31 1.12036C5.81066 1.12036 1.35254 5.57849 1.35254 11.0779C1.35254 16.5772 5.81066 21.0354 11.31 21.0354Z" fill="#262964"/>
<path d="M11.3099 19.6127C16.0237 19.6127 19.8449 15.7915 19.8449 11.0777C19.8449 6.36397 16.0237 2.54272 11.3099 2.54272C6.59615 2.54272 2.7749 6.36397 2.7749 11.0777C2.7749 15.7915 6.59615 19.6127 11.3099 19.6127Z" fill="#555ABE"/>
<path d="M14.7917 11.8627C14.7766 11.8617 11.3552 13.8892 11.3104 13.9066C11.3003 13.9007 7.84894 11.858 7.83252 11.8601C7.84088 11.8724 11.3081 16.7679 11.3104 16.7679C11.3128 16.7679 14.7917 11.8627 14.7917 11.8627Z" fill="white"/>
<path d="M11.312 5.38794L7.84375 11.1886L11.312 13.243L14.7804 11.1886L11.312 5.38794Z" fill="white"/>
</g>
<defs>
<clipPath id="clip0_714_10575">
<rect width="21.3375" height="21.3375" fill="white" transform="translate(0.641113 0.40918)"/>
</clipPath>
</defs>
</svg>
