<svg width="19" height="20" viewBox="0 0 19 20" fill="none" xmlns="http://www.w3.org/2000/svg">
<path d="M9.67008 16.3582L9.81901 18.208L9.50469 18.5267L9.19149 18.208L9.34043 16.3582H9.67008ZM12.2898 15.5128C11.8138 15.0817 11.2092 14.8192 10.5692 14.7659L10.337 15.9191C10.3174 16.0159 10.269 16.1045 10.198 16.1732L10.3666 18.2869C10.3701 18.3283 10.3638 18.3699 10.3484 18.4085C10.333 18.4471 10.3088 18.4816 10.2777 18.5092L9.69747 19.1006C9.67272 19.1259 9.6432 19.1461 9.61062 19.16C9.57803 19.1739 9.54302 19.1812 9.5076 19.1815C9.47218 19.1818 9.43705 19.1751 9.40422 19.1618C9.3714 19.1485 9.34154 19.1288 9.31636 19.1039L8.72055 18.4971C8.69329 18.4697 8.67231 18.4367 8.65907 18.4004C8.64583 18.3641 8.64066 18.3254 8.64391 18.2869H8.64279L8.81254 16.1732C8.74116 16.1048 8.6926 16.016 8.67346 15.9191L8.44127 14.7659C7.80094 14.819 7.19591 15.0815 6.71962 15.5128C6.20267 15.9859 5.88178 16.6397 5.88178 17.3604V19.6943C5.88178 19.766 5.91027 19.8348 5.96099 19.8855C6.01171 19.9362 6.08049 19.9647 6.15221 19.9647H7.15772V17.3439C7.15772 17.2722 7.18621 17.2034 7.23693 17.1527C7.28765 17.102 7.35643 17.0735 7.42816 17.0735C7.49988 17.0735 7.56866 17.102 7.61938 17.1527C7.6701 17.2034 7.69859 17.2722 7.69859 17.3439V19.9647H11.3116V17.3439C11.3116 17.2722 11.3401 17.2034 11.3908 17.1527C11.4415 17.102 11.5103 17.0735 11.582 17.0735C11.6538 17.0735 11.7226 17.102 11.7733 17.1527C11.824 17.2034 11.8525 17.2722 11.8525 17.3439V19.9647H12.8579C12.9296 19.9647 12.9984 19.9362 13.0491 19.8855C13.0998 19.8348 13.1283 19.766 13.1283 19.6943V17.3604C13.1289 16.6397 12.8067 15.9859 12.2898 15.5128ZM9.01189 14.8676L9.19698 15.793H9.19806C9.20579 15.7963 9.21232 15.7996 9.21997 15.8029C9.24844 15.8131 9.27858 15.8179 9.30882 15.8171H9.70091C9.73146 15.8179 9.76189 15.8131 9.7907 15.8029C9.79726 15.7996 9.80495 15.7963 9.81152 15.793H9.8126L9.99877 14.8676H9.01189ZM11.349 12.5074C11.349 12.1427 11.2408 11.7861 11.0382 11.4828C10.8355 11.1795 10.5475 10.9431 10.2105 10.8035C9.87348 10.6639 9.50265 10.6274 9.14489 10.6986C8.78712 10.7697 8.4585 10.9454 8.20057 11.2033C7.94264 11.4612 7.76698 11.7899 7.69582 12.1476C7.62465 12.5054 7.66118 12.8762 7.80077 13.2132C7.94036 13.5502 8.17675 13.8383 8.48005 14.0409C8.78334 14.2436 9.13992 14.3517 9.50469 14.3517C9.99351 14.3507 10.462 14.1561 10.8077 13.8105C11.1533 13.4649 11.348 12.9964 11.349 12.5075V12.5074ZM10.3098 6.84202C9.9637 7.53089 9.8323 8.40925 9.8323 9.26459H9.83339C9.83339 9.48581 9.84111 9.69937 9.85637 9.90204C9.86054 9.96261 9.885 10.02 9.9258 10.065C9.9666 10.1099 10.0214 10.1398 10.0812 10.1498C10.1411 10.1598 10.2026 10.1493 10.2558 10.1201C10.309 10.0908 10.3508 10.0445 10.3744 9.98854C10.5781 9.55813 10.9111 8.89993 11.2955 8.35563C11.6525 7.85185 12.0468 7.44443 12.3896 7.44443H13.6906V8.33809C13.6906 8.40981 13.7191 8.4786 13.7698 8.52932C13.8205 8.58003 13.8893 8.60852 13.961 8.60852C14.0328 8.60828 14.1016 8.57998 14.1527 8.52967L16.3617 6.69073C16.389 6.66823 16.4115 6.64055 16.4281 6.60929C16.4446 6.57803 16.4548 6.5438 16.4581 6.50857C16.4614 6.47335 16.4576 6.43783 16.4471 6.40406C16.4366 6.37029 16.4195 6.33894 16.3968 6.31181C16.3851 6.29796 16.3723 6.28514 16.3584 6.27349L14.1331 4.42261C14.0937 4.38995 14.0458 4.36921 13.995 4.3628C13.9442 4.35638 13.8926 4.36457 13.8463 4.3864C13.8 4.40824 13.7609 4.44281 13.7335 4.48607C13.7061 4.52933 13.6917 4.57949 13.6918 4.63069H13.6906V5.52435H12.3894C12.3259 5.52435 12.2591 5.52655 12.1912 5.53092C11.2734 5.59803 10.6766 6.11274 10.3097 6.84213L10.3098 6.84202ZM18.6124 9.82095C18.6007 9.80681 18.5874 9.79396 18.573 9.78263L16.3487 7.93175C16.2938 7.88617 16.223 7.86425 16.1519 7.87082C16.0809 7.87739 16.0154 7.91191 15.9697 7.96679C15.9291 8.01485 15.907 8.07582 15.9073 8.13874H15.9062V9.03241H14.605C14.5404 9.03241 14.4747 9.03569 14.4068 9.04013C13.489 9.10697 12.891 9.62168 12.5253 10.3511C12.1792 11.0399 12.0478 11.9183 12.0478 12.7726H12.0489C12.0489 12.9949 12.0566 13.2084 12.0708 13.4111C12.0751 13.4717 12.0997 13.5291 12.1406 13.574C12.1815 13.619 12.2363 13.6489 12.2963 13.6588C12.3562 13.6688 12.4178 13.6584 12.4711 13.6291C12.5243 13.5998 12.5662 13.5535 12.5899 13.4976C12.7937 13.0672 13.1255 12.409 13.511 11.8647C13.868 11.3609 14.2612 10.9534 14.6051 10.9534H15.9062V11.8471C15.9062 11.9005 15.922 11.9527 15.9517 11.9971C15.9813 12.0416 16.0235 12.0762 16.0728 12.0967C16.1221 12.1172 16.1764 12.1226 16.2288 12.1123C16.2812 12.102 16.3294 12.0764 16.3672 12.0388L18.5773 10.1998C18.6321 10.1542 18.6666 10.0887 18.6731 10.0177C18.6797 9.94667 18.6578 9.87596 18.6123 9.82107L18.6124 9.82095ZM7.47861 2.8896C7.52724 2.92996 7.58845 2.95204 7.65165 2.95203V2.95311H8.54531V5.92985C8.54522 5.96539 8.55215 6.0006 8.5657 6.03345C8.57926 6.06631 8.59917 6.09616 8.62431 6.12129C8.64944 6.14642 8.67929 6.16634 8.71214 6.17989C8.745 6.19345 8.78021 6.20038 8.81575 6.20028H10.1947C10.2664 6.20028 10.3352 6.17179 10.3859 6.12107C10.4366 6.07036 10.4651 6.00157 10.4651 5.92985V2.95311H11.3588C11.4305 2.95311 11.4993 2.92462 11.55 2.87391C11.6007 2.82319 11.6292 2.7544 11.6292 2.68268C11.629 2.61095 11.6007 2.54216 11.5504 2.49102L9.71142 0.282048C9.68892 0.254749 9.66124 0.232173 9.62997 0.215623C9.5987 0.199073 9.56447 0.188875 9.52924 0.185618C9.49401 0.18236 9.45849 0.186108 9.42472 0.196644C9.39095 0.20718 9.35959 0.224297 9.33247 0.247008C9.31836 0.258761 9.30552 0.271969 9.29418 0.286414L7.44357 2.51069C7.39826 2.5657 7.37651 2.63639 7.38308 2.70736C7.38964 2.77833 7.42398 2.84383 7.47861 2.8896ZM6.65062 13.6619C6.68603 13.6644 6.72159 13.66 6.75527 13.6488C6.78894 13.6375 6.82006 13.6197 6.84684 13.5964C6.87361 13.5731 6.89551 13.5448 6.91127 13.5129C6.92703 13.4811 6.93635 13.4465 6.93867 13.4111C6.95413 13.2085 6.96166 12.9949 6.96166 12.7726H6.96278C6.96278 11.9184 6.83143 11.04 6.48527 10.3511C6.11826 9.62172 5.52149 9.10712 4.60383 9.04017C4.53591 9.03581 4.46912 9.03245 4.40557 9.03245H3.10444V8.13905H3.10331C3.10323 8.08794 3.08861 8.03791 3.06116 7.9948C3.03371 7.95169 2.99457 7.91728 2.94829 7.89557C2.90202 7.87387 2.85053 7.86578 2.79983 7.87224C2.74914 7.8787 2.70132 7.89944 2.66197 7.93206L0.436692 9.78294C0.422839 9.79459 0.410017 9.80741 0.398368 9.82126C0.375687 9.8484 0.358596 9.87975 0.348078 9.91351C0.337559 9.94728 0.333821 9.98279 0.337077 10.018C0.340334 10.0532 0.350521 10.0874 0.367053 10.1187C0.383586 10.15 0.406136 10.1777 0.433408 10.2002L2.64242 12.0391C2.69355 12.0894 2.76234 12.1177 2.83408 12.118C2.90575 12.1178 2.97443 12.0892 3.02511 12.0386C3.07579 11.9879 3.10434 11.9192 3.10451 11.8475V10.9535H4.40549C4.74828 10.9535 5.14257 11.3609 5.49962 11.8647C5.88402 12.409 6.21696 13.0672 6.42064 13.4976C6.44022 13.5434 6.47203 13.583 6.51259 13.612C6.55315 13.641 6.60091 13.6582 6.65062 13.6619ZM2.64767 6.691L4.85777 8.52994C4.8957 8.56767 4.94395 8.59333 4.99643 8.60368C5.04892 8.61404 5.10329 8.60863 5.15271 8.58813C5.20213 8.56764 5.24437 8.53298 5.27412 8.48851C5.30388 8.44405 5.3198 8.39178 5.3199 8.33828V7.4445H6.61991C6.96375 7.4445 7.35808 7.85193 7.714 8.35571C8.09949 8.90001 8.43135 9.55821 8.63614 9.98862C8.65976 10.0445 8.70154 10.0909 8.75473 10.1201C8.80792 10.1494 8.86943 10.1599 8.92931 10.1499C8.98918 10.1399 9.04395 10.11 9.08475 10.065C9.12555 10.0201 9.15001 9.96269 9.15417 9.90212C9.16963 9.68964 9.17828 9.47607 9.17828 9.26467H9.17716C9.17716 8.40825 9.04581 7.53004 8.69965 6.84209C8.33387 6.1127 7.73699 5.5981 6.81821 5.53115C6.75223 5.52684 6.68612 5.52465 6.61999 5.52458H5.31998V4.63115H5.31889C5.31897 4.57985 5.30442 4.52959 5.27695 4.48625C5.24949 4.44292 5.21025 4.40831 5.16382 4.38648C5.1174 4.36464 5.06571 4.35649 5.01482 4.36297C4.96393 4.36945 4.91594 4.3903 4.87647 4.42307L2.65212 6.27376C2.63774 6.28482 2.62485 6.2977 2.61379 6.31208C2.59112 6.33918 2.57402 6.37048 2.56345 6.4042C2.55288 6.43791 2.54906 6.47337 2.55221 6.50856C2.55536 6.54375 2.56541 6.57798 2.58179 6.60928C2.59817 6.64058 2.62056 6.66835 2.64767 6.691Z" fill="#56CBBD"/>
</svg>
