<svg width="21" height="16" viewBox="0 0 21 16" fill="none" xmlns="http://www.w3.org/2000/svg">
<path d="M4.13552 5.06467C5.52475 5.06467 6.65093 3.93848 6.65093 2.54926C6.65093 1.16004 5.52475 0.0338554 4.13552 0.0338554C2.7463 0.0338554 1.62012 1.16004 1.62012 2.54926C1.62012 3.93848 2.7463 5.06467 4.13552 5.06467Z" fill="#BD47FB"/>
<path d="M6.89418 6.8003C6.05026 7.32692 5.35424 8.05964 4.87164 8.92948C4.38905 9.79933 4.13576 10.7777 4.13562 11.7724H2.45868C2.01433 11.7711 1.58857 11.594 1.27437 11.2798C0.960168 10.9656 0.783065 10.5398 0.781738 10.0955L0.781738 8.41855C0.783729 7.75203 1.04938 7.11339 1.52068 6.64209C1.99198 6.17079 2.63063 5.90513 3.29715 5.90314H4.97408C5.34014 5.90397 5.7016 5.98467 6.03323 6.13963C6.36487 6.29459 6.65869 6.52006 6.89418 6.8003Z" fill="#BD47FB"/>
<path d="M17.5511 5.06467C18.9403 5.06467 20.0665 3.93848 20.0665 2.54926C20.0665 1.16004 18.9403 0.0338554 17.5511 0.0338554C16.1618 0.0338554 15.0356 1.16004 15.0356 2.54926C15.0356 3.93848 16.1618 5.06467 17.5511 5.06467Z" fill="#BD47FB"/>
<path d="M20.9049 8.41855V10.0955C20.9036 10.5398 20.7265 10.9656 20.4123 11.2798C20.0981 11.594 19.6723 11.7711 19.228 11.7724H17.551C17.5509 10.7777 17.2976 9.79933 16.815 8.92948C16.3324 8.05964 15.6364 7.32692 14.7925 6.8003C15.028 6.52006 15.3218 6.29459 15.6534 6.13963C15.9851 5.98467 16.3465 5.90397 16.7126 5.90314H18.3895C19.056 5.90513 19.6947 6.17079 20.166 6.64209C20.6373 7.11339 20.9029 7.75203 20.9049 8.41855Z" fill="#BD47FB"/>
<path d="M10.8431 6.74161C12.6954 6.74161 14.197 5.24003 14.197 3.38773C14.197 1.53544 12.6954 0.0338554 10.8431 0.0338554C8.99084 0.0338554 7.48926 1.53544 7.48926 3.38773C7.48926 5.24003 8.99084 6.74161 10.8431 6.74161Z" fill="#006564"/>
<path d="M15.8741 11.7724V12.6109C15.8721 13.2774 15.6065 13.9161 15.1352 14.3874C14.6639 14.8587 14.0252 15.1243 13.3587 15.1263H8.32791C7.66139 15.1243 7.02274 14.8587 6.55144 14.3874C6.08015 13.9161 5.81449 13.2774 5.8125 12.6109V11.7724C5.8125 10.6605 6.25419 9.59421 7.04041 8.80799C7.82663 8.02177 8.89297 7.58008 10.0048 7.58008H11.6818C12.7937 7.58008 13.86 8.02177 14.6462 8.80799C15.4324 9.59421 15.8741 10.6605 15.8741 11.7724Z" fill="#006564"/>
</svg>
