<svg width="19" height="20" viewBox="0 0 19 20" fill="none" xmlns="http://www.w3.org/2000/svg">
<path d="M16.2474 3.79545C16.3666 3.79545 16.4809 3.7481 16.5652 3.66381C16.6495 3.57952 16.6969 3.46519 16.6969 3.34599V0.649278C16.6974 0.58989 16.6862 0.530977 16.6639 0.475944C16.6416 0.42091 16.6086 0.370847 16.5668 0.328649C16.525 0.286451 16.4752 0.252953 16.4204 0.230092C16.3656 0.207232 16.3068 0.195461 16.2474 0.195461C16.188 0.195461 16.1292 0.207232 16.0744 0.230092C16.0196 0.252953 15.9698 0.286451 15.9281 0.328649C15.8863 0.370847 15.8532 0.42091 15.8309 0.475944C15.8086 0.530977 15.7974 0.58989 15.798 0.649278V3.34599C15.798 3.46518 15.8453 3.5795 15.9296 3.66379C16.0139 3.74808 16.1282 3.79544 16.2474 3.79545ZM18.0452 5.59323C18.1644 5.59323 18.2787 5.54587 18.363 5.46158C18.4473 5.37729 18.4947 5.26297 18.4947 5.14376V2.44706C18.4952 2.38767 18.484 2.32875 18.4617 2.27372C18.4394 2.21869 18.4064 2.16862 18.3646 2.12643C18.3228 2.08423 18.273 2.05073 18.2182 2.02787C18.1634 2.00501 18.1046 1.99324 18.0452 1.99324C17.9858 1.99324 17.927 2.00501 17.8722 2.02787C17.8174 2.05073 17.7677 2.08423 17.7259 2.12643C17.6841 2.16862 17.6511 2.21869 17.6287 2.27372C17.6064 2.32875 17.5952 2.38767 17.5958 2.44706V5.14376C17.5958 5.26296 17.6431 5.37728 17.7274 5.46157C17.8117 5.54586 17.926 5.59322 18.0452 5.59323ZM3.21331 1.09874C3.09411 1.09874 2.9798 1.14609 2.89551 1.23037C2.81122 1.31466 2.76386 1.42897 2.76385 1.54817V4.24487C2.76499 4.36332 2.81285 4.47653 2.89701 4.55988C2.98118 4.64323 3.09484 4.68999 3.21329 4.68999C3.33174 4.68999 3.44541 4.64323 3.52957 4.55988C3.61373 4.47653 3.66159 4.36332 3.66274 4.24487V1.54817C3.66272 1.42898 3.61537 1.31467 3.53109 1.23039C3.44681 1.14611 3.3325 1.09875 3.21331 1.09874ZM1.41549 3.79545C1.29629 3.79545 1.18196 3.84281 1.09767 3.9271C1.01338 4.01139 0.966027 4.12571 0.966027 4.24492V6.94162C0.967174 7.06007 1.01503 7.17328 1.09919 7.25663C1.18336 7.33998 1.29702 7.38674 1.41547 7.38674C1.53392 7.38674 1.64759 7.33998 1.73175 7.25663C1.81591 7.17328 1.86377 7.06007 1.86492 6.94162V4.24492C1.86492 4.12572 1.81757 4.0114 1.73329 3.92711C1.649 3.84282 1.53469 3.79546 1.41549 3.79545ZM18.8124 11.1183C18.7707 11.0766 18.7212 11.0435 18.6666 11.0209C18.6121 10.9983 18.5537 10.9867 18.4946 10.9867C18.4356 10.9867 18.3772 10.9983 18.3227 11.0209C18.2681 11.0435 18.2186 11.0766 18.1769 11.1183L17.5957 11.6994V7.39105C17.5946 7.2726 17.5467 7.1594 17.4626 7.07604C17.3784 6.99269 17.2647 6.94593 17.1463 6.94593C17.0278 6.94593 16.9142 6.99269 16.83 7.07604C16.7459 7.1594 16.698 7.2726 16.6969 7.39105V11.6994L16.1157 11.1183C16.0311 11.0356 15.9173 10.9897 15.799 10.9903C15.6807 10.991 15.5675 11.0383 15.4838 11.122C15.4002 11.2056 15.3529 11.3189 15.3522 11.4372C15.3515 11.5555 15.3975 11.6693 15.4802 11.7539L16.8285 13.1022C16.8703 13.144 16.9198 13.1771 16.9743 13.1997C17.0288 13.2222 17.0873 13.2339 17.1463 13.2339C17.2053 13.2339 17.2638 13.2222 17.3183 13.1997C17.3728 13.1771 17.4223 13.144 17.4641 13.1022L18.8124 11.7539C18.8542 11.7121 18.8873 11.6626 18.9099 11.6081C18.9325 11.5535 18.9441 11.4951 18.9441 11.4361C18.9441 11.3771 18.9325 11.3186 18.9099 11.2641C18.8873 11.2096 18.8542 11.16 18.8124 11.1183ZM9.95508 1.99763C8.97726 1.99763 8.0214 2.28759 7.20837 2.83084C6.39534 3.37409 5.76166 4.14623 5.38747 5.04961C5.01327 5.953 4.91536 6.94707 5.10613 7.9061C5.29689 8.86513 5.76776 9.74606 6.45918 10.4375C7.1506 11.1289 8.03153 11.5998 8.99057 11.7905C9.9496 11.9813 10.9437 11.8834 11.847 11.5092C12.7504 11.135 13.5226 10.5013 14.0658 9.68829C14.6091 8.87527 14.899 7.9194 14.899 6.94158C14.899 5.63036 14.3782 4.37285 13.451 3.44568C12.5238 2.51851 11.2663 1.99763 9.95508 1.99763ZM10.7451 9.05576C10.6362 9.10991 10.5221 9.15288 10.4045 9.18402V9.63833C10.4034 9.75678 10.3555 9.86998 10.2714 9.95334C10.1872 10.0367 10.0736 10.0834 9.9551 10.0834C9.83665 10.0834 9.72299 10.0367 9.63883 9.95334C9.55466 9.86998 9.50681 9.75678 9.50566 9.63833V9.20644C9.16497 9.13235 8.84424 8.98577 8.56527 8.77665C8.51665 8.74211 8.47539 8.69824 8.4439 8.6476C8.41241 8.59696 8.39131 8.54055 8.38184 8.48167C8.37236 8.42279 8.3747 8.36262 8.38872 8.30465C8.40273 8.24669 8.42814 8.19209 8.46347 8.14404C8.4988 8.096 8.54334 8.05546 8.59449 8.0248C8.64564 7.99414 8.70238 7.97396 8.7614 7.96545C8.82043 7.95694 8.88056 7.96026 8.93829 7.97522C8.99602 7.99018 9.05019 8.01648 9.09765 8.05258C9.71786 8.5085 10.2044 8.32162 10.3394 8.25361C10.5296 8.15729 10.6293 8.0123 10.6293 7.91893C10.6293 7.70564 10.4324 7.59448 9.99128 7.42594C9.91185 7.39556 9.83786 7.36695 9.77356 7.3388C9.72944 7.31925 9.67635 7.2994 9.6182 7.27724C9.21682 7.12492 8.38197 6.8078 8.38197 5.93613C8.38197 5.47933 8.68198 5.04369 9.16499 4.79934C9.27396 4.74582 9.38807 4.70346 9.50557 4.67293V4.24483C9.505 4.18544 9.5162 4.12653 9.53853 4.0715C9.56086 4.01646 9.59387 3.9664 9.63566 3.9242C9.67746 3.882 9.7272 3.84851 9.78201 3.82565C9.83683 3.80279 9.89563 3.79102 9.95502 3.79102C10.0144 3.79102 10.0732 3.80279 10.128 3.82565C10.1828 3.84851 10.2326 3.882 10.2744 3.9242C10.3162 3.9664 10.3492 4.01646 10.3715 4.0715C10.3938 4.12653 10.405 4.18544 10.4045 4.24483V4.65166C10.745 4.72454 11.0657 4.87003 11.3449 5.0782C11.4409 5.14879 11.505 5.25465 11.523 5.37249C11.541 5.49032 11.5114 5.61048 11.4408 5.70653C11.3702 5.80258 11.2644 5.86666 11.1466 5.88466C11.0287 5.90266 10.9086 5.87311 10.8125 5.80252C10.1921 5.34661 9.70555 5.53348 9.5708 5.60149C9.38051 5.69781 9.28091 5.8428 9.28091 5.93617C9.28091 6.14761 9.51156 6.27533 9.9373 6.43696C10.0121 6.46536 10.0799 6.4914 10.1366 6.51639C10.1881 6.5391 10.2481 6.56173 10.3119 6.58616C10.737 6.7486 11.5281 7.05088 11.5281 7.91897C11.5281 8.37577 11.2281 8.81137 10.7451 9.05576ZM18.8789 16.8868C18.841 16.9673 18.7869 17.0392 18.72 17.098C18.6531 17.1567 18.5749 17.2011 18.4901 17.2284L10.6292 19.8487C10.3266 19.951 10.0067 19.9921 9.68803 19.9698C9.36938 19.9474 9.05834 19.8619 8.773 19.7183L6.4853 18.5745C6.08245 18.3731 5.62609 18.3046 5.18187 18.379L3.36382 18.6823V14.7317L6.47629 13.6957C6.9714 13.5313 7.50613 13.5297 8.0022 13.6912L11.9349 14.9789C12.083 15.0325 12.2056 15.1397 12.2783 15.2795C12.3511 15.4192 12.3687 15.5811 12.3277 15.7332C12.2867 15.8853 12.1901 16.0164 12.057 16.1006C11.9239 16.1848 11.764 16.216 11.609 16.1879L9.13701 15.7384C9.07902 15.7278 9.01951 15.7287 8.96187 15.7411C8.90423 15.7535 8.84959 15.7771 8.80107 15.8106C8.75256 15.8441 8.71111 15.8868 8.67911 15.9363C8.6471 15.9858 8.62517 16.0411 8.61454 16.0991C8.60392 16.1571 8.60483 16.2166 8.61721 16.2743C8.62959 16.3319 8.6532 16.3865 8.68669 16.4351C8.72019 16.4836 8.76291 16.525 8.81242 16.557C8.86193 16.589 8.91726 16.611 8.97525 16.6216L11.4472 17.071C11.5376 17.0882 11.6294 17.0965 11.7213 17.0958C12.0689 17.0963 12.4062 16.9773 12.6764 16.7587L18.1845 15.9452C18.3034 15.9277 18.4248 15.9429 18.5358 15.9891C18.6467 16.0353 18.743 16.1108 18.8144 16.2075C18.8857 16.3043 18.9294 16.4186 18.9408 16.5382C18.9521 16.6579 18.9307 16.7784 18.8789 16.8868H18.8789ZM2.46493 14.0665V19.2464C2.46459 19.3768 2.41263 19.5018 2.32041 19.594C2.22818 19.6863 2.1032 19.7382 1.97278 19.7386H0.559288C0.494652 19.7386 0.430645 19.7259 0.370924 19.7011C0.311204 19.6764 0.256941 19.6402 0.211236 19.5945C0.165532 19.5488 0.129281 19.4945 0.104556 19.4348C0.0798312 19.3751 0.0671166 19.311 0.0671387 19.2464V14.0665C0.0674835 13.9361 0.119445 13.8111 0.211667 13.7189C0.303888 13.6267 0.428868 13.5747 0.559288 13.5743H1.97283C2.10312 13.5751 2.22787 13.6272 2.31999 13.7193C2.41212 13.8115 2.4642 13.9362 2.46493 14.0665Z" fill="#FFC584"/>
</svg>
