<svg width="26" height="25" viewBox="0 0 26 25" fill="none" xmlns="http://www.w3.org/2000/svg">
<g clip-path="url(#clip0_714_10518)">
<path d="M13.1644 0.106201C6.28503 0.106201 0.717529 5.67307 0.717529 12.5531C0.717529 19.4324 6.28439 25 13.1644 25C20.0438 25 25.6113 19.4331 25.6113 12.5531C25.6113 5.6737 20.0444 0.106201 13.1644 0.106201ZM13.1644 23.2632C7.25885 23.2632 2.45431 18.4587 2.45431 12.5531C2.45431 6.64747 7.25885 1.84298 13.1644 1.84298C19.07 1.84298 23.8745 6.64747 23.8745 12.5531C23.8745 18.4587 19.07 23.2632 13.1644 23.2632Z" fill="#BBC1E3"/>
<path d="M12.796 15.8557C12.1078 15.8557 11.5508 16.4291 11.5508 17.1172C11.5508 17.789 12.0914 18.3788 12.796 18.3788C13.5005 18.3788 14.0575 17.789 14.0575 17.1172C14.0575 16.4291 13.484 15.8557 12.796 15.8557Z" fill="#BBC1E3"/>
<path d="M13.0091 6.30371C10.7973 6.30371 9.78149 7.61447 9.78149 8.49917C9.78149 9.13815 10.3222 9.43308 10.7645 9.43308C11.6493 9.43308 11.2888 8.17147 12.96 8.17147C13.7791 8.17147 14.4345 8.53194 14.4345 9.28561C14.4345 10.1703 13.517 10.6782 12.9764 11.1369C12.5012 11.5465 11.8786 12.2183 11.8786 13.6273C11.8786 14.4792 12.108 14.725 12.7797 14.725C13.5825 14.725 13.7464 14.3646 13.7464 14.0532C13.7464 13.2013 13.7627 12.7098 14.6639 12.0053C15.1062 11.6612 16.4988 10.5471 16.4988 9.00702C16.4988 7.46696 15.1062 6.30371 13.0091 6.30371Z" fill="#BBC1E3"/>
</g>
<defs>
<clipPath id="clip0_714_10518">
<rect width="24.8938" height="24.8938" fill="white" transform="translate(0.717529 0.106201)"/>
</clipPath>
</defs>
</svg>
