<svg width="41" height="41" viewBox="0 0 41 41" fill="none" xmlns="http://www.w3.org/2000/svg">
<path opacity="0.1" d="M7.91509 28.9286C0.0895743 13.6429 12.7344 1.72376 33.0912 6.60097C34.5268 6.94492 35.5137 8.26329 35.442 9.73775C34.8105 22.7268 28.8903 30.0881 10.7211 30.5565C9.55058 30.5866 8.44868 29.9708 7.91509 28.9286Z" fill="#11CABE"/>
<path d="M7.91509 28.9286C0.0895743 13.6429 12.7344 1.72376 33.0912 6.60097C34.5268 6.94492 35.5137 8.26329 35.442 9.73775C34.8105 22.7268 28.8903 30.0881 10.7211 30.5565C9.55058 30.5866 8.44868 29.9708 7.91509 28.9286Z" stroke="#11CABE" stroke-width="4.75" stroke-linecap="round" stroke-linejoin="round"/>
<path d="M7.1665 35.5801C9.6666 26.4134 10.4999 21.4134 20.4997 17.2467" stroke="#11CABE" stroke-width="4.75" stroke-linecap="round" stroke-linejoin="round"/>
</svg>
