<svg width="40" height="40" viewBox="0 0 40 40" fill="none" xmlns="http://www.w3.org/2000/svg">
<g clip-path="url(#clip0_634_3775)">
<path d="M37.7248 10.8649C37.6907 10.8017 37.6568 10.7366 37.6243 10.6734C34.2936 4.33436 27.6444 0 20.0001 0C19.5494 0 19.1005 0.01452 18.6548 0.04704C18.6338 0.04704 18.6113 0.04832 18.59 0.05032C15.2542 0.28364 12.043 1.35016 9.22932 3.16568C6.7234 4.78168 4.62584 6.9276 3.073 9.4416C3.07136 9.4448 3.07004 9.44804 3.06652 9.45128C2.68584 10.0708 2.33552 10.7108 2.02096 11.3722C0.751719 14.045 0.108398 16.9126 0.108398 19.8933C0.108398 30.8602 9.0314 39.785 20.0001 39.785C30.969 39.785 39.892 30.8602 39.892 19.8933C39.892 16.6451 39.1092 13.5767 37.7248 10.8649ZM10.5472 5.20944C12.5877 3.89344 14.8651 3.02612 17.2447 2.64872L14.04 21.6115L12.006 11.1272C11.8926 10.5487 11.3881 10.1339 10.7935 10.1436C10.2053 10.1516 9.70728 10.5813 9.61188 11.163L7.86468 21.8742L5.38456 10.3363C6.72016 8.29416 8.47544 6.54536 10.5472 5.20944ZM2.53988 19.8933C2.53988 17.778 2.9076 15.7291 3.6386 13.7824L6.83844 28.6738C6.95996 29.2362 7.45596 29.6348 8.02644 29.6348H8.05736C8.64108 29.6204 9.13192 29.1908 9.22764 28.6155L10.9149 18.2724L12.928 28.651C13.0402 29.2234 13.5407 29.6349 14.1212 29.6349H14.1373C14.7239 29.6268 15.2235 29.2007 15.3208 28.6219L19.7474 2.43472C19.8315 2.43116 19.9159 2.43116 20.0001 2.43116C26.0072 2.43116 31.3142 5.48016 34.457 10.1113H21.832C21.237 10.1113 20.7294 10.5422 20.6324 11.1292L19.2188 19.645C19.2175 19.6599 19.214 19.6744 19.2124 19.6889L16.3451 36.9681C8.46608 35.2839 2.53988 28.2666 2.53988 19.8933ZM20.0001 37.3536C19.582 37.3536 19.1653 37.3388 18.7537 37.3098L21.4414 21.109H27.8243L26.6524 28.2216C26.594 28.5732 26.6946 28.9332 26.9248 29.2052C27.1565 29.4778 27.4952 29.6348 27.852 29.6348H34.4831C31.3432 34.2886 26.0233 37.3536 20.0001 37.3536ZM35.8542 27.2038H29.2847L31.105 16.1604C31.2137 15.4974 30.7646 14.8718 30.1017 14.7632C29.4404 14.6546 28.8148 15.1019 28.7045 15.7649L28.2246 18.6775H21.8449L22.8627 12.5424H35.8348C36.8788 14.7776 37.4606 17.2691 37.4606 19.8933C37.4606 22.503 36.8853 24.9779 35.8542 27.2038Z" fill="url(#paint0_linear_634_3775)"/>
</g>
<defs>
<linearGradient id="paint0_linear_634_3775" x1="20.0002" y1="0" x2="20.0002" y2="39.785" gradientUnits="userSpaceOnUse">
<stop stop-color="#009688"/>
<stop offset="1" stop-color="#4DB6AC"/>
</linearGradient>
<clipPath id="clip0_634_3775">
<rect width="40" height="40" fill="white"/>
</clipPath>
</defs>
</svg>
