<svg width="50" height="50" viewBox="0 0 50 50" fill="none" xmlns="http://www.w3.org/2000/svg">
<g clip-path="url(#clip0_125_1975)">
<path d="M29.6294 45.4933L28.0611 49.5671C27.9608 49.8279 27.7101 49.9999 27.4308 49.9999H22.569C22.2897 49.9999 22.039 49.8279 21.9387 49.5671L20.5024 45.8368C17.9871 45.2971 15.6179 44.3147 13.4487 42.9124L9.79365 44.5365C9.5376 44.6491 9.23896 44.5941 9.04141 44.3967L5.60361 40.9589C5.40605 40.7613 5.3502 40.4622 5.46377 40.2071L7.08701 36.5521C5.68555 34.3852 4.70283 32.015 4.16221 29.4971L0.432813 28.0612C0.171973 27.9609 0 27.7102 0 27.4309V22.5691C0 22.2898 0.171973 22.0391 0.432813 21.9388L4.1627 20.5029C4.70244 17.9863 5.68516 15.6166 7.0875 13.4488L5.46387 9.79287C5.35039 9.5377 5.40625 9.23857 5.60371 9.04111L9.04102 5.60332C9.23857 5.40537 9.53721 5.3499 9.79326 5.46348L13.4487 7.0876C15.6174 5.68525 17.9866 4.70293 20.5024 4.16318L21.9387 0.43291C22.0391 0.171973 22.2898 0 22.5691 0H27.4309C27.7102 0 27.9609 0.171973 28.0612 0.432813L29.6299 4.50801C29.7641 4.85645 29.5907 5.24707 29.2424 5.38115C28.8953 5.51445 28.5033 5.34199 28.3692 4.99365L26.9669 1.35137H23.0332L21.6309 4.99365C21.5478 5.21055 21.3586 5.36885 21.1307 5.41377C18.5326 5.92402 16.0961 6.93408 13.8887 8.41563C13.696 8.54541 13.4497 8.56611 13.2381 8.47236L9.66846 6.88701L6.8874 9.66846L8.47236 13.2382C8.5665 13.4502 8.54492 13.6961 8.41563 13.8888C6.93359 16.0952 5.92363 18.5318 5.41328 21.1312C5.36846 21.359 5.21006 21.5481 4.99316 21.6313L1.35137 23.0332V26.9667L4.99238 28.3687C5.20928 28.4518 5.36758 28.6409 5.4125 28.8688C5.92412 31.4695 6.93408 33.9065 8.41523 36.1121C8.54453 36.3048 8.56611 36.5507 8.47197 36.7627L6.8875 40.3315L9.66895 43.113L13.2383 41.5276C13.4499 41.434 13.6962 41.4546 13.8889 41.5844C16.0967 43.0664 18.5333 44.0764 21.1309 44.5862C21.3587 44.6311 21.5479 44.7895 21.6311 45.0063L23.0334 48.6486H26.9669L28.3688 45.0076C28.503 44.6592 28.8958 44.4859 29.242 44.6201C29.5903 44.7543 29.7636 45.1453 29.6294 45.4933ZM19.7534 33.6914C19.863 33.7578 19.9835 33.7891 20.1027 33.7891C20.3311 33.7891 20.5545 33.6729 20.6812 33.4631C20.8742 33.1437 20.7722 32.7284 20.4528 32.5354C17.7906 30.9254 16.2013 28.1087 16.2013 25C16.2013 21.8913 17.7906 19.0746 20.4528 17.4646C20.7722 17.2716 20.8742 16.8562 20.6812 16.5369C20.4885 16.2176 20.0724 16.115 19.7534 16.3086C16.683 18.1649 14.8499 21.4145 14.8499 25C14.8499 28.5855 16.6829 31.8351 19.7534 33.6914ZM50 25C50 26.7332 48.5897 28.1435 46.8565 28.1435C45.3555 28.1435 44.0984 27.0849 43.7881 25.6757H25.6757V28.7457H32.5274C32.7064 28.7457 32.8785 28.817 33.0052 28.9437L35.4945 31.4335H37.1726C37.4828 30.0242 38.7399 28.9657 40.241 28.9657C41.9742 28.9657 43.3845 30.376 43.3845 32.1092C43.3845 33.8424 41.9742 35.2526 40.241 35.2526C38.74 35.2526 37.4829 34.194 37.1726 32.7849H35.2147C35.0357 32.7849 34.8637 32.7136 34.737 32.5869L32.2477 30.0972H25.6757V33.1676H31.2324C31.4114 33.1676 31.5835 33.2389 31.7102 33.3655L36.5252 38.1806C36.6519 38.3072 36.7231 38.4793 36.7231 38.6583V41.0702C37.5552 41.2541 38.3111 41.7692 38.7695 42.5632C39.1896 43.2903 39.3014 44.1376 39.0841 44.9482C38.8668 45.7594 38.3464 46.4373 37.6192 46.8569C37.135 47.1367 36.5974 47.2797 36.0527 47.2797C35.7796 47.2797 35.5046 47.2437 35.2341 47.171C34.4229 46.9537 33.745 46.4337 33.3254 45.7066C32.4588 44.2058 32.9748 42.2794 34.4757 41.4124C34.7623 41.247 35.0645 41.1327 35.3718 41.0653V38.938L30.9526 34.5188H25.6757V39.3713C25.6757 39.7443 25.373 40.047 25 40.047C16.7032 40.047 9.95303 33.2968 9.95303 25C9.95303 16.7032 16.7032 9.95303 25 9.95303C25.373 9.95303 25.6757 10.2557 25.6757 10.6287V15.4812H30.9526L35.3718 11.062V8.93066C35.0614 8.86191 34.759 8.75117 34.4757 8.5875C32.9748 7.72051 32.4588 5.79414 33.3254 4.29326C33.745 3.56611 34.4229 3.04619 35.2341 2.82891C36.0448 2.61162 36.892 2.72285 37.6191 3.14297C38.3463 3.5626 38.8662 4.24053 39.0835 5.05166C39.3013 5.86279 39.1896 6.70957 38.7694 7.43672C38.3498 8.16387 37.6719 8.68379 36.8607 8.90156C36.8151 8.91377 36.7689 8.91885 36.723 8.92891V11.3416C36.723 11.5206 36.6518 11.6927 36.5251 11.8193L31.7101 16.6344C31.5834 16.761 31.4113 16.8323 31.2323 16.8323H25.6756V19.9027H32.0787L35.0198 16.9611C35.1465 16.8345 35.3186 16.7632 35.4976 16.7632H37.1725C37.4827 15.3539 38.7398 14.2954 40.2409 14.2954C41.9741 14.2954 43.3844 15.7057 43.3844 17.4389C43.3844 19.1721 41.9741 20.5823 40.2409 20.5823C38.7399 20.5823 37.4828 19.5237 37.1725 18.1146H35.7773L32.8362 21.0562C32.7096 21.1828 32.5375 21.2541 32.3585 21.2541H25.6757V24.3241H43.7881C44.0983 22.9148 45.3555 21.8563 46.8565 21.8563C48.5897 21.8565 50 23.2668 50 25ZM38.4488 17.4392C38.4488 18.4271 39.2529 19.2312 40.2409 19.2312C41.2289 19.2312 42.033 18.4271 42.033 17.4392C42.033 16.4512 41.2289 15.6471 40.2409 15.6471C39.2529 15.6471 38.4488 16.4511 38.4488 17.4392ZM35.1514 7.41748C35.5666 7.65674 36.0501 7.721 36.511 7.59609C36.9733 7.47246 37.3601 7.17559 37.5993 6.76113C37.8386 6.34678 37.9024 5.86377 37.7783 5.40146C37.6547 4.93916 37.3578 4.55244 36.9434 4.31318C36.6671 4.15352 36.3605 4.07217 36.0499 4.07217C35.8946 4.07217 35.738 4.09287 35.5836 4.13418C35.1213 4.25781 34.7346 4.55469 34.4953 4.96914C34.0016 5.82461 34.2958 6.92305 35.1514 7.41748ZM24.3243 11.3206C17.085 11.6739 11.3044 17.6744 11.3044 25C11.3044 32.3256 17.0851 38.3261 24.3243 38.6794V11.3206ZM36.0439 42.3433C35.7404 42.3433 35.4329 42.4202 35.1514 42.5825C34.2958 43.077 34.0015 44.1754 34.4955 45.031C34.7348 45.4453 35.1215 45.7423 35.5838 45.8659C36.0461 45.9896 36.5287 45.9267 36.9435 45.6869C37.3583 45.4477 37.6548 45.0609 37.7788 44.5986C37.9024 44.1363 37.8387 43.6537 37.5993 43.239C37.2678 42.6644 36.6642 42.3433 36.0439 42.3433ZM38.4488 32.1091C38.4488 33.0971 39.2529 33.9012 40.2409 33.9012C41.2289 33.9012 42.033 33.0971 42.033 32.1091C42.033 31.1211 41.2289 30.317 40.2409 30.317C39.2529 30.317 38.4488 31.1211 38.4488 32.1091ZM48.6486 25C48.6486 24.012 47.8445 23.2079 46.8565 23.2079C45.8686 23.2079 45.0645 24.012 45.0645 25C45.0645 25.988 45.8686 26.7921 46.8565 26.7921C47.8445 26.7921 48.6486 25.988 48.6486 25Z" fill="url(#paint0_linear_125_1975)"/>
</g>
<defs>
<linearGradient id="paint0_linear_125_1975" x1="25" y1="0" x2="25" y2="49.9999" gradientUnits="userSpaceOnUse">
<stop stop-color="#433FF9"/>
<stop offset="1" stop-color="#1915D6" stop-opacity="0.5"/>
</linearGradient>
<clipPath id="clip0_125_1975">
<rect width="50" height="50" fill="white"/>
</clipPath>
</defs>
</svg>
