<svg width="51" height="50" viewBox="0 0 51 50" fill="none" xmlns="http://www.w3.org/2000/svg">
<path d="M19.1522 30.803L16.8771 26.8623L14.6019 22.9217C14.2555 22.3217 13.3895 22.3217 13.0431 22.9217L10.7679 26.8623L8.49277 30.803C8.14637 31.403 8.57937 32.153 9.27222 32.153H13.8225H18.3728C19.0656 32.153 19.4986 31.403 19.1522 30.803Z" fill="url(#paint0_radial_682_10488)"/>
<path d="M22.8376 23.571L20.7112 19.8875C20.3646 19.2875 19.4987 19.2875 19.1521 19.8875L17.0256 23.571H22.8376Z" fill="url(#paint1_radial_682_10488)"/>
<path d="M23.8621 25.3455L23.5591 24.821H17.1416L20.2346 30.178C20.5906 30.7935 20.6206 31.5185 20.3256 32.153H26.2336C26.9266 32.153 27.3596 31.403 27.0131 30.803L23.8621 25.3455Z" fill="url(#paint2_radial_682_10488)"/>
<path d="M10.8626 22.7137C12.2387 22.7137 13.3543 21.5981 13.3543 20.222C13.3543 18.8458 12.2387 17.7302 10.8626 17.7302C9.48645 17.7302 8.37085 18.8458 8.37085 20.222C8.37085 21.5981 9.4865 22.7137 10.8626 22.7137ZM10.8626 18.9802C11.5473 18.9802 12.1043 19.5373 12.1043 20.222C12.1043 20.9067 11.5473 21.4637 10.8626 21.4637C10.1779 21.4637 9.62085 20.9067 9.62085 20.222C9.62085 19.5373 10.1779 18.9802 10.8626 18.9802Z" fill="url(#paint3_radial_682_10488)"/>
<path d="M33.6427 22.7908C34.0262 22.7286 34.2867 22.3672 34.2245 21.9837C34.1622 21.6002 33.8008 21.3397 33.4173 21.4019C33.0338 21.4642 32.7734 21.8256 32.8356 22.2091C32.8978 22.5926 33.2592 22.853 33.6427 22.7908Z" fill="url(#paint4_radial_682_10488)"/>
<path d="M41.6477 17.7302H31.802C30.9736 17.7302 30.302 18.4018 30.302 19.2302V30.6531C30.302 31.4815 30.9736 32.1531 31.802 32.1531H41.6476C42.476 32.1531 43.1476 31.4815 43.1476 30.6531V19.2302C43.1477 18.4018 42.4761 17.7302 41.6477 17.7302ZM37.6181 23.2006C37.8026 22.8806 38.2641 22.8806 38.4491 23.2006L39.5826 25.1646H36.8357L36.6596 24.8601L37.6181 23.2006ZM31.5756 22.0968C31.5756 21.0196 32.4519 20.1433 33.5291 20.1433C34.6063 20.1433 35.4826 21.0196 35.4826 22.0968C35.4826 23.1739 34.6063 24.0503 33.5291 24.0503C32.4519 24.0503 31.5756 23.174 31.5756 22.0968ZM37.2024 29.7401H34.7763H32.3503C31.9809 29.7401 31.75 29.3403 31.9347 29.0203L33.1478 26.9193L34.3608 24.8182C34.5455 24.4983 35.0073 24.4983 35.1919 24.8182L36.405 26.9193L37.618 29.0203C37.8026 29.3402 37.5718 29.7401 37.2024 29.7401ZM41.3936 29.7401H38.8641C38.9926 29.2941 38.9381 28.8066 38.7006 28.3951L37.557 26.4146H39.5826C39.8061 26.4146 40.0206 26.3551 40.2076 26.2471L41.8091 29.0201C41.9936 29.3401 41.7631 29.7401 41.3936 29.7401Z" fill="url(#paint5_radial_682_10488)"/>
<path d="M14.761 14.4028C15.1051 14.3965 15.3743 14.1013 15.3743 13.7572V9.6917C15.3743 9.20845 15.766 8.8167 16.2493 8.8167H33.8959C34.3792 8.8167 34.7709 9.20845 34.7709 9.6917V11.4266C34.7709 11.6481 34.5914 11.8276 34.3699 11.8276C34.103 11.8276 33.9362 12.1165 34.0696 12.3476L34.5827 13.2362L35.0957 14.1248C35.2292 14.3559 35.5627 14.3559 35.6962 14.1248L36.2092 13.2362L36.7223 12.3476C36.8557 12.1165 36.6889 11.8276 36.422 11.8276C36.2005 11.8276 36.021 11.648 36.021 11.4265V9.69165C36.021 8.51805 35.0696 7.56665 33.896 7.56665H16.2493C15.0757 7.56665 14.1243 8.51805 14.1243 9.69165V13.7779C14.1243 14.127 14.4105 14.4092 14.761 14.4028Z" fill="url(#paint6_radial_682_10488)"/>
<path d="M36.7574 33.9054C36.4134 33.9117 36.1442 34.2069 36.1442 34.551V40.3082C36.1442 40.7915 35.7524 41.1832 35.2692 41.1832H17.6226C17.1393 41.1832 16.7476 40.7915 16.7476 40.3082V36.8502C16.7476 36.6287 16.9271 36.4491 17.1486 36.4491C17.4155 36.4491 17.5823 36.1602 17.4489 35.9291L16.9358 35.0405L16.4228 34.1519C16.2893 33.9208 15.9557 33.9208 15.8223 34.1519L15.3093 35.0405L14.7962 35.9291C14.6628 36.1602 14.8296 36.4492 15.0965 36.4492C15.318 36.4492 15.4976 36.6287 15.4976 36.8502V40.3083C15.4976 41.4819 16.449 42.4333 17.6226 42.4333H35.2692C36.4428 42.4333 37.3942 41.4819 37.3942 40.3083V34.5303C37.3942 34.1812 37.108 33.8989 36.7574 33.9054Z" fill="url(#paint7_radial_682_10488)"/>
<path d="M19.7449 14.2981H21.6404C21.9856 14.2981 22.2654 14.0182 22.2654 13.6731C22.2654 13.3279 21.9856 13.0481 21.6404 13.0481H19.7449C19.3997 13.0481 19.1199 13.3279 19.1199 13.6731C19.1199 14.0182 19.3997 14.2981 19.7449 14.2981Z" fill="url(#paint8_radial_682_10488)"/>
<path d="M32.3988 13.6731C32.3988 13.3279 32.119 13.0481 31.7738 13.0481H24.6677C24.3226 13.0481 24.0427 13.3279 24.0427 13.6731C24.0427 14.0182 24.3226 14.2981 24.6677 14.2981H31.7739C32.119 14.2981 32.3988 14.0182 32.3988 13.6731Z" fill="url(#paint9_radial_682_10488)"/>
<path d="M19.7449 34.7512C19.3997 34.7512 19.1199 35.031 19.1199 35.3762C19.1199 35.7214 19.3997 36.0012 19.7449 36.0012H21.6404C21.9856 36.0012 22.2654 35.7214 22.2654 35.3762C22.2654 35.031 21.9856 34.7512 21.6404 34.7512H19.7449Z" fill="url(#paint10_radial_682_10488)"/>
<path d="M24.0427 35.3762C24.0427 35.7214 24.3226 36.0012 24.6677 36.0012H31.7739C32.119 36.0012 32.3989 35.7214 32.3989 35.3762C32.3989 35.0311 32.119 34.7512 31.7739 34.7512H24.6677C24.3225 34.7512 24.0427 35.0311 24.0427 35.3762Z" fill="url(#paint11_radial_682_10488)"/>
<defs>
<radialGradient id="paint0_radial_682_10488" cx="0" cy="0" r="1" gradientUnits="userSpaceOnUse" gradientTransform="translate(14.2314 28.2837) rotate(91.2308) scale(12.6899 14.2919)">
<stop stop-color="#7C12E5"/>
<stop offset="1"/>
</radialGradient>
<radialGradient id="paint1_radial_682_10488" cx="0" cy="0" r="1" gradientUnits="userSpaceOnUse" gradientTransform="translate(20.1496 21.919) rotate(91.5365) scale(5.41871 7.61731)">
<stop stop-color="#7C12E5"/>
<stop offset="1"/>
</radialGradient>
<radialGradient id="paint2_radial_682_10488" cx="0" cy="0" r="1" gradientUnits="userSpaceOnUse" gradientTransform="translate(22.5131 29.2227) rotate(91.4895) scale(9.6115 13.0978)">
<stop stop-color="#7C12E5"/>
<stop offset="1"/>
</radialGradient>
<radialGradient id="paint3_radial_682_10488" cx="0" cy="0" r="1" gradientUnits="userSpaceOnUse" gradientTransform="translate(11.0495 20.722) rotate(91.0929) scale(6.53184 6.53262)">
<stop stop-color="#7C12E5"/>
<stop offset="1"/>
</radialGradient>
<radialGradient id="paint4_radial_682_10488" cx="0" cy="0" r="1" gradientUnits="userSpaceOnUse" gradientTransform="translate(33.6047 22.2273) rotate(81.8746) scale(1.84417 1.84439)">
<stop stop-color="#7C12E5"/>
<stop offset="1"/>
</radialGradient>
<radialGradient id="paint5_radial_682_10488" cx="0" cy="0" r="1" gradientUnits="userSpaceOnUse" gradientTransform="translate(37.2065 26.3888) rotate(90.9734) scale(18.9033 16.8393)">
<stop stop-color="#7C12E5"/>
<stop offset="1"/>
</radialGradient>
<radialGradient id="paint6_radial_682_10488" cx="0" cy="0" r="1" gradientUnits="userSpaceOnUse" gradientTransform="translate(26.2959 11.6706) rotate(93.6159) scale(8.97641 29.6304)">
<stop stop-color="#7C12E5"/>
<stop offset="1"/>
</radialGradient>
<radialGradient id="paint7_radial_682_10488" cx="0" cy="0" r="1" gradientUnits="userSpaceOnUse" gradientTransform="translate(26.9209 39.0249) rotate(92.9) scale(11.1899 29.6515)">
<stop stop-color="#7C12E5"/>
<stop offset="1"/>
</radialGradient>
<radialGradient id="paint8_radial_682_10488" cx="0" cy="0" r="1" gradientUnits="userSpaceOnUse" gradientTransform="translate(20.8106 13.7985) rotate(92.7485) scale(1.63996 4.11935)">
<stop stop-color="#7C12E5"/>
<stop offset="1"/>
</radialGradient>
<radialGradient id="paint9_radial_682_10488" cx="0" cy="0" r="1" gradientUnits="userSpaceOnUse" gradientTransform="translate(28.5341 13.7985) rotate(97.2677) scale(1.65134 10.8676)">
<stop stop-color="#7C12E5"/>
<stop offset="1"/>
</radialGradient>
<radialGradient id="paint10_radial_682_10488" cx="0" cy="0" r="1" gradientUnits="userSpaceOnUse" gradientTransform="translate(20.8106 35.5016) rotate(92.7485) scale(1.63996 4.11935)">
<stop stop-color="#7C12E5"/>
<stop offset="1"/>
</radialGradient>
<radialGradient id="paint11_radial_682_10488" cx="0" cy="0" r="1" gradientUnits="userSpaceOnUse" gradientTransform="translate(28.5342 35.5016) rotate(97.2677) scale(1.65134 10.8676)">
<stop stop-color="#7C12E5"/>
<stop offset="1"/>
</radialGradient>
</defs>
</svg>
