<svg width="150" height="150" viewBox="0 0 150 150" fill="none" xmlns="http://www.w3.org/2000/svg">
<g clip-path="url(#clip0_125_1903)">
<path d="M143.408 63.7202C140.544 63.7202 138.101 65.557 137.194 68.1147H124.658V65.5513C124.658 64.3382 123.675 63.354 122.461 63.354C121.248 63.354 120.264 64.3382 120.264 65.5513V76.2629C120.264 87.2206 116.59 97.5385 109.919 105.315C100.603 116.172 88.8565 124.427 75 129.858C62.6118 125.003 51.8785 117.868 43.094 108.647C42.2563 107.768 40.8659 107.734 39.987 108.572C39.1092 109.408 39.0749 110.799 39.9114 111.678C42.9441 114.86 46.1988 117.801 49.6583 120.503V137.194C47.1017 138.101 45.2638 140.543 45.2638 143.409C45.2638 147.043 48.221 150 51.8556 150C55.4902 150 58.4474 147.043 58.4474 143.409C58.4474 140.544 56.6106 138.101 54.0528 137.194V123.722C60.0839 127.872 66.671 131.345 73.7755 134.098C74.1715 134.25 74.5857 134.327 75.0012 134.327C75.4154 134.327 75.8297 134.25 76.2234 134.098C90.921 128.405 103.38 119.685 113.255 108.176C117.824 102.851 121.115 96.4582 122.955 89.5014H130.382C131.29 92.0591 133.732 93.8959 136.596 93.8959C140.231 93.8959 143.188 90.9387 143.188 87.3041C143.188 83.6695 140.231 80.7123 136.596 80.7123C133.732 80.7123 131.29 82.5502 130.382 85.1068H123.911C124.405 82.2229 124.658 79.2635 124.658 76.2629V72.5092H137.194C138.101 75.067 140.544 76.9038 143.408 76.9038C147.043 76.9038 150 73.9466 150 70.312C150 66.6774 147.043 63.7202 143.408 63.7202ZM51.8556 145.605C50.6437 145.605 49.6583 144.619 49.6583 143.407C49.6583 142.195 50.6437 141.21 51.8556 141.21C53.0675 141.21 54.0528 142.195 54.0528 143.407C54.0528 144.619 53.0675 145.605 51.8556 145.605ZM136.596 85.1068C137.808 85.1068 138.794 86.0922 138.794 87.3041C138.794 88.516 137.808 89.5014 136.596 89.5014C135.385 89.5014 134.399 88.516 134.399 87.3041C134.399 86.0922 135.385 85.1068 136.596 85.1068ZM143.408 72.5092C142.196 72.5092 141.211 71.5239 141.211 70.312C141.211 69.1001 142.196 68.1147 143.408 68.1147C144.62 68.1147 145.605 69.1001 145.605 70.312C145.605 71.5239 144.62 72.5092 143.408 72.5092Z" fill="url(#paint0_radial_125_1903)"/>
<path d="M29.7367 76.2631V36.2914C37.7967 34.3859 46.1703 30.8348 54.6412 25.7274C67.1988 18.1571 82.8016 18.1571 95.3591 25.7274C99.1288 27.999 102.878 29.9617 106.589 31.6096C106.63 31.6291 106.672 31.6485 106.715 31.6645C111.302 33.6936 115.83 35.2431 120.264 36.2914V56.1514C120.264 57.3656 121.247 58.3486 122.461 58.3486C123.675 58.3486 124.658 57.3656 124.658 56.1514V35.4846C124.658 33.9133 123.576 32.532 122.083 32.2001C118.048 31.3029 113.915 29.9548 109.717 28.1764V12.8059C112.275 11.8984 114.111 9.45622 114.111 6.59177C114.111 2.95714 111.154 0 107.52 0C103.885 0 100.928 2.95714 100.928 6.59177C100.928 9.45622 102.766 11.8984 105.322 12.8059V26.1702C102.776 24.9217 100.209 23.5198 97.6285 21.9646C83.6713 13.5498 66.329 13.5509 52.373 21.9646C44.0051 27.0079 35.7769 30.4526 27.9171 32.2001C26.4248 32.532 25.3422 33.9133 25.3422 35.4846V48.7791H12.8064C11.8989 46.2214 9.4567 44.3846 6.59226 44.3846C2.95763 44.3846 0.000488281 47.3417 0.000488281 50.9764C0.000488281 54.611 2.95763 57.5681 6.59226 57.5681C9.4567 57.5681 11.8989 55.7314 12.8064 53.1736H25.3422V65.7712H19.6179C18.7104 63.2135 16.2682 61.3767 13.4038 61.3767C9.76913 61.3767 6.81198 64.3339 6.81198 67.9685C6.81198 71.6031 9.76913 74.5603 13.4038 74.5603C16.2682 74.5603 18.7104 72.7235 19.6179 70.1657H25.3422V76.2631C25.3422 86.7939 28.384 96.6713 34.1369 104.826C34.5649 105.433 35.2447 105.757 35.9348 105.757C36.372 105.757 36.8148 105.626 37.1994 105.355C38.1904 104.655 38.4273 103.284 37.7281 102.293C32.5004 94.8826 29.7367 85.8818 29.7367 76.2631ZM107.52 4.39451C108.732 4.39451 109.717 5.37985 109.717 6.59177C109.717 7.8037 108.732 8.78903 107.52 8.78903C106.308 8.78903 105.322 7.8037 105.322 6.59177C105.322 5.37985 106.308 4.39451 107.52 4.39451ZM6.59226 53.1736C5.38033 53.1736 4.395 52.1883 4.395 50.9764C4.395 49.7644 5.38033 48.7791 6.59226 48.7791C7.80418 48.7791 8.78952 49.7644 8.78952 50.9764C8.78952 52.1883 7.80418 53.1736 6.59226 53.1736ZM13.4038 70.1657C12.1918 70.1657 11.2065 69.1804 11.2065 67.9685C11.2065 66.7566 12.1918 65.7712 13.4038 65.7712C14.6157 65.7712 15.601 66.7566 15.601 67.9685C15.601 69.1804 14.6157 70.1657 13.4038 70.1657Z" fill="url(#paint1_radial_125_1903)"/>
<path d="M50.8282 37.8375C51.9154 37.2997 52.3617 35.9813 51.8238 34.8941C51.286 33.807 49.9676 33.3606 48.8793 33.8985C44.7217 35.955 40.5469 37.6613 36.4728 38.9705C35.072 39.4203 34.1313 40.7089 34.1313 42.1771V76.2632C34.1313 86.1726 37.4284 95.4732 43.4148 102.452C51.6098 112.003 61.8259 119.455 73.7804 124.605C74.1672 124.772 74.5838 124.856 75.0003 124.856C75.4169 124.856 75.8335 124.772 76.2214 124.605C88.1747 119.456 98.3897 112.004 106.584 102.454C112.571 95.4732 115.869 86.1726 115.869 76.2632V42.1771C115.869 40.7089 114.929 39.4203 113.528 38.9705C106.833 36.8202 99.9575 33.6307 93.0911 29.4914C87.6346 26.2012 81.3792 24.4629 75.0003 24.4629C68.6226 24.4629 62.3672 26.2012 56.9096 29.4914L56.4427 29.7718C55.4001 30.3932 55.0591 31.7424 55.6805 32.785C56.3019 33.8276 57.65 34.1686 58.6926 33.5472C58.8551 33.4499 59.0176 33.3526 59.1789 33.2554C63.9511 30.3783 69.4225 28.8574 75.0003 28.8574C80.5793 28.8574 86.0507 30.3783 90.8229 33.2554C97.7385 37.4244 104.683 40.6745 111.475 42.9233V76.2621C111.475 85.1232 108.553 93.4087 103.249 99.5919C95.6122 108.492 86.1102 115.472 75.0003 120.343C63.8893 115.471 54.3873 108.491 46.7507 99.5908C41.4464 93.4076 38.5259 85.1232 38.5259 76.2621V42.9233C42.5805 41.5809 46.7152 39.8712 50.8282 37.8375Z" fill="url(#paint2_radial_125_1903)"/>
<path d="M74.9999 51.416C68.9426 51.416 64.0136 56.3438 64.0136 62.4023V66.0644H63.2812C60.4545 66.0644 58.1543 68.3646 58.1543 71.1913V88.7694C58.1543 91.5961 60.4545 93.8963 63.2812 93.8963H86.7186C89.5453 93.8963 91.8456 91.5961 91.8456 88.7694V71.1913C91.8456 68.3646 89.5453 66.0644 86.7186 66.0644H85.9862V62.4023C85.9862 56.3438 81.0584 51.416 74.9999 51.416ZM68.4082 62.4023C68.4082 58.7677 71.3653 55.8105 74.9999 55.8105C78.6346 55.8105 81.5917 58.7677 81.5917 62.4023V66.0644H68.4082V62.4023ZM87.4511 71.1913V88.7694C87.4511 89.1734 87.1226 89.5018 86.7186 89.5018H63.2812C62.8773 89.5018 62.5488 89.1734 62.5488 88.7694V71.1913C62.5488 70.7874 62.8773 70.4589 63.2812 70.4589H86.7186C87.1226 70.4589 87.4511 70.7874 87.4511 71.1913Z" fill="url(#paint3_radial_125_1903)"/>
<path d="M75 71.1909C71.3653 71.1909 68.4082 74.1481 68.4082 77.7827C68.4082 80.6471 70.2461 83.0893 72.8027 83.9968V86.5717C72.8027 87.7848 73.7869 88.769 75 88.769C76.2142 88.769 77.1972 87.7848 77.1972 86.5717V83.9968C79.755 83.0893 81.5917 80.6471 81.5917 77.7827C81.5917 74.1481 78.6346 71.1909 75 71.1909ZM75 79.9799C73.788 79.9799 72.8027 78.9946 72.8027 77.7827C72.8027 76.5708 73.788 75.5854 75 75.5854C76.2119 75.5854 77.1972 76.5708 77.1972 77.7827C77.1972 78.9946 76.2119 79.9799 75 79.9799Z" fill="url(#paint4_radial_125_1903)"/>
</g>
<defs>
<radialGradient id="paint0_radial_125_1903" cx="0" cy="0" r="1" gradientUnits="userSpaceOnUse" gradientTransform="translate(94.6527 106.677) rotate(90) scale(43.3232 55.347)">
<stop stop-color="#0066FF"/>
<stop offset="1" stop-color="#80CBC4"/>
</radialGradient>
<radialGradient id="paint1_radial_125_1903" cx="0" cy="0" r="1" gradientUnits="userSpaceOnUse" gradientTransform="translate(62.3293 52.8784) rotate(90) scale(52.8784 62.3289)">
<stop stop-color="#0066FF"/>
<stop offset="1" stop-color="#80CBC4"/>
</radialGradient>
<radialGradient id="paint2_radial_125_1903" cx="0" cy="0" r="1" gradientUnits="userSpaceOnUse" gradientTransform="translate(75.0003 74.6593) rotate(90) scale(50.1965 40.869)">
<stop stop-color="#0066FF"/>
<stop offset="1" stop-color="#80CBC4"/>
</radialGradient>
<radialGradient id="paint3_radial_125_1903" cx="0" cy="0" r="1" gradientUnits="userSpaceOnUse" gradientTransform="translate(74.9999 72.6562) rotate(90) scale(21.2402 16.8456)">
<stop stop-color="#0066FF"/>
<stop offset="1" stop-color="#80CBC4"/>
</radialGradient>
<radialGradient id="paint4_radial_125_1903" cx="0" cy="0" r="1" gradientUnits="userSpaceOnUse" gradientTransform="translate(75 79.9799) rotate(90) scale(8.78903 6.59177)">
<stop stop-color="#0066FF"/>
<stop offset="1" stop-color="#80CBC4"/>
</radialGradient>
<clipPath id="clip0_125_1903">
<rect width="150" height="150" fill="white"/>
</clipPath>
</defs>
</svg>
