<svg width="150" height="150" viewBox="0 0 150 150" fill="none" xmlns="http://www.w3.org/2000/svg">
<path d="M15.78 88.9313L19.5088 90.9703C22.9775 92.8673 25.8135 95.7032 27.7104 99.172L29.7495 102.901C30.0125 103.381 30.5171 103.681 31.0657 103.681C31.6143 103.681 32.1189 103.381 32.3818 102.901L34.4209 99.172C36.3179 95.7032 39.1538 92.8673 42.6226 90.9703L46.3513 88.9313C46.8318 88.6683 47.1313 88.1637 47.1313 87.6151C47.1313 87.0665 46.8318 86.5619 46.3513 86.2989L42.6226 84.2599C39.1538 82.3629 36.3179 79.527 34.4209 76.0582L32.3818 72.3302C31.856 71.3678 30.2754 71.3678 29.7495 72.3302L27.7104 76.0582C25.8135 79.527 22.9775 82.3629 19.5088 84.2599L15.78 86.2989C15.2996 86.5619 15 87.0665 15 87.6151C15 88.1637 15.2996 88.6683 15.78 88.9313ZM20.9487 86.8922C24.9214 84.7191 28.1697 81.4708 30.3428 77.4982L31.0657 76.1761L31.7886 77.4982C33.9617 81.4708 37.21 84.7191 41.1826 86.8922L42.5054 87.6151L41.1826 88.338C37.21 90.5111 33.9617 93.7594 31.7886 97.7321L31.0657 99.0548L30.3428 97.7321C28.1697 93.7594 24.9214 90.5111 20.9487 88.338L19.626 87.6151L20.9487 86.8922Z" fill="url(#paint0_linear_123_1878)"/>
<path d="M134.22 78.3253L131.018 76.5741C128.074 74.9642 125.667 72.5575 124.058 69.6139L122.306 66.4117C121.781 65.4493 120.2 65.4493 119.674 66.4117L117.923 69.6139C116.313 72.5575 113.906 74.9642 110.963 76.5741L107.76 78.3253C107.279 78.5883 106.98 79.0929 106.98 79.6415C106.98 80.1901 107.279 80.6947 107.76 80.9576L110.963 82.7089C113.906 84.3187 116.313 86.7255 117.923 89.6691L119.674 92.8712C119.937 93.3524 120.442 93.6512 120.99 93.6512C121.539 93.6512 122.043 93.3524 122.306 92.8712L124.058 89.6691C125.667 86.7255 128.074 84.3187 131.018 82.7089L134.22 80.9576C134.701 80.6947 135 80.1901 135 79.6415C135 79.0929 134.701 78.5883 134.22 78.3253ZM129.578 80.0765C126.13 81.9625 123.311 84.7816 121.425 88.2291L120.99 89.0253L120.555 88.2291C118.669 84.7816 115.85 81.9625 112.403 80.0765L111.606 79.6415L112.403 79.2064C115.85 77.3204 118.669 74.5013 120.555 71.0538L120.99 70.2577L121.425 71.0538C123.311 74.5013 126.13 77.3204 129.578 79.2064L130.374 79.6415L129.578 80.0765Z" fill="url(#paint1_linear_123_1878)"/>
<path d="M119.866 35.4863C120.04 35.4972 120.213 35.5024 120.385 35.5024C122.353 35.5024 124.23 34.7919 125.718 33.4728C129.056 30.5146 129.381 25.3759 126.441 22.0185C125.014 20.3881 123.039 19.4147 120.883 19.2785C118.723 19.143 116.649 19.8564 115.029 21.2919C111.691 24.2494 111.367 29.3874 114.307 32.7455C115.734 34.3759 117.709 35.3493 119.866 35.4863ZM117.018 23.5375C117.954 22.7084 119.132 22.2616 120.367 22.2616C120.475 22.2616 120.584 22.2653 120.693 22.2719C122.046 22.3583 123.286 22.9699 124.184 23.9946C126.04 26.1149 125.836 29.3595 123.729 31.2272C122.712 32.1281 121.402 32.5763 120.056 32.4921C118.701 32.4064 117.462 31.7941 116.564 30.7695C114.707 28.6484 114.911 25.4045 117.018 23.5375Z" fill="url(#paint2_linear_123_1878)"/>
<path d="M29.2777 35.4863C29.4513 35.4972 29.6248 35.5024 29.797 35.5024C31.7642 35.5024 33.6414 34.7919 35.1297 33.4728C38.4681 30.5146 38.7926 25.3759 35.8526 22.0185C34.4251 20.3881 32.4505 19.4147 30.2943 19.2785C28.1292 19.143 26.0609 19.8564 24.4408 21.2919C21.1024 24.2502 20.7786 29.3881 23.7186 32.7455C25.1461 34.3759 27.1207 35.3493 29.2777 35.4863ZM26.43 23.5375C27.3653 22.7084 28.5438 22.2616 29.7786 22.2616C29.887 22.2616 29.9954 22.2653 30.1046 22.2719C31.4581 22.3583 32.6981 22.9699 33.5953 23.9946C35.452 26.1149 35.2476 29.3595 33.1405 31.2272C32.1231 32.1281 30.8128 32.5763 29.4674 32.4921C28.1131 32.4064 26.8731 31.7941 25.9759 30.7695C24.1192 28.6491 24.3228 25.4045 26.43 23.5375Z" fill="url(#paint3_linear_123_1878)"/>
<path d="M37.0407 134.974C37.248 134.988 37.4538 134.993 37.6596 134.993C40.0041 134.993 42.2402 134.147 44.0141 132.575C47.9934 129.049 48.3801 122.925 44.8755 118.923C43.174 116.979 40.8222 115.82 38.2522 115.657C35.685 115.501 33.2087 116.347 31.2788 118.057C27.2995 121.582 26.9135 127.706 30.4174 131.708C32.1189 133.652 34.4707 134.811 37.0407 134.974ZM33.268 120.302C34.489 119.221 36.0263 118.638 37.6377 118.638C37.779 118.638 37.9204 118.643 38.0625 118.652C39.8291 118.764 41.447 119.561 42.6181 120.899C45.0395 123.664 44.7729 127.894 42.0249 130.329C40.6977 131.506 39.0007 132.092 37.2304 131.98C35.4638 131.868 33.8459 131.07 32.6748 129.732C30.2534 126.968 30.52 122.737 33.268 120.302Z" fill="url(#paint4_linear_123_1878)"/>
<path d="M117.217 109.255C114.644 109.099 112.172 109.944 110.242 111.654C106.263 115.18 105.877 121.304 109.381 125.306C111.082 127.249 113.434 128.409 116.004 128.571C116.211 128.585 116.418 128.591 116.624 128.591C118.967 128.591 121.204 127.745 122.978 126.173C126.957 122.646 127.343 116.522 123.839 112.52C122.138 110.578 119.786 109.419 117.217 109.255ZM120.989 123.927C119.66 125.103 117.949 125.686 116.194 125.577C114.427 125.465 112.809 124.667 111.638 123.33C109.217 120.565 109.483 116.335 112.231 113.9C113.452 112.819 114.99 112.235 116.601 112.235C116.742 112.235 116.884 112.241 117.027 112.249C118.793 112.361 120.411 113.16 121.582 114.496C124.003 117.261 123.737 121.492 120.989 123.927Z" fill="url(#paint5_linear_123_1878)"/>
<path d="M56.9782 95.9809H56.5015C53.1924 95.9809 50.5 98.6733 50.5 101.982C50.5 104.701 52.3288 106.977 54.8125 107.712V120.546C54.8125 123.549 57.2544 125.99 60.2558 125.99H60.5561V127.997C60.5561 131.855 63.6946 134.993 67.553 134.993H82.4468C86.3052 134.993 89.4436 131.855 89.4436 127.997V125.99H89.7432C92.7453 125.99 95.1872 123.549 95.1872 120.546V107.712C97.6711 106.977 99.4997 104.701 99.4997 101.982C99.4997 98.6733 96.8074 95.9809 93.4975 95.9809H93.0224C93.3583 88.1863 96.2679 80.9459 101.364 75.4694C107.582 68.7875 111.006 60.079 111.006 50.9465C111.006 41.05 106.869 31.4853 99.6543 24.7045C92.3389 17.8293 82.769 14.3803 72.7048 15.0109C54.5195 16.1403 39.7239 31.3 39.0207 49.5234C38.6465 59.2411 42.0925 68.4902 48.7253 75.5661C53.7673 80.9455 56.6463 88.1528 56.9782 95.9809ZM86.4436 127.997C86.4436 130.2 84.6506 131.993 82.4468 131.993H67.553C65.3491 131.993 63.5561 130.2 63.5561 127.997V125.99H86.4436V127.997ZM89.7432 122.99H60.2558C58.9089 122.99 57.8125 121.894 57.8125 120.546V107.984H92.1872V120.546C92.1872 121.894 91.0908 122.99 89.7432 122.99ZM96.4997 101.982C96.4997 103.638 95.1528 104.984 93.4975 104.984H56.5015C54.8462 104.984 53.5 103.638 53.5 101.982C53.5 100.327 54.8462 98.9809 56.5015 98.9809H93.4975C95.1528 98.9809 96.4997 100.327 96.4997 101.982ZM67.9499 57.3727H62.6062C59.6597 57.3727 57.2624 54.9755 57.2624 52.029C57.2624 49.0824 59.6597 46.6852 62.6062 46.6852C65.5527 46.6852 67.9499 49.0824 67.9499 52.029V57.3727ZM79.0498 95.9809H70.9499V60.3727H79.0498V95.9809ZM72.8909 18.0051C82.1172 17.4367 90.8945 20.589 97.5998 26.8908C104.31 33.1977 108.006 41.7414 108.006 50.9465C108.006 59.318 104.867 67.3014 99.168 73.426C93.5549 79.4577 90.3619 87.4236 90.0227 95.9809H82.0498V60.3727H87.3935C91.9946 60.3727 95.7373 56.6301 95.7373 52.029C95.7373 47.4279 91.9946 43.6852 87.3935 43.6852C82.7925 43.6852 79.0498 47.4279 79.0498 52.029V57.3727H70.9499V52.029C70.9499 47.4279 67.2073 43.6852 62.6062 43.6852C58.0051 43.6852 54.2624 47.4279 54.2624 52.029C54.2624 56.6301 58.0051 60.3727 62.6062 60.3727H67.9499V95.9809H59.9778C59.6422 87.3856 56.4776 79.45 50.9138 73.5138C44.834 67.0283 41.675 58.549 42.0178 49.6391C42.6631 32.9355 56.2239 19.0407 72.8909 18.0051ZM82.0498 57.3727V52.029C82.0498 49.0824 84.447 46.6852 87.3935 46.6852C90.3401 46.6852 92.7373 49.0824 92.7373 52.029C92.7373 54.9755 90.3401 57.3727 87.3935 57.3727H82.0498Z" fill="url(#paint6_linear_123_1878)"/>
<defs>
<linearGradient id="paint0_linear_123_1878" x1="31.0657" y1="71.6084" x2="31.0657" y2="103.681" gradientUnits="userSpaceOnUse">
<stop stop-color="#968700"/>
<stop offset="1" stop-color="white"/>
</linearGradient>
<linearGradient id="paint1_linear_123_1878" x1="120.99" y1="65.6899" x2="120.99" y2="93.6512" gradientUnits="userSpaceOnUse">
<stop stop-color="#968700"/>
<stop offset="1" stop-color="white"/>
</linearGradient>
<linearGradient id="paint2_linear_123_1878" x1="120.374" y1="19.2622" x2="120.374" y2="35.5024" gradientUnits="userSpaceOnUse">
<stop stop-color="#968700"/>
<stop offset="1" stop-color="white"/>
</linearGradient>
<linearGradient id="paint3_linear_123_1878" x1="29.7854" y1="19.2622" x2="29.7854" y2="35.5024" gradientUnits="userSpaceOnUse">
<stop stop-color="#968700"/>
<stop offset="1" stop-color="white"/>
</linearGradient>
<linearGradient id="paint4_linear_123_1878" x1="37.6466" y1="115.639" x2="37.6466" y2="134.993" gradientUnits="userSpaceOnUse">
<stop stop-color="#968700"/>
<stop offset="1" stop-color="white"/>
</linearGradient>
<linearGradient id="paint5_linear_123_1878" x1="116.61" y1="109.237" x2="116.61" y2="128.591" gradientUnits="userSpaceOnUse">
<stop stop-color="#968700"/>
<stop offset="1" stop-color="white"/>
</linearGradient>
<linearGradient id="paint6_linear_123_1878" x1="74.9996" y1="14.9375" x2="74.9996" y2="134.993" gradientUnits="userSpaceOnUse">
<stop stop-color="#968700"/>
<stop offset="1" stop-color="white"/>
</linearGradient>
</defs>
</svg>
