<svg width="41" height="40" viewBox="0 0 41 40" fill="none" xmlns="http://www.w3.org/2000/svg">
<path d="M20.5 9.09093C23.0062 9.09093 25.0454 7.05169 25.0454 4.54551C25.0454 2.03932 23.0062 0 20.5 0C17.9938 0 15.9546 2.03923 15.9546 4.54542C15.9546 7.05161 17.9937 9.09093 20.5 9.09093ZM20.5 1.81815C22.0039 1.81815 23.2273 3.0415 23.2273 4.54542C23.2273 6.04934 22.0039 7.27269 20.5 7.27269C18.9961 7.27269 17.7727 6.04934 17.7727 4.54542C17.7727 3.0415 18.9961 1.81815 20.5 1.81815Z" fill="url(#paint0_radial_660_5516)"/>
<path d="M14.2659 18.1818H26.7339C27.8081 18.1818 28.6817 17.2389 28.6817 16.0795V15.4971C28.6817 13.9781 27.9298 12.5906 26.7179 11.8758C25.2664 11.02 23.0097 10 20.4999 10C17.9902 10 15.7334 11.0201 14.2819 11.8758C13.0701 12.5905 12.3181 13.9781 12.3181 15.4971V16.0795C12.3181 17.239 13.1917 18.1818 14.2659 18.1818ZM14.1363 15.4971C14.1363 14.6316 14.5562 13.8254 15.2052 13.4419C16.4614 12.7014 18.4004 11.8182 20.4999 11.8182C22.5995 11.8182 24.5384 12.7015 25.7947 13.4419C26.4437 13.8254 26.8636 14.6315 26.8636 15.4971V16.0795C26.8636 16.2686 26.7562 16.3636 26.7339 16.3636H14.2659C14.2437 16.3636 14.1363 16.2685 14.1363 16.0795V15.4971Z" fill="url(#paint1_radial_660_5516)"/>
<path d="M8.68189 30.909C11.1881 30.909 13.2273 28.8698 13.2273 26.3636C13.2273 23.8574 11.1881 21.8181 8.68189 21.8181C6.1757 21.8181 4.13647 23.8573 4.13647 26.3635C4.13647 28.8697 6.1757 30.909 8.68189 30.909ZM8.68189 23.6363C10.1858 23.6363 11.4092 24.8596 11.4092 26.3635C11.4092 27.8675 10.1858 29.0908 8.68189 29.0908C7.17798 29.0908 5.95463 27.8675 5.95463 26.3635C5.95463 24.8596 7.17798 23.6363 8.68189 23.6363Z" fill="url(#paint2_radial_660_5516)"/>
<path d="M14.8998 33.6942C13.4483 32.8384 11.1916 31.8184 8.68181 31.8184C6.17204 31.8184 3.91531 32.8384 2.4638 33.6942C1.25196 34.4088 0.5 35.7964 0.5 37.3154V37.8978C0.5 39.0572 1.37358 40.0001 2.44778 40.0001H14.9158C15.99 40.0001 16.8636 39.0572 16.8636 37.8978V37.3154C16.8636 35.7964 16.1117 34.4088 14.8998 33.6942ZM15.0455 37.8979C15.0455 38.087 14.9381 38.1819 14.9158 38.1819H2.44778C2.42562 38.1819 2.31815 38.0869 2.31815 37.8979V37.3155C2.31815 36.4499 2.73807 35.6438 3.38707 35.2603C4.64332 34.5198 6.58224 33.6365 8.68181 33.6365C10.7814 33.6365 12.7203 34.5199 13.9765 35.2603C14.6255 35.6438 15.0455 36.4499 15.0455 37.3155V37.8979Z" fill="url(#paint3_radial_660_5516)"/>
<path d="M32.3181 30.909C34.8243 30.909 36.8635 28.8698 36.8635 26.3636C36.8635 23.8574 34.8244 21.8181 32.3181 21.8181C29.8119 21.8181 27.7727 23.8573 27.7727 26.3635C27.7727 28.8697 29.8119 30.909 32.3181 30.909ZM32.3181 23.6363C33.822 23.6363 35.0454 24.8596 35.0454 26.3635C35.0454 27.8675 33.822 29.0908 32.3181 29.0908C30.8142 29.0908 29.5909 27.8675 29.5909 26.3635C29.5909 24.8596 30.8143 23.6363 32.3181 23.6363Z" fill="url(#paint4_radial_660_5516)"/>
<path d="M38.536 33.6942C37.0845 32.8384 34.8278 31.8184 32.318 31.8184C29.8083 31.8184 27.5515 32.8384 26.1 33.6942C24.8882 34.4088 24.1362 35.7965 24.1362 37.3155V37.8979C24.1362 39.0573 25.0098 40.0002 26.084 40.0002H38.5521C39.6263 40.0002 40.4998 39.0573 40.4998 37.8979V37.3155C40.4998 35.7964 39.7478 34.4088 38.536 33.6942ZM38.6816 37.8979C38.6816 38.087 38.5742 38.1819 38.552 38.1819H26.0839C26.0618 38.1819 25.9543 38.0869 25.9543 37.8979V37.3155C25.9543 36.4499 26.3742 35.6438 27.0232 35.2603C28.2795 34.5198 30.2184 33.6365 32.318 33.6365C34.4175 33.6365 36.3564 34.5199 37.6127 35.2603C38.2617 35.6438 38.6816 36.4499 38.6816 37.3155V37.8979Z" fill="url(#paint5_radial_660_5516)"/>
<path d="M25.0446 30.9093C25.3118 30.9093 25.5755 30.7921 25.7557 30.5684C26.0691 30.176 26.0052 29.6042 25.6137 29.29L21.4092 25.9264V20.9094C21.4092 20.4069 21.0025 20.0002 20.5 20.0002C19.9975 20.0002 19.5909 20.4068 19.5909 20.9093V25.927L15.3864 29.2899C14.9949 29.6042 14.931 30.1759 15.2443 30.5683C15.4246 30.792 15.6882 30.9092 15.9555 30.9092C16.1543 30.9092 16.355 30.8445 16.5227 30.7104L20.5 27.5286L24.4773 30.7104C24.6451 30.8445 24.8457 30.9093 25.0446 30.9093Z" fill="url(#paint6_radial_660_5516)"/>
<defs>
<radialGradient id="paint0_radial_660_5516" cx="0" cy="0" r="1" gradientUnits="userSpaceOnUse" gradientTransform="translate(20.8409 5.45758) rotate(91.0929) scale(11.9154 11.9167)">
<stop stop-color="#7C12E5"/>
<stop offset="1"/>
</radialGradient>
<radialGradient id="paint1_radial_660_5516" cx="0" cy="0" r="1" gradientUnits="userSpaceOnUse" gradientTransform="translate(21.1136 14.9118) rotate(92.185) scale(10.7297 21.4385)">
<stop stop-color="#7C12E5"/>
<stop offset="1"/>
</radialGradient>
<radialGradient id="paint2_radial_660_5516" cx="0" cy="0" r="1" gradientUnits="userSpaceOnUse" gradientTransform="translate(9.0228 27.2757) rotate(91.0929) scale(11.9154 11.9167)">
<stop stop-color="#7C12E5"/>
<stop offset="1"/>
</radialGradient>
<radialGradient id="paint3_radial_660_5516" cx="0" cy="0" r="1" gradientUnits="userSpaceOnUse" gradientTransform="translate(9.29544 36.7301) rotate(92.1851) scale(10.7296 21.4385)">
<stop stop-color="#7C12E5"/>
<stop offset="1"/>
</radialGradient>
<radialGradient id="paint4_radial_660_5516" cx="0" cy="0" r="1" gradientUnits="userSpaceOnUse" gradientTransform="translate(32.659 27.2757) rotate(91.0929) scale(11.9154 11.9167)">
<stop stop-color="#7C12E5"/>
<stop offset="1"/>
</radialGradient>
<radialGradient id="paint5_radial_660_5516" cx="0" cy="0" r="1" gradientUnits="userSpaceOnUse" gradientTransform="translate(32.9317 36.7302) rotate(92.185) scale(10.7297 21.4385)">
<stop stop-color="#7C12E5"/>
<stop offset="1"/>
</radialGradient>
<radialGradient id="paint6_radial_660_5516" cx="0" cy="0" r="1" gradientUnits="userSpaceOnUse" gradientTransform="translate(20.9091 26.5493) rotate(91.0929) scale(14.2985 14.3004)">
<stop stop-color="#7C12E5"/>
<stop offset="1"/>
</radialGradient>
</defs>
</svg>
