<svg width="26" height="25" viewBox="0 0 26 25" fill="none" xmlns="http://www.w3.org/2000/svg">
<g clip-path="url(#clip0_714_10499)">
<path d="M12.8088 5.66538C14.3685 5.66538 15.6376 4.39628 15.6376 2.83656C15.6376 1.27685 14.3685 0.00769043 12.8088 0.00769043C11.2491 0.00769043 9.97998 1.2768 9.97998 2.83651C9.97998 4.39623 11.249 5.66538 12.8088 5.66538ZM12.8088 1.13921C13.7448 1.13921 14.5061 1.90055 14.5061 2.83651C14.5061 3.77247 13.7448 4.53381 12.8088 4.53381C11.8728 4.53381 11.1115 3.77247 11.1115 2.83651C11.1115 1.90055 11.8728 1.13921 12.8088 1.13921Z" fill="#646472"/>
<path d="M8.92899 11.323H16.6884C17.3569 11.323 17.9006 10.7362 17.9006 10.0146V9.6522C17.9006 8.70686 17.4326 7.8433 16.6784 7.3985C15.7751 6.86587 14.3706 6.23108 12.8087 6.23108C11.2468 6.23108 9.8423 6.86592 8.93896 7.3985C8.18477 7.84325 7.7168 8.70686 7.7168 9.6522V10.0146C7.7168 10.7362 8.26046 11.323 8.92899 11.323ZM8.84831 9.6522C8.84831 9.11352 9.10965 8.61181 9.51355 8.37313C10.2954 7.91231 11.502 7.3626 12.8087 7.3626C14.1154 7.3626 15.322 7.91236 16.1039 8.37313C16.5078 8.61181 16.7691 9.11347 16.7691 9.6522V10.0146C16.7691 10.1323 16.7023 10.1914 16.6884 10.1914H8.92899C8.9152 10.1914 8.84831 10.1323 8.84831 10.0146V9.6522Z" fill="#646472"/>
<path d="M5.45382 19.2436C7.01353 19.2436 8.28264 17.9745 8.28264 16.4148C8.28264 14.8551 7.01353 13.5859 5.45382 13.5859C3.8941 13.5859 2.625 14.855 2.625 16.4148C2.625 17.9745 3.8941 19.2436 5.45382 19.2436ZM5.45382 14.7175C6.38978 14.7175 7.15112 15.4788 7.15112 16.4148C7.15112 17.3507 6.38978 18.1121 5.45382 18.1121C4.51786 18.1121 3.75652 17.3507 3.75652 16.4148C3.75652 15.4788 4.51786 14.7175 5.45382 14.7175Z" fill="#646472"/>
<path d="M9.32347 20.977C8.42013 20.4444 7.01567 19.8096 5.45372 19.8096C3.89178 19.8096 2.48732 20.4444 1.58398 20.977C0.829794 21.4217 0.361816 22.2853 0.361816 23.2306V23.5931C0.361816 24.3146 0.905484 24.9014 1.57401 24.9014H9.33344C10.002 24.9014 10.5456 24.3146 10.5456 23.5931V23.2306C10.5456 22.2853 10.0777 21.4217 9.32347 20.977ZM9.41411 23.5931C9.41411 23.7108 9.34728 23.7699 9.33344 23.7699H1.57401C1.56022 23.7699 1.49333 23.7108 1.49333 23.5931V23.2307C1.49333 22.692 1.75467 22.1903 2.15857 21.9516C2.94039 21.4908 4.14707 20.9411 5.45372 20.9411C6.76038 20.9411 7.96706 21.4909 8.74888 21.9516C9.15278 22.1903 9.41411 22.692 9.41411 23.2307V23.5931Z" fill="#646472"/>
<path d="M20.1638 19.2436C21.7235 19.2436 22.9926 17.9745 22.9926 16.4148C22.9926 14.8551 21.7235 13.5859 20.1638 13.5859C18.604 13.5859 17.335 14.855 17.335 16.4148C17.335 17.9745 18.6041 19.2436 20.1638 19.2436ZM20.1638 14.7175C21.0997 14.7175 21.8611 15.4788 21.8611 16.4148C21.8611 17.3507 21.0997 18.1121 20.1638 18.1121C19.2278 18.1121 18.4665 17.3507 18.4665 16.4148C18.4665 15.4788 19.2279 14.7175 20.1638 14.7175Z" fill="#646472"/>
<path d="M24.0334 20.977C23.1301 20.4444 21.7256 19.8096 20.1637 19.8096C18.6017 19.8096 17.1973 20.4444 16.2939 20.977C15.5398 21.4217 15.0718 22.2854 15.0718 23.2307V23.5931C15.0718 24.3147 15.6154 24.9015 16.284 24.9015H24.0434C24.7119 24.9015 25.2556 24.3147 25.2556 23.5931V23.2307C25.2555 22.2853 24.7876 21.4217 24.0334 20.977ZM24.124 23.5931C24.124 23.7108 24.0572 23.7699 24.0433 23.7699H16.2839C16.2701 23.7699 16.2032 23.7108 16.2032 23.5931V23.2307C16.2032 22.692 16.4646 22.1903 16.8685 21.9516C17.6503 21.4908 18.857 20.9411 20.1636 20.9411C21.4703 20.9411 22.677 21.4909 23.4588 21.9516C23.8627 22.1903 24.124 22.692 24.124 23.2307V23.5931Z" fill="#646472"/>
<path d="M15.637 19.2437C15.8033 19.2437 15.9674 19.1707 16.0796 19.0315C16.2746 18.7873 16.2348 18.4315 15.9912 18.2359L13.3745 16.1426V13.0203C13.3745 12.7075 13.1215 12.4545 12.8087 12.4545C12.496 12.4545 12.2429 12.7075 12.2429 13.0202V16.143L9.62628 18.2359C9.38262 18.4315 9.34283 18.7873 9.53787 19.0315C9.65005 19.1707 9.8141 19.2436 9.98044 19.2436C10.1042 19.2436 10.2291 19.2033 10.3335 19.1199L12.8087 17.1397L15.2839 19.1199C15.3884 19.2033 15.5132 19.2437 15.637 19.2437Z" fill="#646472"/>
</g>
<defs>
<clipPath id="clip0_714_10499">
<rect width="24.8938" height="24.8938" fill="white" transform="translate(0.361816 0.00756836)"/>
</clipPath>
</defs>
</svg>
