<svg width="50" height="50" viewBox="0 0 50 50" fill="none" xmlns="http://www.w3.org/2000/svg">
<g clip-path="url(#clip0_125_2080)">
<path d="M49.4654 39.132L48.3151 38.6244C48.2703 38.4633 48.2216 38.3088 48.1696 38.1582L48.8105 37.0536C48.9578 36.7989 48.9603 36.4857 48.8171 36.2288C48.4799 35.6283 48.0778 35.0666 47.618 34.5538C47.4165 34.3272 47.1073 34.2288 46.8119 34.2976L45.6015 34.5741C45.4827 34.4814 45.3606 34.3914 45.2354 34.3041L45.1182 33.0204C45.0914 32.7242 44.9083 32.4649 44.6383 32.3404C44.0209 32.052 43.3728 31.8345 42.7064 31.692C42.4094 31.6287 42.1016 31.733 41.9043 31.9637L41.0566 32.948H40.6499L39.8023 31.9637C39.6055 31.7321 39.2972 31.6277 39.0002 31.692C38.3338 31.8345 37.6857 32.0519 37.0682 32.3404C36.7981 32.4649 36.6152 32.7243 36.5883 33.0204L36.4712 34.3041C36.3459 34.3911 36.2239 34.4811 36.1051 34.5741L34.8947 34.2976C34.5993 34.2292 34.2902 34.3275 34.0886 34.5538C33.6287 35.0665 33.2268 35.6286 32.8903 36.2296C32.7472 36.4862 32.7495 36.7992 32.8968 37.0536L33.5369 38.1575C33.4849 38.308 33.4363 38.4636 33.3914 38.6244L32.2411 39.132C31.939 39.265 31.7439 39.564 31.7441 39.8942V41.7797C31.7439 42.1099 31.939 42.4089 32.2411 42.5419L33.3914 43.0495C33.4361 43.2106 33.4849 43.3651 33.5369 43.5157L32.8959 44.6204C32.7487 44.875 32.7462 45.1883 32.8894 45.4453C33.2265 46.0457 33.6287 46.6074 34.0885 47.1202C34.2901 47.3469 34.5998 47.4453 34.8954 47.3764L36.1042 47.099C36.223 47.1925 36.3457 47.2829 36.471 47.37L36.5881 48.6536C36.615 48.9498 36.798 49.2091 37.068 49.3336C37.6855 49.622 38.3335 49.8395 39 49.982C39.297 50.0451 39.6047 49.9408 39.8021 49.7103L40.6497 48.726H41.0564L41.9041 49.7103C42.0623 49.8943 42.2928 50.0001 42.5354 49.9999C42.5928 50 42.65 49.9939 42.7063 49.982C43.3727 49.8395 44.0208 49.6221 44.6382 49.3336C44.9083 49.2091 45.0913 48.9497 45.1181 48.6536L45.2353 47.37C45.3605 47.2829 45.4826 47.1928 45.6014 47.0999L46.8118 47.3764C47.1072 47.4453 47.4165 47.3469 47.6179 47.1202C48.0776 46.6075 48.4797 46.0457 48.817 45.4453C48.9602 45.1883 48.9577 44.8751 48.8104 44.6204L48.1695 43.5158C48.2215 43.3653 48.2703 43.2107 48.315 43.0496L49.4653 42.542C49.7674 42.409 49.9624 42.11 49.9622 41.7798V39.8942C49.9625 39.5641 49.7675 39.265 49.4654 39.132ZM47.2707 41.6896C47.0293 41.7957 46.8527 42.0099 46.7948 42.2671C46.7187 42.6102 46.6137 42.9463 46.4808 43.2717C46.3815 43.5118 46.3995 43.7845 46.5296 44.0095L47.1226 45.0313C46.9884 45.2395 46.8436 45.4423 46.6882 45.6398L45.5721 45.3843C45.3109 45.3233 45.0363 45.3931 44.836 45.5715C44.5765 45.7991 44.2985 46.0045 44.0047 46.1856C43.7818 46.3232 43.6366 46.5576 43.6125 46.8184L43.5044 48.0077C43.2807 48.0956 43.0561 48.172 42.8325 48.2355L42.0694 47.3497C41.9112 47.1659 41.6808 47.0602 41.4382 47.0601H40.2685C40.026 47.0602 39.7956 47.166 39.6373 47.3497L38.8743 48.2355C38.6507 48.1721 38.4261 48.0956 38.2024 48.0077L38.0943 46.8184C38.0702 46.5576 37.9251 46.3232 37.7021 46.1856C37.4084 46.0047 37.1306 45.7992 36.8715 45.5715C36.6702 45.3936 36.3956 45.3236 36.1337 45.3835L35.0185 45.6389C34.8631 45.4429 34.7183 45.2395 34.5841 45.0313L35.1771 44.0095C35.3071 43.7845 35.3252 43.5119 35.2259 43.2717C35.093 42.9463 34.988 42.6102 34.9119 42.2671C34.8539 42.0099 34.6773 41.7957 34.436 41.6896L33.4102 41.2373V40.4368L34.436 39.9845C34.6774 39.8783 34.854 39.6641 34.9119 39.4069C34.9881 39.0633 35.0931 38.7267 35.2259 38.4006C35.3252 38.1607 35.3072 37.8884 35.1771 37.6637L34.5848 36.6419C34.7182 36.4345 34.863 36.2312 35.0184 36.0343L36.1345 36.2897C36.3957 36.3497 36.6699 36.2801 36.8706 36.1026C37.1301 35.8749 37.4081 35.6695 37.7019 35.4884C37.9247 35.3508 38.07 35.1164 38.094 34.8556L38.2022 33.6663C38.4259 33.5784 38.6505 33.502 38.8741 33.4385L39.6371 34.3244C39.7954 34.5081 40.0258 34.6138 40.2684 34.6139H41.4381C41.6806 34.6138 41.9111 34.508 42.0694 34.3244L42.8325 33.4385C43.0561 33.5019 43.2807 33.5784 43.5044 33.6663L43.6125 34.8556C43.6366 35.1164 43.7818 35.3508 44.0047 35.4884C44.2985 35.6695 44.5765 35.8749 44.836 36.1026C45.0367 36.2802 45.311 36.3499 45.5721 36.2897L46.6882 36.0343C46.8436 36.2312 46.9884 36.4339 47.1226 36.6427L46.5296 37.6645C46.3996 37.8895 46.3815 38.1621 46.4808 38.4023C46.6137 38.7277 46.7187 39.0638 46.7948 39.4069C46.8528 39.6641 47.0294 39.8783 47.2707 39.9845L48.2965 40.4368V41.2373L47.2707 41.6896Z" fill="url(#paint0_linear_125_2080)"/>
<path d="M40.8534 36.6719C38.5532 36.6719 36.6885 38.5366 36.6885 40.8368C36.6885 43.1369 38.5532 45.0017 40.8534 45.0017C43.1535 45.0017 45.0183 43.1369 45.0183 40.8368C45.0156 38.5377 43.1525 36.6746 40.8534 36.6719ZM40.8534 43.3357C39.4732 43.3357 38.3544 42.2169 38.3544 40.8368C38.3544 39.4566 39.4732 38.3378 40.8534 38.3378C42.2335 38.3378 43.3523 39.4566 43.3523 40.8368C43.3507 42.2163 42.2329 43.3343 40.8534 43.3357Z" fill="url(#paint1_linear_125_2080)"/>
<path d="M23.3609 3.35303C16.4603 3.35303 10.8662 8.94711 10.8662 15.8477C10.8737 22.7452 16.4634 28.3349 23.3609 28.3424C30.2615 28.3424 35.8556 22.7483 35.8556 15.8477C35.8556 8.94711 30.2615 3.35303 23.3609 3.35303ZM12.9823 18.9347C11.2762 13.2039 14.5389 7.17515 20.2697 5.469C21.2729 5.17038 22.3142 5.01878 23.3609 5.01899C24.4064 5.01992 25.4462 5.17298 26.4476 5.47317C26.2442 5.60728 26.0326 5.73701 25.8444 5.87883C25.5594 6.09343 25.4427 6.46566 25.554 6.80458L25.9364 7.96867C25.7794 8.11673 25.6257 8.27042 25.4776 8.42743L24.3144 8.0451C23.9758 7.93566 23.6052 8.05176 23.3894 8.33466C22.774 9.14296 22.2595 10.0233 21.8577 10.9565C21.7177 11.2847 21.8025 11.6654 22.0683 11.9034L22.9948 12.7331C22.9314 12.9405 22.8753 13.1496 22.8256 13.3587L21.6184 13.6125C21.2331 13.6937 20.9571 14.0337 20.957 14.4276V17.2682C20.9571 17.6621 21.233 18.002 21.6184 18.0832L22.8256 18.3371C22.8753 18.5462 22.9314 18.7552 22.994 18.9626L22.0682 19.7924C21.8024 20.0303 21.7176 20.4111 21.8576 20.7393C22.2594 21.6718 22.7732 22.5518 23.3877 23.3603C23.6023 23.6452 23.9745 23.7621 24.3134 23.6507L25.4775 23.2683C25.6256 23.4253 25.7792 23.579 25.9363 23.7271L25.5539 24.8903C25.4429 25.2288 25.5592 25.6004 25.8435 25.8153C26.0317 25.9575 26.2439 26.0878 26.4479 26.2224C20.7171 27.9283 14.6883 24.6656 12.9823 18.9347ZM28.3798 25.4343C28.019 25.2502 27.6682 25.047 27.3289 24.8259L27.6893 23.7294C27.7951 23.4069 27.695 23.0525 27.4363 22.833C27.0519 22.5079 26.6952 22.1515 26.3698 21.7674C26.15 21.5096 25.7963 21.41 25.4742 21.5152L24.3743 21.8772C24.1012 21.4759 23.8553 21.057 23.6382 20.6229L24.5119 19.8396C24.7648 19.6132 24.8552 19.2561 24.7404 18.9366C24.5697 18.4649 24.4388 17.9797 24.3491 17.4862C24.2888 17.1527 24.0325 16.8888 23.7008 16.8192L22.6229 16.5922V15.1036L23.7008 14.8766C24.0325 14.8068 24.2888 14.5431 24.3491 14.2096C24.4391 13.7155 24.57 13.2299 24.7404 12.7575C24.8552 12.4382 24.7647 12.0814 24.5119 11.8554L23.6382 11.0729C23.8555 10.6389 24.1014 10.2198 24.3743 9.81851L25.4749 10.1805C25.7974 10.2855 26.1513 10.1856 26.3713 9.92753C26.6964 9.54321 27.0528 9.18649 27.4369 8.8611C27.695 8.6414 27.7946 8.28749 27.6891 7.96544L27.3287 6.86893C27.6681 6.64819 28.0188 6.44536 28.3794 6.26127C29.5183 6.86258 30.5413 7.6612 31.401 8.62016C27.4093 9.69325 25.0432 13.7991 26.1163 17.7908C26.8093 20.3688 28.8231 22.3825 31.401 23.0756C30.5416 24.0343 29.5186 24.833 28.3798 25.4343ZM27.5851 15.0192C27.9528 12.4642 29.9601 10.4569 32.5151 10.0892C34.7478 13.6036 34.7478 18.0919 32.5151 21.6062C29.3347 21.1487 27.1275 18.1995 27.5851 15.0192Z" fill="url(#paint2_linear_125_2080)"/>
<path d="M45.3052 14.2369L44.3063 13.7961C44.2721 13.6765 44.2363 13.5594 44.1972 13.4447L44.7545 12.4839C44.9017 12.2296 44.9042 11.9166 44.7611 11.6599C44.4551 11.1143 44.0901 10.6039 43.6727 10.1379C43.4708 9.91075 43.1609 9.81215 42.8649 9.88087L41.8156 10.1209C41.7268 10.0526 41.6366 9.98582 41.5446 9.92158L41.4422 8.80466C41.4145 8.50916 41.2322 8.25062 40.963 8.12547C40.4019 7.86277 39.8126 7.66483 39.2068 7.53572C38.9196 7.47522 38.6218 7.57081 38.4235 7.78707L37.504 8.78612C33.6237 0.964968 24.1376 -2.22972 16.3165 1.65061C8.49534 5.53094 5.30055 15.0169 9.18088 22.8382C9.41276 23.3056 9.66765 23.7612 9.94462 24.2034L7.71629 26.9887C7.57469 27.1666 7.51148 27.3945 7.54137 27.6199C7.57115 27.8457 7.69266 28.0493 7.87737 28.1828L9.68639 29.4984L0.22354 41.1443C-0.0666492 41.5024 -0.0115684 42.0279 0.346509 42.3181C0.34755 42.319 0.348591 42.3198 0.349528 42.3206L4.51442 45.6525C4.87209 45.9379 5.3928 45.882 5.68174 45.5273L15.3555 33.6215L17.04 34.8466C17.4 35.1085 17.9023 35.0411 18.1805 34.6937L20.7796 31.4445C27.6346 32.6327 34.4507 29.1518 37.5073 22.902L38.4185 23.9047C38.5764 24.0784 38.8003 24.1773 39.0351 24.1772C39.0924 24.1773 39.1497 24.1713 39.2059 24.1593C39.8121 24.0302 40.4017 23.8322 40.963 23.5695C41.232 23.4444 41.4145 23.1857 41.4422 22.8903L41.5446 21.7734C41.6366 21.7083 41.7268 21.6416 41.8147 21.5741L42.8649 21.8141C43.1609 21.8834 43.4711 21.7847 43.6727 21.557C44.0897 21.0912 44.4543 20.5811 44.7602 20.0359C44.904 19.7793 44.9019 19.4658 44.7545 19.2111L44.1972 18.2503C44.2363 18.1356 44.2721 18.0184 44.3063 17.8989L45.3052 17.4581C45.6074 17.3251 45.8024 17.0261 45.8022 16.6959V14.999C45.8024 14.6689 45.6075 14.3699 45.3052 14.2369ZM4.90988 43.8353L2.04568 41.5438L11.036 30.4799L14.0059 32.6405L4.90988 43.8353ZM17.376 33.0318L15.6962 31.81L15.6015 31.7411L9.56197 27.3482L10.9408 25.6258C12.9864 28.2239 15.7932 30.1173 18.9683 31.041L17.376 33.0318ZM23.3607 30.0081C15.5399 30.0081 9.20004 23.6682 9.20004 15.8475C9.20878 8.0304 15.5436 1.69559 23.3607 1.68685C31.1814 1.68685 37.5213 8.02676 37.5213 15.8475C37.5213 23.6682 31.1814 30.0081 23.3607 30.0081ZM44.1363 16.1534L43.2635 16.5381C43.0221 16.6442 42.8455 16.8585 42.7876 17.1157C42.7199 17.4207 42.6268 17.7194 42.5094 18.0089C42.4101 18.2485 42.4282 18.5206 42.5583 18.745L43.0659 19.6203C42.9641 19.7756 42.8554 19.9277 42.7396 20.0766L41.7879 19.8586C41.5265 19.7973 41.2516 19.8667 41.0509 20.0449C40.8203 20.2474 40.5733 20.4302 40.3122 20.5915C40.0904 20.7293 39.9459 20.9628 39.9218 21.2228L39.8283 22.2421C39.6582 22.308 39.4877 22.3658 39.3166 22.4153L38.2291 21.2181C39.5085 17.7468 39.5066 13.9328 38.2238 10.4628L39.3142 9.27883C39.4851 9.3285 39.6575 9.38701 39.8284 9.45292L39.9219 10.4722C39.9461 10.7325 40.091 10.9664 40.3132 11.1042C40.5741 11.265 40.821 11.4475 41.051 11.65C41.2519 11.8277 41.5266 11.8972 41.788 11.8363L42.7397 11.6183C42.8552 11.7671 42.964 11.9193 43.066 12.0746L42.5584 12.9499C42.4283 13.1743 42.4103 13.4464 42.5095 13.686C42.6269 13.9755 42.72 14.2743 42.7877 14.5792C42.8457 14.8364 43.0223 15.0506 43.2636 15.1567L44.1364 15.5415L44.1363 16.1534Z" fill="url(#paint3_linear_125_2080)"/>
</g>
<defs>
<linearGradient id="paint0_linear_125_2080" x1="40.8532" y1="31.6733" x2="40.8532" y2="50.0001" gradientUnits="userSpaceOnUse">
<stop stop-color="#00F8F8"/>
<stop offset="1" stop-color="#00F8F8" stop-opacity="0.25"/>
</linearGradient>
<linearGradient id="paint1_linear_125_2080" x1="40.8534" y1="36.6719" x2="40.8534" y2="45.0017" gradientUnits="userSpaceOnUse">
<stop stop-color="#00F8F8"/>
<stop offset="1" stop-color="#00F8F8" stop-opacity="0.25"/>
</linearGradient>
<linearGradient id="paint2_linear_125_2080" x1="23.3609" y1="3.35303" x2="23.3609" y2="28.3424" gradientUnits="userSpaceOnUse">
<stop stop-color="#00F8F8"/>
<stop offset="1" stop-color="#00F8F8" stop-opacity="0.25"/>
</linearGradient>
<linearGradient id="paint3_linear_125_2080" x1="22.9198" y1="0" x2="22.9198" y2="45.8348" gradientUnits="userSpaceOnUse">
<stop stop-color="#00F8F8"/>
<stop offset="1" stop-color="#00F8F8" stop-opacity="0.25"/>
</linearGradient>
<clipPath id="clip0_125_2080">
<rect width="50" height="50" fill="white"/>
</clipPath>
</defs>
</svg>
