<svg width="36" height="37" viewBox="0 0 36 37" fill="none" xmlns="http://www.w3.org/2000/svg">
<circle cx="17.8428" cy="18.49" r="17.7812" fill="#040521"/>
<g clip-path="url(#clip0_714_10640)">
<path d="M17.8425 20.157C15.4525 20.157 13.5083 22.1012 13.5083 24.4912C13.5083 26.8811 15.4525 28.8253 17.8425 28.8253C20.2324 28.8253 22.1767 26.8811 22.1767 24.4912C22.1767 22.1012 20.2324 20.157 17.8425 20.157Z" fill="url(#paint0_linear_714_10640)"/>
<path d="M17.8427 20.8237C15.8205 20.8237 14.1753 22.4689 14.1753 24.4911C14.1753 26.5133 15.8205 28.1585 17.8427 28.1585C19.8649 28.1585 21.5101 26.5133 21.5101 24.4911C21.5101 22.4689 19.8649 20.8237 17.8427 20.8237Z" fill="white"/>
<path d="M18.1762 24.1578H17.5094C17.1418 24.1578 16.8426 23.8586 16.8426 23.491C16.8426 23.1234 17.1418 22.8242 17.5094 22.8242H19.1764C19.3605 22.8242 19.5098 22.6749 19.5098 22.4908C19.5098 22.3067 19.3605 22.1574 19.1764 22.1574H18.1762V21.4906C18.1762 21.3065 18.0269 21.1572 17.8428 21.1572C17.6587 21.1572 17.5094 21.3065 17.5094 21.4906V22.1574C16.774 22.1574 16.1758 22.7557 16.1758 23.491C16.1758 24.2264 16.774 24.8246 17.5094 24.8246H18.1762C18.5438 24.8246 18.843 25.1238 18.843 25.4914C18.843 25.859 18.5438 26.1582 18.1762 26.1582H16.5092C16.3251 26.1582 16.1758 26.3075 16.1758 26.4916C16.1758 26.6757 16.3251 26.825 16.5092 26.825H17.5094V27.4918C17.5094 27.6759 17.6587 27.8252 17.8428 27.8252C18.0269 27.8252 18.1762 27.6759 18.1762 27.4918V26.825C18.9115 26.825 19.5098 26.2267 19.5098 25.4914C19.5098 24.7561 18.9115 24.1578 18.1762 24.1578Z" fill="url(#paint1_linear_714_10640)"/>
<path d="M20.8429 13.8224H19.8427V8.48806C19.8427 8.30394 19.6934 8.15466 19.5093 8.15466H16.1753C15.9912 8.15466 15.8419 8.30394 15.8419 8.48806V13.8224H14.8417C14.5781 13.8224 14.4173 14.1285 14.5676 14.3457L17.5681 18.6798C17.6985 18.868 17.986 18.868 18.1164 18.6798L21.117 14.3457C21.2673 14.1285 21.1064 13.8224 20.8429 13.8224Z" fill="url(#paint2_linear_714_10640)"/>
<path d="M28.4731 18.0018C28.4155 17.892 28.3019 17.8232 28.1778 17.8232H27.1776V10.8531C27.1776 10.6689 27.0284 10.5197 26.8442 10.5197H23.5103C23.3261 10.5197 23.1769 10.6689 23.1769 10.8531V17.8232H22.1767C21.9131 17.8232 21.7523 18.1292 21.9025 18.3464L24.9031 22.6806C25.0335 22.8688 25.321 22.8688 25.4514 22.6806L28.452 18.3464C28.5225 18.2443 28.5308 18.1116 28.4731 18.0018Z" fill="url(#paint3_linear_714_10640)"/>
<path d="M13.5084 20.157H12.5082V13.1869C12.5082 13.0028 12.3589 12.8535 12.1748 12.8535H8.84082C8.6567 12.8535 8.50742 13.0028 8.50742 13.1869V20.157H7.50723C7.24367 20.157 7.08283 20.4631 7.23309 20.6802L10.2337 25.0144C10.3641 25.2026 10.6516 25.2026 10.782 25.0144L13.7825 20.6802C13.9328 20.4631 13.772 20.157 13.5084 20.157Z" fill="url(#paint4_linear_714_10640)"/>
<path d="M24.1756 19.4902V10.8531C24.1756 10.6689 24.3249 10.5197 24.509 10.5197H23.5103C23.3261 10.5197 23.1769 10.6689 23.1769 10.8531V17.8232H22.1767C21.9131 17.8232 21.7523 18.1292 21.9025 18.3464L24.9031 22.6806C25.0335 22.8688 25.321 22.8688 25.4514 22.6806L25.7042 22.3153L24.1756 19.4902Z" fill="url(#paint5_linear_714_10640)"/>
<path d="M16.8397 15.4919V8.48806C16.8397 8.30394 16.9889 8.15466 17.173 8.15466H16.1743C15.9902 8.15466 15.8409 8.30394 15.8409 8.48806V13.8249H14.8407C14.5772 13.8249 14.4163 14.1309 14.5666 14.3481L17.5672 18.6823C17.6976 18.8705 17.9851 18.8705 18.1155 18.6823L18.3683 18.317L16.8397 15.4919Z" fill="url(#paint6_linear_714_10640)"/>
<path d="M9.50469 21.8265V13.1894C9.50469 13.0052 9.65397 12.856 9.83809 12.856H8.83936C8.65524 12.856 8.50596 13.0052 8.50596 13.1894V20.1595H7.50576C7.2422 20.1595 7.08136 20.4655 7.23162 20.6827L10.2322 25.0169C10.3626 25.2051 10.6501 25.2051 10.7805 25.0169L11.0333 24.6516L9.50469 21.8265Z" fill="url(#paint7_linear_714_10640)"/>
</g>
<defs>
<linearGradient id="paint0_linear_714_10640" x1="17.8425" y1="20.157" x2="17.8425" y2="28.8253" gradientUnits="userSpaceOnUse">
<stop stop-color="#782AEE"/>
<stop offset="1" stop-color="#11CABE"/>
</linearGradient>
<linearGradient id="paint1_linear_714_10640" x1="17.8428" y1="21.1572" x2="17.8428" y2="27.8252" gradientUnits="userSpaceOnUse">
<stop stop-color="#782AEE"/>
<stop offset="1" stop-color="#11CABE"/>
</linearGradient>
<linearGradient id="paint2_linear_714_10640" x1="17.8423" y1="8.15466" x2="17.8423" y2="18.821" gradientUnits="userSpaceOnUse">
<stop stop-color="#782AEE"/>
<stop offset="1" stop-color="#11CABE"/>
</linearGradient>
<linearGradient id="paint3_linear_714_10640" x1="25.178" y1="10.5197" x2="25.178" y2="22.8217" gradientUnits="userSpaceOnUse">
<stop stop-color="#782AEE"/>
<stop offset="1" stop-color="#11CABE"/>
</linearGradient>
<linearGradient id="paint4_linear_714_10640" x1="10.5078" y1="12.8535" x2="10.5078" y2="25.1556" gradientUnits="userSpaceOnUse">
<stop stop-color="#782AEE"/>
<stop offset="1" stop-color="#11CABE"/>
</linearGradient>
<linearGradient id="paint5_linear_714_10640" x1="23.7745" y1="10.5197" x2="23.7745" y2="22.8217" gradientUnits="userSpaceOnUse">
<stop stop-color="#782AEE"/>
<stop offset="1" stop-color="#11CABE"/>
</linearGradient>
<linearGradient id="paint6_linear_714_10640" x1="16.4385" y1="8.15466" x2="16.4385" y2="18.8234" gradientUnits="userSpaceOnUse">
<stop stop-color="#782AEE"/>
<stop offset="1" stop-color="#11CABE"/>
</linearGradient>
<linearGradient id="paint7_linear_714_10640" x1="9.10357" y1="12.856" x2="9.10357" y2="25.158" gradientUnits="userSpaceOnUse">
<stop stop-color="#782AEE"/>
<stop offset="1" stop-color="#11CABE"/>
</linearGradient>
<clipPath id="clip0_714_10640">
<rect width="21.3375" height="21.3375" fill="white" transform="translate(7.17383 7.82129)"/>
</clipPath>
</defs>
</svg>
