<svg width="150" height="150" viewBox="0 0 150 150" fill="none" xmlns="http://www.w3.org/2000/svg">
<path d="M62.8794 25.3794H67.5669V30.0669H62.8794V25.3794Z" fill="url(#paint0_radial_125_1887)"/>
<path d="M123.817 81.6294H128.504V86.3169H123.817V81.6294Z" fill="url(#paint1_radial_125_1887)"/>
<path d="M81.6294 119.129H86.3169V123.817H81.6294V119.129Z" fill="url(#paint2_radial_125_1887)"/>
<path d="M62.8794 126.161H67.5669V130.848H62.8794V126.161Z" fill="url(#paint3_radial_125_1887)"/>
<path d="M25.3794 72.2544H30.0669V76.9419H25.3794V72.2544Z" fill="url(#paint4_radial_125_1887)"/>
<path d="M81.6294 25.3794H86.3169V30.0669H81.6294V25.3794Z" fill="url(#paint5_radial_125_1887)"/>
<path d="M119.129 62.8794H123.817V67.5669H119.129V62.8794Z" fill="url(#paint6_radial_125_1887)"/>
<path d="M107.411 39.4419H112.098V44.1294H107.411V39.4419Z" fill="url(#paint7_radial_125_1887)"/>
<path d="M37.0981 39.4419H41.7856V44.1294H37.0981V39.4419Z" fill="url(#paint8_radial_125_1887)"/>
<path d="M107.411 105.067H112.098V109.754H107.411V105.067Z" fill="url(#paint9_radial_125_1887)"/>
<path d="M37.0981 105.067H41.7856V109.754H37.0981V105.067Z" fill="url(#paint10_radial_125_1887)"/>
<path d="M74.3216 72.2545C72.6824 72.3074 71.1136 72.9328 69.8875 74.022C68.6614 75.1112 67.8556 76.5955 67.6099 78.217C67.3643 79.8385 67.6943 81.4948 68.5428 82.8983C69.3912 84.3018 70.7045 85.3638 72.2544 85.8998V91.0045H76.9419V85.8834C78.5298 85.3273 79.865 84.219 80.7039 82.7605C81.5428 81.3021 81.8295 79.5907 81.5119 77.9385C81.1942 76.2862 80.2933 74.8032 78.9734 73.7598C77.6535 72.7164 76.0025 72.1822 74.3216 72.2545ZM76.9419 79.1944C76.9541 79.502 76.9056 79.8091 76.7992 80.098C76.6927 80.3869 76.5304 80.652 76.3214 80.8781C76.1125 81.1043 75.861 81.287 75.5814 81.416C75.3018 81.5449 74.9996 81.6175 74.6919 81.6295C74.3838 81.6416 74.0764 81.5927 73.7872 81.4857C73.498 81.3787 73.2328 81.2158 73.0067 81.0061C72.666 80.6916 72.4263 80.2831 72.3178 79.8323C72.2094 79.3815 72.237 78.9086 72.3974 78.4736C72.5577 78.0385 72.8435 77.6607 73.2185 77.3881C73.5936 77.1155 74.0411 76.9603 74.5044 76.942H74.5981C75.2038 76.9416 75.7862 77.1756 76.2231 77.595C76.6601 78.0145 76.9177 78.5892 76.9419 79.1944Z" fill="url(#paint11_radial_125_1887)"/>
<path d="M86.3169 65.6544V62.8794C86.3169 59.7714 85.0822 56.7907 82.8846 54.593C80.6869 52.3953 77.7062 51.1606 74.5981 51.1606C71.4901 51.1606 68.5094 52.3953 66.3117 54.593C64.114 56.7907 62.8794 59.7714 62.8794 62.8794V65.6544C61.5132 66.1374 60.3296 67.0307 59.4905 68.2121C58.6515 69.3935 58.1979 70.8053 58.1919 72.2544V91.0044C58.1919 92.8692 58.9327 94.6576 60.2513 95.9762C61.5699 97.2949 63.3583 98.0356 65.2231 98.0356H83.9731C85.8379 98.0356 87.6264 97.2949 88.945 95.9762C90.2636 94.6576 91.0044 92.8692 91.0044 91.0044V72.2544C90.9984 70.8053 90.5448 69.3935 89.7057 68.2121C88.8667 67.0307 87.6831 66.1374 86.3169 65.6544ZM67.5669 62.8794C67.5669 61.0146 68.3077 59.2262 69.6263 57.9075C70.9449 56.5889 72.7333 55.8481 74.5981 55.8481C76.4629 55.8481 78.2514 56.5889 79.57 57.9075C80.8886 59.2262 81.6294 61.0146 81.6294 62.8794V65.2231H67.5669V62.8794ZM86.3169 91.0044C86.3169 91.626 86.07 92.2221 85.6304 92.6617C85.1909 93.1012 84.5947 93.3481 83.9731 93.3481H65.2231C64.6015 93.3481 64.0054 93.1012 63.5659 92.6617C63.1263 92.2221 62.8794 91.626 62.8794 91.0044V72.2544C62.8794 71.6328 63.1263 71.0366 63.5659 70.5971C64.0054 70.1576 64.6015 69.9106 65.2231 69.9106H83.9731C84.5947 69.9106 85.1909 70.1576 85.6304 70.5971C86.07 71.0366 86.3169 71.6328 86.3169 72.2544V91.0044Z" fill="url(#paint12_radial_125_1887)"/>
<path d="M137.879 95.6919C136.835 95.6959 135.806 95.9363 134.868 96.395L129.477 91.0044H107.411V86.3169H119.129V81.6294H107.411V76.9419H119.683L133.011 70.2763C134.18 71.3952 135.698 72.0762 137.311 72.2039C138.924 72.3317 140.531 71.8984 141.861 70.9774C143.19 70.0565 144.161 68.7043 144.609 67.1499C145.056 65.5954 144.953 63.934 144.316 62.447C143.68 60.9599 142.549 59.7385 141.115 58.9893C139.681 58.2402 138.033 58.0094 136.449 58.336C134.864 58.6625 133.442 59.5264 132.421 60.7815C131.4 62.0365 130.845 63.6056 130.848 65.2231C130.859 65.5083 130.888 65.7924 130.935 66.0739L118.576 72.2544H107.411V67.5669H114.442V62.8794H107.411V58.1919H117.756L125.49 50.4575C126.429 50.9166 127.459 51.157 128.504 51.1606C129.895 51.1606 131.254 50.7483 132.411 49.9757C133.567 49.2031 134.468 48.1049 135 46.8201C135.533 45.5353 135.672 44.1216 135.401 42.7577C135.129 41.3937 134.46 40.1409 133.476 39.1576C132.493 38.1742 131.24 37.5046 129.876 37.2332C128.512 36.9619 127.098 37.1012 125.814 37.6334C124.529 38.1655 123.431 39.0668 122.658 40.223C121.886 41.3793 121.473 42.7387 121.473 44.1294C121.477 45.1735 121.718 46.2032 122.176 47.1411L115.815 53.5044H107.411C107.407 50.3975 106.171 47.419 103.974 45.2221C101.777 43.0252 98.7988 41.7894 95.6919 41.7856V35.7247L109.086 22.3325C110.024 22.7912 111.054 23.0316 112.098 23.0356C113.489 23.0356 114.848 22.6233 116.004 21.8507C117.161 21.0781 118.062 19.9799 118.594 18.6951C119.126 17.4103 119.266 15.9966 118.994 14.6327C118.723 13.2687 118.053 12.0159 117.07 11.0326C116.087 10.0492 114.834 9.37955 113.47 9.10825C112.106 8.83695 110.692 8.97619 109.407 9.50837C108.123 10.0405 107.024 10.9418 106.252 12.098C105.479 13.2543 105.067 14.6137 105.067 16.0044C105.071 17.0485 105.311 18.0782 105.77 19.0161L91.0044 33.7817V41.7856H86.3169V34.7544H81.6294V41.7856H76.9419V24.9481C78.5057 24.3953 79.8237 23.3074 80.6629 21.8767C81.5021 20.4461 81.8086 18.7648 81.5281 17.13C81.2477 15.4953 80.3983 14.0123 79.1302 12.9432C77.862 11.8741 76.2568 11.2878 74.5981 11.2878C72.9395 11.2878 71.3343 11.8741 70.0661 12.9432C68.798 14.0123 67.9486 15.4953 67.6682 17.13C67.3877 18.7648 67.6941 20.4461 68.5334 21.8767C69.3726 23.3074 70.6906 24.3953 72.2544 24.9481V41.7856H67.5669V34.7544H62.8794V41.7856H58.1919V24.4091L48.1138 14.331C48.5728 13.3923 48.8132 12.3618 48.8169 11.3169C48.8169 9.92625 48.4045 8.56683 47.6319 7.41054C46.8593 6.25426 45.7612 5.35305 44.4764 4.82087C43.1916 4.28869 41.7778 4.14945 40.4139 4.42075C39.05 4.69205 37.7971 5.36172 36.8138 6.34505C35.8305 7.32839 35.1608 8.58124 34.8895 9.94517C34.6182 11.3091 34.7574 12.7228 35.2896 14.0076C35.8218 15.2924 36.723 16.3906 37.8793 17.1632C39.0356 17.9358 40.395 18.3481 41.7856 18.3481C42.8298 18.3441 43.8594 18.1037 44.7974 17.645L53.5044 26.3497V41.7856C50.3975 41.7894 47.419 43.0252 45.2221 45.2221C43.0252 47.419 41.7894 50.3975 41.7856 53.5044H33.381L27.02 47.1411C27.4787 46.2032 27.7191 45.1735 27.7231 44.1294C27.7231 42.7387 27.3108 41.3793 26.5382 40.223C25.7656 39.0668 24.6674 38.1655 23.3826 37.6334C22.0978 37.1012 20.6841 36.9619 19.3202 37.2332C17.9562 37.5046 16.7034 38.1742 15.7201 39.1576C14.7367 40.1409 14.0671 41.3937 13.7958 42.7577C13.5244 44.1216 13.6637 45.5353 14.1959 46.8201C14.728 48.1049 15.6293 49.2031 16.7855 49.9757C17.9418 50.7483 19.3012 51.1606 20.6919 51.1606C21.736 51.1566 22.7657 50.9162 23.7036 50.4575L31.438 58.1919H41.7856V62.8794H26.8747L14.5981 73.1075C13.592 72.5555 12.4645 72.2623 11.3169 72.2544C9.92625 72.2544 8.56683 72.6668 7.41054 73.4394C6.25426 74.212 5.35305 75.3101 4.82087 76.5949C4.28869 77.8797 4.14945 79.2934 4.42075 80.6574C4.69205 82.0213 5.36172 83.2741 6.34505 84.2575C7.32839 85.2408 8.58124 85.9105 9.94517 86.1818C11.3091 86.4531 12.7228 86.3138 14.0076 85.7817C15.2924 85.2495 16.3906 84.3483 17.1632 83.192C17.9358 82.0357 18.3481 80.6763 18.3481 79.2856C18.3497 78.345 18.1608 77.4138 17.7927 76.5482L28.5716 67.5669H41.7856V72.2544H34.7544V76.9419H41.7856V81.6294H20.6919V86.3169H41.7856V91.0044H28.813L19.3677 105.17C19.0308 105.111 18.6901 105.076 18.3481 105.067C16.7176 105.052 15.1316 105.599 13.857 106.616C12.5823 107.633 11.6968 109.058 11.3492 110.651C11.0017 112.244 11.2133 113.908 11.9486 115.364C12.6839 116.819 13.8979 117.977 15.3866 118.642C16.8752 119.308 18.5476 119.44 20.1225 119.018C21.6974 118.595 23.0787 117.643 24.0341 116.322C24.9895 115 25.4607 113.39 25.3685 111.762C25.2763 110.134 24.6263 108.588 23.5278 107.383L31.3208 95.6919H41.7856C41.7894 98.7988 43.0252 101.777 45.2221 103.974C47.419 106.171 50.3975 107.407 53.5044 107.411V122.847L44.7974 131.551C43.8594 131.093 42.8298 130.852 41.7856 130.848C40.395 130.848 39.0356 131.261 37.8793 132.033C36.723 132.806 35.8218 133.904 35.2896 135.189C34.7574 136.473 34.6182 137.887 34.8895 139.251C35.1608 140.615 35.8305 141.868 36.8138 142.851C37.7971 143.835 39.05 144.504 40.4139 144.776C41.7778 145.047 43.1916 144.908 44.4764 144.375C45.7612 143.843 46.8593 142.942 47.6319 141.786C48.4045 140.629 48.8169 139.27 48.8169 137.879C48.8129 136.835 48.5725 135.806 48.1138 134.868L58.1919 124.79V107.411H62.8794V121.473H67.5669V107.411H72.2544V127.459L86.4903 136.365C86.1077 138.007 86.3191 139.732 87.0868 141.233C87.8546 142.734 89.1292 143.915 90.6845 144.566C92.2399 145.216 93.9755 145.295 95.5835 144.789C97.1915 144.282 98.5681 143.222 99.469 141.796C100.37 140.371 100.737 138.673 100.505 137.003C100.273 135.333 99.4575 133.799 98.2024 132.673C96.9473 131.548 95.3341 130.903 93.6488 130.853C91.9635 130.803 90.315 131.352 88.9958 132.402L76.9419 124.862V107.411H81.6294V114.442H86.3169V107.411H91.0044V126.161H107.842C108.395 127.724 109.483 129.042 110.913 129.882C112.344 130.721 114.025 131.027 115.66 130.747C117.295 130.466 118.778 129.617 119.847 128.349C120.916 127.081 121.502 125.476 121.502 123.817C121.502 122.158 120.916 120.553 119.847 119.285C118.778 118.017 117.295 117.167 115.66 116.887C114.025 116.606 112.344 116.913 110.913 117.752C109.483 118.591 108.395 119.909 107.842 121.473H95.6919V107.411C98.7988 107.407 101.777 106.171 103.974 103.974C106.171 101.777 107.407 98.7988 107.411 95.6919H127.534L131.551 99.7114C131.093 100.649 130.852 101.679 130.848 102.723C130.848 104.114 131.261 105.473 132.033 106.629C132.806 107.786 133.904 108.687 135.189 109.219C136.473 109.751 137.887 109.891 139.251 109.619C140.615 109.348 141.868 108.678 142.851 107.695C143.835 106.712 144.504 105.459 144.776 104.095C145.047 102.731 144.908 101.317 144.375 100.032C143.843 98.7476 142.942 97.6495 141.786 96.8769C140.629 96.1043 139.27 95.6919 137.879 95.6919ZM137.879 62.8794C138.343 62.8794 138.796 63.0169 139.182 63.2744C139.567 63.5319 139.867 63.898 140.045 64.3262C140.222 64.7545 140.269 65.2258 140.178 65.6804C140.088 66.135 139.864 66.5527 139.537 66.8804C139.209 67.2082 138.791 67.4314 138.337 67.5219C137.882 67.6123 137.411 67.5659 136.982 67.3885C136.554 67.2111 136.188 66.9107 135.931 66.5253C135.673 66.1398 135.536 65.6867 135.536 65.2231C135.536 64.6015 135.783 64.0054 136.222 63.5659C136.662 63.1263 137.258 62.8794 137.879 62.8794ZM128.504 41.7856C128.968 41.7856 129.421 41.9231 129.807 42.1806C130.192 42.4382 130.492 42.8042 130.67 43.2325C130.847 43.6608 130.894 44.132 130.803 44.5866C130.713 45.0413 130.489 45.4589 130.162 45.7867C129.834 46.1145 129.416 46.3377 128.962 46.4281C128.507 46.5185 128.036 46.4721 127.607 46.2947C127.179 46.1173 126.813 45.8169 126.556 45.4315C126.298 45.0461 126.161 44.5929 126.161 44.1294C126.161 43.5078 126.408 42.9117 126.847 42.4721C127.287 42.0326 127.883 41.7856 128.504 41.7856ZM112.098 13.6606C112.562 13.6606 113.015 13.7981 113.4 14.0556C113.786 14.3132 114.086 14.6792 114.263 15.1075C114.441 15.5357 114.487 16.007 114.397 16.4616C114.306 16.9163 114.083 17.3339 113.755 17.6617C113.428 17.9895 113.01 18.2127 112.555 18.3031C112.101 18.3935 111.629 18.3471 111.201 18.1697C110.773 17.9923 110.407 17.6919 110.149 17.3065C109.892 16.9211 109.754 16.4679 109.754 16.0044C109.754 15.3828 110.001 14.7867 110.441 14.3471C110.88 13.9076 111.477 13.6606 112.098 13.6606ZM74.5981 16.0044C75.0617 16.0044 75.5148 16.1419 75.9003 16.3994C76.2857 16.6569 76.5861 17.023 76.7635 17.4512C76.9409 17.8795 76.9873 18.3507 76.8969 18.8054C76.8064 19.26 76.5832 19.6776 76.2554 20.0054C75.9277 20.3332 75.51 20.5564 75.0554 20.6469C74.6008 20.7373 74.1295 20.6909 73.7012 20.5135C73.273 20.3361 72.9069 20.0357 72.6494 19.6503C72.3919 19.2648 72.2544 18.8117 72.2544 18.3481C72.2544 17.7265 72.5013 17.1304 72.9409 16.6909C73.3804 16.2513 73.9765 16.0044 74.5981 16.0044ZM39.4419 11.3169C39.4419 10.8533 39.5794 10.4002 39.8369 10.0148C40.0944 9.62935 40.4605 9.32895 40.8887 9.15156C41.317 8.97416 41.7883 8.92775 42.2429 9.01818C42.6975 9.10862 43.1152 9.33184 43.4429 9.65962C43.7707 9.9874 43.9939 10.405 44.0844 10.8597C44.1748 11.3143 44.1284 11.7855 43.951 12.2138C43.7736 12.6421 43.4732 13.0081 43.0878 13.2657C42.7023 13.5232 42.2492 13.6606 41.7856 13.6606C41.164 13.6606 40.5679 13.4137 40.1284 12.9742C39.6888 12.5346 39.4419 11.9385 39.4419 11.3169ZM18.3481 44.1294C18.3481 43.6658 18.4856 43.2127 18.7431 42.8273C19.0007 42.4419 19.3667 42.1414 19.795 41.9641C20.2232 41.7867 20.6945 41.7402 21.1491 41.8307C21.6038 41.9211 22.0214 42.1443 22.3492 42.4721C22.677 42.7999 22.9002 43.2175 22.9906 43.6722C23.081 44.1268 23.0346 44.598 22.8572 45.0263C22.6798 45.4546 22.3794 45.8206 21.994 46.0782C21.6086 46.3357 21.1554 46.4731 20.6919 46.4731C20.0703 46.4731 19.4742 46.2262 19.0346 45.7867C18.5951 45.3471 18.3481 44.751 18.3481 44.1294ZM11.3169 81.6294C10.8533 81.6294 10.4002 81.4919 10.0148 81.2344C9.62935 80.9769 9.32895 80.6108 9.15156 80.1826C8.97416 79.7543 8.92775 79.283 9.01818 78.8284C9.10862 78.3738 9.33184 77.9561 9.65962 77.6284C9.9874 77.3006 10.405 77.0774 10.8597 76.9869C11.3143 76.8965 11.7855 76.9429 12.2138 77.1203C12.6421 77.2977 13.0081 77.5981 13.2657 77.9835C13.5232 78.369 13.6606 78.8221 13.6606 79.2856C13.6606 79.9072 13.4137 80.5034 12.9742 80.9429C12.5346 81.3825 11.9385 81.6294 11.3169 81.6294ZM18.3481 114.442C17.8846 114.442 17.4315 114.304 17.046 114.047C16.6606 113.789 16.3602 113.423 16.1828 112.995C16.0054 112.567 15.959 112.096 16.0494 111.641C16.1399 111.186 16.3631 110.769 16.6909 110.441C17.0186 110.113 17.4363 109.89 17.8909 109.799C18.3455 109.709 18.8168 109.755 19.2451 109.933C19.6733 110.11 20.0394 110.411 20.2969 110.796C20.5544 111.181 20.6919 111.635 20.6919 112.098C20.6919 112.72 20.445 113.316 20.0054 113.755C19.5659 114.195 18.9697 114.442 18.3481 114.442ZM41.7856 140.223C41.3221 140.223 40.869 140.086 40.4835 139.828C40.0981 139.571 39.7977 139.205 39.6203 138.776C39.4429 138.348 39.3965 137.877 39.4869 137.422C39.5774 136.968 39.8006 136.55 40.1284 136.222C40.4561 135.894 40.8738 135.671 41.3284 135.581C41.783 135.49 42.2543 135.537 42.6826 135.714C43.1108 135.891 43.4769 136.192 43.7344 136.577C43.9919 136.963 44.1294 137.416 44.1294 137.879C44.1294 138.501 43.8825 139.097 43.4429 139.537C43.0034 139.976 42.4073 140.223 41.7856 140.223ZM93.3481 135.536C93.8117 135.536 94.2648 135.673 94.6503 135.931C95.0357 136.188 95.3361 136.554 95.5135 136.982C95.6909 137.411 95.7373 137.882 95.6469 138.337C95.5564 138.791 95.3332 139.209 95.0054 139.537C94.6776 139.864 94.26 140.088 93.8054 140.178C93.3507 140.269 92.8795 140.222 92.4512 140.045C92.023 139.867 91.6569 139.567 91.3994 139.182C91.1419 138.796 91.0044 138.343 91.0044 137.879C91.0044 137.258 91.2513 136.662 91.6909 136.222C92.1304 135.783 92.7265 135.536 93.3481 135.536ZM114.442 121.473C114.905 121.473 115.359 121.611 115.744 121.868C116.129 122.126 116.43 122.492 116.607 122.92C116.785 123.348 116.831 123.819 116.741 124.274C116.65 124.729 116.427 125.146 116.099 125.474C115.771 125.802 115.354 126.025 114.899 126.116C114.444 126.206 113.973 126.16 113.545 125.982C113.117 125.805 112.751 125.504 112.493 125.119C112.236 124.734 112.098 124.28 112.098 123.817C112.098 123.195 112.345 122.599 112.785 122.16C113.224 121.72 113.82 121.473 114.442 121.473ZM102.723 95.6919C102.723 97.5567 101.982 99.3451 100.664 100.664C99.3451 101.982 97.5567 102.723 95.6919 102.723H53.5044C51.6396 102.723 49.8512 101.982 48.5326 100.664C47.2139 99.3451 46.4731 97.5567 46.4731 95.6919V53.5044C46.4731 51.6396 47.2139 49.8512 48.5326 48.5326C49.8512 47.2139 51.6396 46.4731 53.5044 46.4731H95.6919C97.5567 46.4731 99.3451 47.2139 100.664 48.5326C101.982 49.8512 102.723 51.6396 102.723 53.5044V95.6919ZM137.879 105.067C137.416 105.067 136.963 104.929 136.577 104.672C136.192 104.414 135.891 104.048 135.714 103.62C135.537 103.192 135.49 102.721 135.581 102.266C135.671 101.811 135.894 101.394 136.222 101.066C136.55 100.738 136.968 100.515 137.422 100.424C137.877 100.334 138.348 100.38 138.776 100.558C139.205 100.735 139.571 101.036 139.828 101.421C140.086 101.806 140.223 102.26 140.223 102.723C140.223 103.345 139.976 103.941 139.537 104.38C139.097 104.82 138.501 105.067 137.879 105.067Z" fill="url(#paint13_radial_125_1887)"/>
<defs>
<radialGradient id="paint0_radial_125_1887" cx="0" cy="0" r="1" gradientUnits="userSpaceOnUse" gradientTransform="translate(65.2231 27.7231) rotate(90) scale(2.34375)">
<stop stop-color="#80CBC4"/>
<stop offset="1" stop-color="#009688"/>
</radialGradient>
<radialGradient id="paint1_radial_125_1887" cx="0" cy="0" r="1" gradientUnits="userSpaceOnUse" gradientTransform="translate(126.161 83.9731) rotate(90) scale(2.34375)">
<stop stop-color="#80CBC4"/>
<stop offset="1" stop-color="#009688"/>
</radialGradient>
<radialGradient id="paint2_radial_125_1887" cx="0" cy="0" r="1" gradientUnits="userSpaceOnUse" gradientTransform="translate(83.9731 121.473) rotate(90) scale(2.34375)">
<stop stop-color="#80CBC4"/>
<stop offset="1" stop-color="#009688"/>
</radialGradient>
<radialGradient id="paint3_radial_125_1887" cx="0" cy="0" r="1" gradientUnits="userSpaceOnUse" gradientTransform="translate(65.2231 128.504) rotate(90) scale(2.34375)">
<stop stop-color="#80CBC4"/>
<stop offset="1" stop-color="#009688"/>
</radialGradient>
<radialGradient id="paint4_radial_125_1887" cx="0" cy="0" r="1" gradientUnits="userSpaceOnUse" gradientTransform="translate(27.7231 74.5981) rotate(90) scale(2.34375)">
<stop stop-color="#80CBC4"/>
<stop offset="1" stop-color="#009688"/>
</radialGradient>
<radialGradient id="paint5_radial_125_1887" cx="0" cy="0" r="1" gradientUnits="userSpaceOnUse" gradientTransform="translate(83.9731 27.7231) rotate(90) scale(2.34375)">
<stop stop-color="#80CBC4"/>
<stop offset="1" stop-color="#009688"/>
</radialGradient>
<radialGradient id="paint6_radial_125_1887" cx="0" cy="0" r="1" gradientUnits="userSpaceOnUse" gradientTransform="translate(121.473 65.2231) rotate(90) scale(2.34375)">
<stop stop-color="#80CBC4"/>
<stop offset="1" stop-color="#009688"/>
</radialGradient>
<radialGradient id="paint7_radial_125_1887" cx="0" cy="0" r="1" gradientUnits="userSpaceOnUse" gradientTransform="translate(109.754 41.7856) rotate(90) scale(2.34375)">
<stop stop-color="#80CBC4"/>
<stop offset="1" stop-color="#009688"/>
</radialGradient>
<radialGradient id="paint8_radial_125_1887" cx="0" cy="0" r="1" gradientUnits="userSpaceOnUse" gradientTransform="translate(39.4419 41.7856) rotate(90) scale(2.34375)">
<stop stop-color="#80CBC4"/>
<stop offset="1" stop-color="#009688"/>
</radialGradient>
<radialGradient id="paint9_radial_125_1887" cx="0" cy="0" r="1" gradientUnits="userSpaceOnUse" gradientTransform="translate(109.754 107.411) rotate(90) scale(2.34375)">
<stop stop-color="#80CBC4"/>
<stop offset="1" stop-color="#009688"/>
</radialGradient>
<radialGradient id="paint10_radial_125_1887" cx="0" cy="0" r="1" gradientUnits="userSpaceOnUse" gradientTransform="translate(39.4419 107.411) rotate(90) scale(2.34375)">
<stop stop-color="#80CBC4"/>
<stop offset="1" stop-color="#009688"/>
</radialGradient>
<radialGradient id="paint11_radial_125_1887" cx="0" cy="0" r="1" gradientUnits="userSpaceOnUse" gradientTransform="translate(74.5844 81.6263) rotate(90) scale(9.37825 7.05365)">
<stop stop-color="#80CBC4"/>
<stop offset="1" stop-color="#009688"/>
</radialGradient>
<radialGradient id="paint12_radial_125_1887" cx="0" cy="0" r="1" gradientUnits="userSpaceOnUse" gradientTransform="translate(74.5981 74.5981) rotate(90) scale(23.4375 16.4062)">
<stop stop-color="#80CBC4"/>
<stop offset="1" stop-color="#009688"/>
</radialGradient>
<radialGradient id="paint13_radial_125_1887" cx="0" cy="0" r="1" gradientUnits="userSpaceOnUse" gradientTransform="translate(74.5982 74.7021) rotate(90) scale(70.4165 70.3125)">
<stop stop-color="#80CBC4"/>
<stop offset="1" stop-color="#009688"/>
</radialGradient>
</defs>
</svg>
