<svg width="26" height="26" viewBox="0 0 26 26" fill="none" xmlns="http://www.w3.org/2000/svg">
<g clip-path="url(#clip0_714_10510)">
<path d="M13.9704 25.3576H11.647C10.8618 25.3576 10.199 24.7695 10.1056 23.9885L9.85775 22.0426C9.36298 21.8818 8.88585 21.6837 8.43258 21.4524L6.88294 22.6566C6.25438 23.1431 5.36961 23.0871 4.82402 22.526L3.19037 20.8923C2.63337 20.3519 2.57736 19.4671 3.06383 18.8396L4.26806 17.2889C4.03572 16.8357 3.83761 16.3585 3.67787 15.8638L1.72786 15.6159C0.949931 15.5204 0.361816 14.8576 0.361816 14.0725V11.749C0.361816 10.9638 0.949931 10.301 1.73097 10.2077L3.67683 9.9598C3.83761 9.46503 4.03572 8.9879 4.26702 8.53463L3.06383 6.98499C2.57632 6.35643 2.63337 5.47062 3.19556 4.92504L4.82921 3.29138C5.36961 2.73438 6.25541 2.67941 6.8819 3.16484L8.43154 4.37011C8.88482 4.13881 9.36194 3.94069 9.85775 3.77992L10.1056 1.82991C10.199 1.05198 10.8618 0.463867 11.647 0.463867H13.9704C14.7556 0.463867 15.4184 1.05198 15.5117 1.83302L15.7596 3.77889C16.2554 3.93966 16.7326 4.13777 17.1858 4.36907L18.7355 3.16484C19.3651 2.67837 20.2488 2.73438 20.7944 3.29657L22.4281 4.93022C22.9851 5.47062 23.0411 6.35539 22.5546 6.98292L21.3504 8.53359C21.5827 8.98687 21.7808 9.464 21.9406 9.95876L23.8906 10.2067C24.6675 10.301 25.2556 10.9638 25.2556 11.749V14.0725C25.2556 14.8576 24.6675 15.5204 23.8864 15.6138L21.9406 15.8617C21.7798 16.3565 21.5817 16.8336 21.3504 17.2869L22.5546 18.8365C23.0421 19.4651 22.985 20.3498 22.4229 20.8954L20.7892 22.5291C20.2488 23.0861 19.363 23.1431 18.7365 22.6556L17.1858 21.4514C16.7326 21.6837 16.2554 21.8818 15.7607 22.0416L15.5128 23.9916C15.4184 24.7695 14.7556 25.3576 13.9704 25.3576ZM8.37968 20.3166C8.46577 20.3166 8.55394 20.3384 8.63277 20.382C9.20428 20.7014 9.82352 20.9587 10.4728 21.1454C10.672 21.2024 10.8182 21.3725 10.8442 21.5779L11.1346 23.8598C11.1657 24.1202 11.3908 24.3204 11.647 24.3204H13.9704C14.2266 24.3204 14.4517 24.1202 14.4818 23.865L14.7732 21.579C14.7992 21.3736 14.9454 21.2035 15.1446 21.1464C15.7939 20.9597 16.4131 20.7025 16.9846 20.383C17.1661 20.2814 17.3923 20.299 17.5551 20.4266L19.3703 21.8372C19.5788 21.999 19.8713 21.9856 20.0497 21.802L21.6937 20.1579C21.8814 19.9754 21.8959 19.6829 21.7341 19.4734L20.3235 17.6582C20.1959 17.4943 20.1783 17.2692 20.2799 17.0877C20.5994 16.5162 20.8566 15.897 21.0433 15.2476C21.1004 15.0485 21.2705 14.9022 21.4759 14.8763L23.7578 14.5859C24.0181 14.5537 24.2183 14.3286 24.2183 14.0725V11.749C24.2183 11.4928 24.0181 11.2678 23.763 11.2377L21.4769 10.9462C21.2715 10.9203 21.1014 10.774 21.0444 10.5749C20.8577 9.92557 20.6004 9.30634 20.281 8.73482C20.1793 8.5533 20.1959 8.32822 20.3245 8.16433L21.7352 6.34916C21.898 6.13964 21.8835 5.84714 21.7009 5.67081L20.0569 4.02679C19.8754 3.83801 19.5819 3.82349 19.3723 3.98633L17.5572 5.39698C17.3923 5.52456 17.1672 5.54219 16.9857 5.44054C16.4162 5.12107 15.797 4.86487 15.1456 4.67713C14.9464 4.62009 14.8002 4.44998 14.7743 4.24461L14.4838 1.96268C14.4517 1.70129 14.2266 1.50111 13.9704 1.50111H11.647C11.3908 1.50111 11.1657 1.70129 11.1356 1.95646L10.8442 4.24253C10.8182 4.4479 10.672 4.61801 10.4728 4.6761C9.82144 4.8628 9.20221 5.12004 8.63277 5.43847C8.45125 5.54116 8.22617 5.52249 8.06125 5.39594L6.24608 3.9853C6.03655 3.82245 5.74509 3.83697 5.56772 4.01952L3.9237 5.66459C3.73596 5.84714 3.72144 6.13964 3.88325 6.34916L5.29389 8.16433C5.42147 8.32822 5.4391 8.5533 5.33746 8.73482C5.01695 9.30634 4.76075 9.92557 4.57405 10.5749C4.517 10.774 4.34689 10.9203 4.14152 10.9462L1.85959 11.2366C1.59924 11.2678 1.39906 11.4928 1.39906 11.749V14.0725C1.39906 14.3286 1.59924 14.5537 1.8544 14.5838L4.14048 14.8753C4.34585 14.9012 4.51596 15.0475 4.57301 15.2466C4.75971 15.8959 5.01695 16.5152 5.33642 17.0867C5.43807 17.2682 5.42147 17.4933 5.29285 17.6572L3.88221 19.4723C3.71936 19.6818 3.73388 19.9743 3.91644 20.1507L5.56046 21.7947C5.74198 21.9824 6.03344 21.997 6.24504 21.8352L8.06021 20.4245C8.1546 20.354 8.26662 20.3166 8.37968 20.3166Z" fill="#646472"/>
<path d="M12.8088 18.097C9.94909 18.097 7.62256 15.7705 7.62256 12.9108C7.62256 10.0511 9.94909 7.72461 12.8088 7.72461C15.6684 7.72461 17.995 10.0511 17.995 12.9108C17.995 15.7705 15.6684 18.097 12.8088 18.097ZM12.8088 8.76185C10.5206 8.76185 8.6598 10.6227 8.6598 12.9108C8.6598 15.199 10.5206 17.0598 12.8088 17.0598C15.0969 17.0598 16.9577 15.199 16.9577 12.9108C16.9577 10.6227 15.0969 8.76185 12.8088 8.76185Z" fill="#646472"/>
</g>
<defs>
<clipPath id="clip0_714_10510">
<rect width="24.8938" height="24.8938" fill="white" transform="translate(0.361816 0.463867)"/>
</clipPath>
</defs>
</svg>
