<svg width="41" height="40" viewBox="0 0 41 40" fill="none" xmlns="http://www.w3.org/2000/svg">
<g clip-path="url(#clip0_660_5549)">
<path d="M38.6827 34.5455H13.2364C12.2345 34.5455 11.4182 33.731 11.4182 32.7282V30.911C11.4182 30.5782 11.6009 30.2728 11.8927 30.1128L20.7891 25.261C17.8091 22.0382 17.7764 17.4791 17.7764 17.2682L17.7818 11.82C17.7818 11.7691 17.7864 11.7191 17.7945 11.67C18.4209 7.9555 22.5218 5.46095 25.9591 5.46095H25.9627C29.3982 5.46095 33.4982 7.95368 34.1264 11.6673C34.1345 11.7173 34.1391 11.7682 34.1391 11.8182L34.1418 17.2673C34.1418 17.4773 34.1091 22.0364 31.13 25.2591L40.0264 30.111C40.3182 30.271 40.5 30.5764 40.5 30.9091V32.7282C40.5 33.731 39.6845 34.5455 38.6827 34.5455ZM29.16 26.2546C28.8936 26.1091 28.7173 25.841 28.6891 25.5391C28.6618 25.2373 28.7873 24.9419 29.0218 24.751C32.2918 22.1 32.3245 17.3164 32.3245 17.2682L32.3209 11.8991C31.81 9.17186 28.5755 7.27732 25.9591 7.27732C23.3418 7.27823 20.1091 9.17368 19.6 11.901L19.5945 17.27C19.5945 17.3164 19.6445 22.1155 22.8964 24.7528C23.1318 24.9437 23.2573 25.2391 23.2291 25.541C23.2018 25.8428 23.0255 26.111 22.7591 26.2564L13.2364 31.451V32.7282H38.6809L38.6818 31.45L29.16 26.2546ZM17.4518 7.7455C16.6491 7.43368 15.8164 7.27004 15.0409 7.27004C12.4236 7.27095 9.19 9.16641 8.68091 11.8937L8.67546 17.2628C8.67546 17.31 8.72455 22.1082 11.9773 24.7455C12.2127 24.9364 12.3382 25.2319 12.3109 25.5337C12.2827 25.8355 12.1064 26.1037 11.84 26.2491L2.31727 31.4437V32.721H8.68C9.18182 32.721 9.58818 33.1282 9.58818 33.63C9.58818 34.1319 9.18182 34.5391 8.68 34.5391H2.31727C1.31545 34.5391 0.5 33.7237 0.5 32.721V30.9037C0.5 30.5719 0.681818 30.2655 0.973636 30.1064L9.87 25.2537C6.89091 22.031 6.85727 17.4719 6.85727 17.2619L6.86273 11.8128C6.86273 11.7628 6.86727 11.7119 6.87545 11.6628C7.50182 7.94914 11.6027 5.45459 15.0409 5.45459C15.0445 5.45459 15.05 5.45459 15.0545 5.45459C16.0464 5.45459 17.1018 5.66095 18.1082 6.05095C18.5773 6.23277 18.8091 6.75914 18.6282 7.22641C18.4455 7.69459 17.9164 7.92732 17.4518 7.7455Z" fill="url(#paint0_radial_660_5549)"/>
</g>
<defs>
<radialGradient id="paint0_radial_660_5549" cx="0" cy="0" r="1" gradientUnits="userSpaceOnUse" gradientTransform="translate(22 22.9188) rotate(91.5026) scale(38.1354 52.4255)">
<stop stop-color="#7C12E5"/>
<stop offset="1"/>
</radialGradient>
<clipPath id="clip0_660_5549">
<rect width="40" height="40" fill="white" transform="translate(0.5)"/>
</clipPath>
</defs>
</svg>
