<svg width="23" height="22" viewBox="0 0 23 22" fill="none" xmlns="http://www.w3.org/2000/svg">
<g clip-path="url(#clip0_714_10682)">
<path d="M5.3173 4.2129H1.38514C1.0385 4.2129 0.757568 3.93178 0.757568 3.58533C0.757568 3.23888 1.0385 2.95776 1.38514 2.95776H5.3173C5.66394 2.95776 5.94487 3.23888 5.94487 3.58533C5.94487 3.93178 5.66394 4.2129 5.3173 4.2129Z" fill="#232325"/>
<path d="M7.56427 6.45965C5.97918 6.45965 4.6897 5.17016 4.6897 3.58521C4.6897 1.99994 5.97918 0.710449 7.56427 0.710449C9.14937 0.710449 10.4389 1.99994 10.4389 3.58521C10.4389 5.17021 9.14937 6.45965 7.56427 6.45965ZM7.56427 1.96563C6.67129 1.96563 5.94483 2.69223 5.94483 3.58521C5.94483 4.47819 6.67129 5.20447 7.56427 5.20447C8.45726 5.20447 9.18372 4.47819 9.18372 3.58521C9.18372 2.69223 8.45726 1.96563 7.56427 1.96563Z" fill="#232325"/>
<path d="M21.4674 4.2129H12.0878C11.7411 4.2129 11.4602 3.93178 11.4602 3.58533C11.4602 3.23888 11.7411 2.95776 12.0878 2.95776H21.4674C21.814 2.95776 22.0949 3.23888 22.0949 3.58533C22.0949 3.93178 21.814 4.2129 21.4674 4.2129Z" fill="#232325"/>
<path d="M15.9903 14.0433C14.4052 14.0433 13.1157 12.7538 13.1157 11.1689C13.1157 9.58392 14.4052 8.29443 15.9903 8.29443C17.5754 8.29443 18.8649 9.58392 18.8649 11.1689C18.8649 12.7538 17.5754 14.0433 15.9903 14.0433ZM15.9903 9.54962C15.0973 9.54962 14.3709 10.2759 14.3709 11.1689C14.3709 12.0619 15.0973 12.7881 15.9903 12.7881C16.8833 12.7881 17.6097 12.0619 17.6097 11.1689C17.6097 10.2759 16.8833 9.54962 15.9903 9.54962Z" fill="#232325"/>
<path d="M11.467 11.7964H1.38514C1.0385 11.7964 0.757568 11.5153 0.757568 11.1688C0.757568 10.8224 1.0385 10.5413 1.38514 10.5413H11.467C11.8137 10.5413 12.0946 10.8224 12.0946 11.1688C12.0946 11.5153 11.8137 11.7964 11.467 11.7964Z" fill="#232325"/>
<path d="M21.4675 11.7964H18.2374C17.8908 11.7964 17.6099 11.5153 17.6099 11.1688C17.6099 10.8224 17.8908 10.5413 18.2374 10.5413H21.4675C21.8141 10.5413 22.095 10.8224 22.095 11.1688C22.095 11.5153 21.8141 11.7964 21.4675 11.7964Z" fill="#232325"/>
<path d="M6.86213 21.627C5.27704 21.627 3.98755 20.3375 3.98755 18.7522C3.98755 17.1673 5.27704 15.8778 6.86213 15.8778C8.44722 15.8778 9.7367 17.1673 9.7367 18.7522C9.7367 20.3375 8.44722 21.627 6.86213 21.627ZM6.86213 17.133C5.96915 17.133 5.24269 17.8593 5.24269 18.7522C5.24269 19.6452 5.96915 20.3718 6.86213 20.3718C7.75511 20.3718 8.48157 19.6452 8.48157 18.7522C8.48157 17.8593 7.75511 17.133 6.86213 17.133Z" fill="#232325"/>
<path d="M21.4673 19.3799H11.3854C11.0387 19.3799 10.7578 19.0988 10.7578 18.7523C10.7578 18.4059 11.0387 18.1248 11.3854 18.1248H21.4673C21.8139 18.1248 22.0948 18.4059 22.0948 18.7523C22.0948 19.0988 21.8139 19.3799 21.4673 19.3799Z" fill="#232325"/>
<path d="M4.61519 19.3798H1.38514C1.0385 19.3798 0.757568 19.0987 0.757568 18.7522C0.757568 18.4057 1.0385 18.1246 1.38514 18.1246H4.61519C4.96183 18.1246 5.24275 18.4057 5.24275 18.7522C5.24275 19.0987 4.96183 19.3798 4.61519 19.3798Z" fill="#232325"/>
</g>
<defs>
<clipPath id="clip0_714_10682">
<rect width="21.3375" height="21.3375" fill="white" transform="translate(0.757568 0.5)"/>
</clipPath>
</defs>
</svg>
