<svg width="22" height="22" viewBox="0 0 22 22" fill="none" xmlns="http://www.w3.org/2000/svg">
<g clip-path="url(#clip0_714_10710)">
<path d="M17.8302 2.1431H17.0343V1.33776C17.0343 0.877629 16.6613 0.504639 16.2012 0.504639C15.7411 0.504639 15.3681 0.877629 15.3681 1.33776V2.1431H7.19399V1.33776C7.19399 0.877629 6.821 0.504639 6.36087 0.504639C5.90073 0.504639 5.52774 0.877629 5.52774 1.33776V2.1431H4.7319C2.46034 2.1431 0.612305 3.99114 0.612305 6.26266V17.713C0.612305 19.9846 2.46034 21.8326 4.7319 21.8326H17.8303C20.1018 21.8326 21.9498 19.9846 21.9498 17.713V6.26266C21.9498 3.99114 20.1018 2.1431 17.8302 2.1431ZM4.7319 3.80935H5.52774V5.43395C5.52774 5.89408 5.90073 6.26707 6.36087 6.26707C6.821 6.26707 7.19399 5.89408 7.19399 5.43395V3.80935H15.3681V5.43395C15.3681 5.89408 15.7411 6.26707 16.2012 6.26707C16.6614 6.26707 17.0344 5.89408 17.0344 5.43395V3.80935H17.8303C19.183 3.80935 20.2836 4.90991 20.2836 6.26266V7.05854H2.27855V6.26266C2.27855 4.90991 3.37911 3.80935 4.7319 3.80935ZM17.8302 20.1664H4.7319C3.37911 20.1664 2.27855 19.0658 2.27855 17.713V8.72479H20.2836V17.713C20.2836 19.0658 19.183 20.1664 17.8302 20.1664ZM8.01325 12.0018C8.01325 12.4619 7.64026 12.8349 7.18012 12.8349H5.54166C5.08152 12.8349 4.70853 12.4619 4.70853 12.0018C4.70853 11.5416 5.08152 11.1686 5.54166 11.1686H7.18012C7.64021 11.1686 8.01325 11.5416 8.01325 12.0018ZM17.8536 12.0018C17.8536 12.4619 17.4806 12.8349 17.0205 12.8349H15.382C14.9219 12.8349 14.5489 12.4619 14.5489 12.0018C14.5489 11.5416 14.9219 11.1686 15.382 11.1686H17.0205C17.4806 11.1686 17.8536 11.5416 17.8536 12.0018ZM12.9287 12.0018C12.9287 12.4619 12.5557 12.8349 12.0956 12.8349H10.4571C9.99696 12.8349 9.62397 12.4619 9.62397 12.0018C9.62397 11.5416 9.99696 11.1686 10.4571 11.1686H12.0956C12.5557 11.1686 12.9287 11.5416 12.9287 12.0018ZM8.01325 16.9172C8.01325 17.3773 7.64026 17.7503 7.18012 17.7503H5.54166C5.08152 17.7503 4.70853 17.3773 4.70853 16.9172C4.70853 16.4571 5.08152 16.0841 5.54166 16.0841H7.18012C7.64021 16.0841 8.01325 16.4571 8.01325 16.9172ZM17.8536 16.9172C17.8536 17.3773 17.4806 17.7503 17.0205 17.7503H15.382C14.9219 17.7503 14.5489 17.3773 14.5489 16.9172C14.5489 16.4571 14.9219 16.0841 15.382 16.0841H17.0205C17.4806 16.0841 17.8536 16.4571 17.8536 16.9172ZM12.9287 16.9172C12.9287 17.3773 12.5557 17.7503 12.0956 17.7503H10.4571C9.99696 17.7503 9.62397 17.3773 9.62397 16.9172C9.62397 16.4571 9.99696 16.0841 10.4571 16.0841H12.0956C12.5557 16.0841 12.9287 16.4571 12.9287 16.9172Z" fill="#232325"/>
</g>
<defs>
<clipPath id="clip0_714_10710">
<rect width="21.3375" height="21.3375" fill="white" transform="translate(0.612305 0.5)"/>
</clipPath>
</defs>
</svg>
