<svg width="15" height="15" viewBox="0 0 15 15" fill="none" xmlns="http://www.w3.org/2000/svg">
<g clip-path="url(#clip0_714_10606)">
<path d="M7.73281 13.9269C11.2927 13.9269 14.1785 11.0411 14.1785 7.48123C14.1785 3.92136 11.2927 1.03552 7.73281 1.03552C4.17295 1.03552 1.28711 3.92136 1.28711 7.48123C1.28711 11.0411 4.17295 13.9269 7.73281 13.9269Z" fill="#00EED1"/>
<path d="M7.73291 13.0378C10.8018 13.0378 13.2896 10.55 13.2896 7.4812C13.2896 4.41235 10.8018 1.92456 7.73291 1.92456C4.66406 1.92456 2.17627 4.41235 2.17627 7.4812C2.17627 10.55 4.66406 13.0378 7.73291 13.0378Z" fill="#00DDC2"/>
<path d="M7.76495 1.03552C7.83693 1.32917 7.88817 1.62752 7.91831 1.92836C8.9445 1.96256 9.94115 2.28043 10.7977 2.84668C11.6542 3.41293 12.337 4.20542 12.7705 5.13621C13.2039 6.067 13.371 7.09969 13.2531 8.11967C13.1353 9.13964 12.7371 10.107 12.1029 10.9145C11.4686 11.7219 10.623 12.3378 9.65997 12.6938C8.6969 13.0498 7.65403 13.1321 6.64707 12.9314C5.64012 12.7307 4.70846 12.2549 3.95549 11.5568C3.20252 10.8588 2.65768 9.96576 2.38145 8.97685C2.0924 9.01641 1.80102 9.03653 1.50928 9.03709C1.49839 9.03709 1.48705 9.03709 1.47705 9.03709C1.76832 10.208 2.38239 11.2737 3.24942 12.1128C4.11644 12.9519 5.20159 13.5309 6.3814 13.7837C7.56121 14.0366 8.78831 13.9532 9.92307 13.5431C11.0578 13.1329 12.0547 12.4125 12.8002 11.4638C13.5458 10.5151 14.01 9.37616 14.1402 8.1766C14.2704 6.97704 14.0613 5.76503 13.5366 4.67846C13.012 3.59189 12.1929 2.6744 11.1725 2.03038C10.1522 1.38635 8.97153 1.04166 7.76495 1.03552Z" fill="#00DDC2"/>
<path d="M7.73262 13.0379C9.1835 13.0278 10.5729 12.4506 11.6038 11.4296C12.6347 10.4087 13.2255 9.02497 13.2497 7.57425C13.2739 6.12353 12.7298 4.72087 11.7335 3.66605C10.7373 2.61122 9.36795 1.98791 7.91821 1.92932C7.94178 2.14926 7.95402 2.37026 7.95488 2.59145C7.95465 4.14971 7.38993 5.65513 6.36524 6.82909C5.34055 8.00306 3.92528 8.76607 2.38135 8.97692C2.70783 10.1451 3.40759 11.1744 4.37381 11.9077C5.34004 12.6409 6.51966 13.0379 7.73262 13.0379Z" fill="#00CCB3"/>
<path d="M9.73301 4.5918H5.73223C5.55538 4.5918 5.38578 4.66205 5.26073 4.7871C5.13568 4.91215 5.06543 5.08175 5.06543 5.25859C5.06543 5.43544 5.13568 5.60504 5.26073 5.73009C5.38578 5.85514 5.55538 5.92539 5.73223 5.92539H7.06582V10.593C7.06582 10.7698 7.13607 10.9394 7.26112 11.0645C7.38617 11.1895 7.55577 11.2598 7.73262 11.2598C7.90946 11.2598 8.07906 11.1895 8.20411 11.0645C8.32916 10.9394 8.39941 10.7698 8.39941 10.593V5.92539H9.73301C9.90985 5.92539 10.0795 5.85514 10.2045 5.73009C10.3296 5.60504 10.3998 5.43544 10.3998 5.25859C10.3998 5.08175 10.3296 4.91215 10.2045 4.7871C10.0795 4.66205 9.90985 4.5918 9.73301 4.5918Z" fill="#F1F2F2"/>
<path d="M7.73281 9.03703C7.50766 9.03703 7.27806 9.02858 7.04979 9.01214C5.87601 8.9279 4.62109 8.5985 4.62109 7.9257C4.62109 7.46206 5.25633 7.09443 6.3641 6.91751C6.42143 6.91005 6.47941 6.92523 6.52574 6.95982C6.57207 6.99441 6.60309 7.04569 6.61223 7.10278C6.62137 7.15987 6.6079 7.21827 6.57469 7.2656C6.54148 7.31292 6.49113 7.34544 6.43434 7.35626C5.41036 7.52007 5.06563 7.8159 5.06563 7.9257C5.06563 8.10351 5.73931 8.47248 7.0818 8.56872C7.51508 8.60028 7.9501 8.60028 8.38338 8.56872C9.72631 8.47248 10.4 8.10463 10.4 7.9257C10.4 7.8159 10.0553 7.52007 9.03129 7.35626C8.97449 7.34544 8.92415 7.31292 8.89094 7.2656C8.85772 7.21827 8.84426 7.15987 8.8534 7.10278C8.86254 7.04569 8.89356 6.99441 8.93989 6.95982C8.98621 6.92523 9.04419 6.91005 9.10152 6.91751C10.2093 7.09443 10.8445 7.46206 10.8445 7.9257C10.8445 8.5985 9.58962 8.9279 8.41539 9.01214C8.18757 9.02858 7.95797 9.03703 7.73281 9.03703Z" fill="#E6E7E8"/>
</g>
<defs>
<clipPath id="clip0_714_10606">
<rect width="14.225" height="14.225" fill="white" transform="translate(0.620117 0.368774)"/>
</clipPath>
</defs>
</svg>
