<svg width="50" height="50" viewBox="0 0 50 50" fill="none" xmlns="http://www.w3.org/2000/svg">
<path d="M31.3785 31.3975C31.8064 32.3067 32.0457 33.3225 32.0457 34.394C32.0457 38.2852 28.8913 41.4395 25.0002 41.4395C21.1092 41.4395 17.9548 38.2851 17.9548 34.394C17.9548 30.503 21.1091 27.3486 25.0002 27.3486C26.678 27.3486 28.2187 27.9351 29.4288 28.9142" stroke="url(#paint0_linear_125_2108)" stroke-width="1.46484" stroke-miterlimit="10" stroke-linecap="round" stroke-linejoin="round"/>
<path d="M39.8228 33.2628C39.7629 32.5769 39.2107 32.036 38.5246 31.9789L36.7614 31.8319C36.4524 30.4069 35.8888 29.0795 35.1244 27.8917L36.2705 26.5371C36.7153 26.0115 36.7233 25.2387 36.2807 24.7113C36.0401 24.4248 35.787 24.1455 35.5174 23.8759C35.2479 23.6063 34.9685 23.3531 34.6819 23.1126C34.1546 22.6699 33.3817 22.6779 32.8562 23.1227L31.5016 24.2688C30.3138 23.5045 28.9862 22.9407 27.5613 22.6318L27.4144 20.8687C27.3571 20.1825 26.8164 19.6303 26.1305 19.5705C25.7579 19.538 25.3813 19.5195 25.0001 19.5195C24.6188 19.5195 24.2423 19.538 23.8697 19.5705C23.1838 19.6304 22.643 20.1825 22.5858 20.8687L22.4389 22.6318C21.0139 22.9408 19.6863 23.5045 18.4986 24.2688L17.144 23.1227C16.6185 22.6779 15.8456 22.6698 15.3183 23.1126C15.0317 23.3531 14.7524 23.6063 14.4828 23.8759C14.2133 24.1454 13.9601 24.4248 13.7195 24.7113C13.2769 25.2387 13.2849 26.0115 13.7297 26.5371L14.8758 27.8917C14.1114 29.0795 13.5477 30.407 13.2388 31.8319L11.4756 31.9789C10.7895 32.036 10.2373 32.5769 10.1774 33.2628C10.1449 33.6354 10.1265 34.0119 10.1265 34.3933C10.1265 34.7745 10.1449 35.1511 10.1774 35.5236C10.2373 36.2096 10.7895 36.7504 11.4756 36.8075L13.2388 36.9545C13.5478 38.3795 14.1114 39.707 14.8758 40.8947L13.7297 42.2492C13.2849 42.7748 13.2769 43.5477 13.7195 44.0751C13.9601 44.3615 14.2132 44.6409 14.4828 44.9105C14.7523 45.1801 15.0317 45.4333 15.3183 45.6738C15.8456 46.1165 16.6185 46.1085 17.144 45.6637L18.4986 44.5176C19.6864 45.2819 21.014 45.8457 22.4389 46.1546L22.5858 47.9177C22.6431 48.6038 23.1838 49.1561 23.8697 49.2158C24.2423 49.2483 24.6188 49.2669 25.0001 49.2669C25.3813 49.2669 25.7579 49.2483 26.1305 49.2158C26.8164 49.156 27.3572 48.6038 27.4144 47.9177L27.5613 46.1546C28.9862 45.8456 30.3139 45.2819 31.5016 44.5176L32.8562 45.6637C33.3817 46.1084 34.1546 46.1165 34.6819 45.6738C34.9685 45.4333 35.2478 45.1802 35.5174 44.9105C35.7869 44.6409 36.0401 44.3616 36.2807 44.0751C36.7233 43.5478 36.7153 42.7749 36.2705 42.2492L35.1244 40.8947C35.8888 39.7069 36.4525 38.3794 36.7614 36.9545L38.5246 36.8075C39.2107 36.7503 39.7629 36.2096 39.8228 35.5236C39.8553 35.151 39.8737 34.7745 39.8737 34.3933C39.8737 34.0119 39.8553 33.6354 39.8228 33.2628Z" stroke="url(#paint1_linear_125_2108)" stroke-width="1.46484" stroke-miterlimit="10" stroke-linecap="round" stroke-linejoin="round"/>
<path d="M28.1315 16.389V10.1264H31.2627L25.0001 0.732422L18.7375 10.1264H21.8688V16.389" stroke="url(#paint2_linear_125_2108)" stroke-width="1.46484" stroke-miterlimit="10" stroke-linecap="round" stroke-linejoin="round"/>
<path d="M38.3079 21.8685V16.3888H40.6564L35.9594 9.34326L31.2625 16.3888H33.6109V19.52" stroke="url(#paint3_linear_125_2108)" stroke-width="1.46484" stroke-miterlimit="10" stroke-linecap="round" stroke-linejoin="round"/>
<path d="M11.692 21.8685V16.3888H9.34351L14.0405 9.34326L18.7375 16.3888H16.389V19.52" stroke="url(#paint4_linear_125_2108)" stroke-width="1.46484" stroke-miterlimit="10" stroke-linecap="round" stroke-linejoin="round"/>
<defs>
<linearGradient id="paint0_linear_125_2108" x1="25.0002" y1="27.3486" x2="25.0002" y2="41.4395" gradientUnits="userSpaceOnUse">
<stop stop-color="#672AE9"/>
<stop offset="1" stop-color="#672AE9" stop-opacity="0.25"/>
</linearGradient>
<linearGradient id="paint1_linear_125_2108" x1="25.0001" y1="19.5195" x2="25.0001" y2="49.2669" gradientUnits="userSpaceOnUse">
<stop stop-color="#672AE9"/>
<stop offset="1" stop-color="#672AE9" stop-opacity="0.25"/>
</linearGradient>
<linearGradient id="paint2_linear_125_2108" x1="25.0001" y1="0.732422" x2="25.0001" y2="16.389" gradientUnits="userSpaceOnUse">
<stop stop-color="#672AE9"/>
<stop offset="1" stop-color="#672AE9" stop-opacity="0.25"/>
</linearGradient>
<linearGradient id="paint3_linear_125_2108" x1="35.9594" y1="9.34326" x2="35.9594" y2="21.8685" gradientUnits="userSpaceOnUse">
<stop stop-color="#672AE9"/>
<stop offset="1" stop-color="#672AE9" stop-opacity="0.25"/>
</linearGradient>
<linearGradient id="paint4_linear_125_2108" x1="14.0405" y1="9.34326" x2="14.0405" y2="21.8685" gradientUnits="userSpaceOnUse">
<stop stop-color="#672AE9"/>
<stop offset="1" stop-color="#672AE9" stop-opacity="0.25"/>
</linearGradient>
</defs>
</svg>
