<svg width="26" height="26" viewBox="0 0 26 26" fill="none" xmlns="http://www.w3.org/2000/svg">
<path d="M22.1439 7.14514H20.588V4.81135C20.588 3.9533 19.8902 3.25549 19.0322 3.25549H4.64048C3.13907 3.25549 1.91772 4.47684 1.91772 5.97825V19.981C1.91772 21.4824 3.13907 22.7037 4.64048 22.7037H22.1439C23.002 22.7037 23.6998 22.0059 23.6998 21.1479C23.6998 16.4313 23.6998 12.88 23.6998 8.701C23.6998 7.84294 23.002 7.14514 22.1439 7.14514ZM4.64048 4.81135H19.0322V7.14514H4.64048C3.99713 7.14514 3.47358 6.62159 3.47358 5.97825C3.47358 5.3349 3.99713 4.81135 4.64048 4.81135ZM22.1439 16.4803H19.0322C18.1741 16.4803 17.4763 15.7825 17.4763 14.9244C17.4763 14.0664 18.1741 13.3686 19.0322 13.3686H22.1439V16.4803ZM22.1439 11.8127H19.0322C17.3161 11.8127 15.9205 13.2083 15.9205 14.9244C15.9205 16.6406 17.3161 18.0362 19.0322 18.0362H22.1439V21.1479H4.64048C3.99713 21.1479 3.47358 20.6243 3.47358 19.981V8.43806C3.82754 8.60687 4.22273 8.701 4.64048 8.701H22.1439V11.8127Z" fill="#646472"/>
</svg>
