<svg width="40" height="40" viewBox="0 0 40 40" fill="none" xmlns="http://www.w3.org/2000/svg">
<path d="M35 11.25H32.5V7.5C32.5 6.12125 31.3787 5 30 5H6.875C4.4625 5 2.5 6.9625 2.5 9.375V31.875C2.5 34.2875 4.4625 36.25 6.875 36.25H35C36.3787 36.25 37.5 35.1287 37.5 33.75C37.5 26.1712 37.5 20.465 37.5 13.75C37.5 12.3713 36.3787 11.25 35 11.25ZM6.875 7.5H30V11.25H6.875C5.84125 11.25 5 10.4088 5 9.375C5 8.34125 5.84125 7.5 6.875 7.5ZM35 26.25H30C28.6213 26.25 27.5 25.1287 27.5 23.75C27.5 22.3713 28.6213 21.25 30 21.25H35V26.25ZM35 18.75H30C27.2425 18.75 25 20.9925 25 23.75C25 26.5075 27.2425 28.75 30 28.75H35V33.75H6.875C5.84125 33.75 5 32.9088 5 31.875V13.3275C5.56875 13.5987 6.20375 13.75 6.875 13.75H35V18.75Z" fill="white"/>
</svg>
