<svg width="50" height="50" viewBox="0 0 50 50" fill="none" xmlns="http://www.w3.org/2000/svg">
<path fill-rule="evenodd" clip-rule="evenodd" d="M24.9998 4.16602C13.5019 4.16602 4.1665 13.5014 4.1665 24.9994C4.1665 36.4973 13.5019 45.8327 24.9998 45.8327C36.4978 45.8327 45.8332 36.4973 45.8332 24.9994C45.8332 13.5014 36.4978 4.16602 24.9998 4.16602ZM24.9998 8.33268C34.1978 8.33268 41.6665 15.8014 41.6665 24.9994C41.6665 34.1973 34.1978 41.666 24.9998 41.666C15.8019 41.666 8.33317 34.1973 8.33317 24.9994C8.33317 15.8014 15.8019 8.33268 24.9998 8.33268ZM24.9998 31.2348C26.1498 31.2348 27.0832 32.1681 27.0832 33.3181C27.0832 34.4681 26.1498 35.4014 24.9998 35.4014C23.8498 35.4014 22.9165 34.4681 22.9165 33.3181C22.9165 32.1681 23.8498 31.2348 24.9998 31.2348ZM27.0832 27.0827V14.5827C27.0832 13.4327 26.1498 12.4993 24.9998 12.4993C23.8498 12.4993 22.9165 13.4327 22.9165 14.5827V27.0827C22.9165 28.2327 23.8498 29.166 24.9998 29.166C26.1498 29.166 27.0832 28.2327 27.0832 27.0827Z" fill="url(#paint0_linear_470_5309)"/>
<defs>
<linearGradient id="paint0_linear_470_5309" x1="35.7529" y1="13.5987" x2="35.7529" y2="32.5218" gradientUnits="userSpaceOnUse">
<stop stop-color="#7F6EE9"/>
<stop offset="1" stop-color="#009688"/>
</linearGradient>
</defs>
</svg>
